<?xml version="1.0" encoding="utf-8"?>
<!-- Generator: Adobe Illustrator 17.1.0, SVG Export Plug-In . SVG Version: 6.00 Build 0)  -->
<!DOCTYPE svg PUBLIC "-//W3C//DTD SVG 1.1//EN" "http://www.w3.org/Graphics/SVG/1.1/DTD/svg11.dtd">
<svg version="1.1" id="Layer_1" xmlns="http://www.w3.org/2000/svg" xmlns:xlink="http://www.w3.org/1999/xlink" x="0px" y="0px"
	 viewBox="0 0 931 450.6" enable-background="new 0 0 931 450.6" xml:space="preserve">
<circle class="circle" fill="none" stroke="#FFF7B5" stroke-miterlimit="10" cx="563.8" cy="90.1" r="57.7"/>
<circle class="circle" fill="none" stroke="#FFF7B5" stroke-miterlimit="10" cx="563.8" cy="224.4" r="64.8"/>
<circle fill="none" stroke="#FFF7B5" stroke-miterlimit="10" cx="398" cy="271.6" r="57.7"/>
<g>
	<circle fill="none" stroke="#FFF7B5" stroke-miterlimit="10" cx="801.5" cy="247.5" r="57.7"/>
</g>
<circle fill="none" stroke="#FFF7B5" stroke-miterlimit="10" cx="695.1" cy="147.8" r="73.6"/>
<circle fill="none" stroke="#FFF7B5" stroke-miterlimit="10" cx="120.8" cy="242.1" r="62"/>
<circle fill="none" stroke="#FFF7B5" stroke-miterlimit="10" cx="240.5" cy="277.6" r="50.8"/>
<circle fill="none" stroke="#FFF7B5" stroke-miterlimit="10" cx="218.9" cy="171.4" r="45.9"/>
<circle fill="none" stroke="#FFF7B5" stroke-miterlimit="10" cx="160.6" cy="79.2" r="50.7"/>
<circle fill="none" stroke="#FFF7B5" stroke-miterlimit="10" cx="264.8" cy="79.2" r="45.9"/>
<circle fill="none" stroke="#FFF7B5" stroke-miterlimit="10" cx="334.7" cy="163.9" r="54.9"/>
<g>
	<g>
		<rect x="-24.4" y="-708.1" fill="none" width="231" height="53.4"/>
		<text transform="matrix(1 0 0 1 -15.222 -695.2125)" fill="#EEEEEE" font-family="'Gibson-SemiBold'" font-size="18.6764">Better Than Average</text>
	</g>
	<g>
		<rect x="335.8" y="-708.1" fill="none" width="160.1" height="53.4"/>
		<text transform="matrix(1 0 0 1 350.2636 -695.2125)" fill="#EEEEEE" font-family="'Gibson-SemiBold'" font-size="18.6764">Best In Breed</text>
	</g>
	<g>
	</g>
</g>
<circle fill="none" stroke="#F9F1C3" stroke-miterlimit="10" cx="478.4" cy="-1047.8" r="57.7"/>
<rect x="420.7" y="-1062" fill="none" width="115.4" height="28.4"/>
<text transform="matrix(1 0 0 1 438.3137 -1051.6411)"><tspan x="0" y="0" fill="#F9F1C3" font-family="'Gibson-Regular'" font-size="15">Technical </tspan><tspan x="22.7" y="18" fill="#F9F1C3" font-family="'Gibson-Regular'" font-size="15">Skill</tspan></text>
<circle fill="none" stroke="#F9F1C3" stroke-miterlimit="10" cx="478.4" cy="-913.5" r="64.8"/>
<rect x="413.5" y="-919.3" fill="none" width="129.7" height="11.6"/>
<text transform="matrix(1 0 0 1 440.2332 -907.688)" fill="#F9F1C3" font-family="'Gibson-Regular'" font-size="16.853">Product</text>
<circle fill="none" stroke="#F9F1C3" stroke-miterlimit="10" cx="352.6" cy="-866.3" r="57.7"/>
<rect x="294.9" y="-880.5" fill="none" width="115.4" height="28.4"/>
<text transform="matrix(1 0 0 1 313.2026 -870.1419)"><tspan x="0" y="0" fill="#F9F1C3" font-family="'Gibson-Regular'" font-size="15">Customer</tspan><tspan x="10.9" y="18" fill="#F9F1C3" font-family="'Gibson-Regular'" font-size="15">service</tspan></text>
<g>
	<circle fill="none" stroke="#F9F1C3" stroke-miterlimit="10" cx="716.3" cy="-890.6" r="57.7"/>
</g>
<rect x="658.6" y="-895.7" fill="none" width="115.4" height="10.4"/>
<text transform="matrix(1 0 0 1 687.8316 -885.3859)" fill="#F9F1C3" font-family="'Gibson-Regular'" font-size="15">COMMS</text>
<circle fill="none" stroke="#F9F1C3" stroke-miterlimit="10" cx="609.7" cy="-990.1" r="73.6"/>
<rect x="536.1" y="-1008.2" fill="none" width="147.2" height="36.2"/>
<text transform="matrix(1 0 0 1 570.4166 -994.9911)"><tspan x="0" y="0" fill="#F9F1C3" font-family="'Gibson-Regular'" font-size="19.1288">Overall</tspan><tspan x="10.9" y="23" fill="#F9F1C3" font-family="'Gibson-Regular'" font-size="19.1288">value</tspan></text>
<circle fill="none" stroke="#F9F1C3" stroke-miterlimit="10" cx="75.4" cy="-895.7" r="62"/>
<rect x="13.4" y="-911" fill="none" width="124" height="30.5"/>
<text transform="matrix(1 0 0 1 65.1705 -899.873)"><tspan x="0" y="0" fill="#F9F1C3" font-family="'Gibson-Regular'" font-size="16.1136">UX</tspan><tspan x="-18.9" y="19.3" fill="#F9F1C3" font-family="'Gibson-Regular'" font-size="16.1136">Design</tspan></text>
<circle fill="none" stroke="#F9F1C3" stroke-miterlimit="10" cx="195.2" cy="-860.2" r="50.8"/>
<rect x="144.4" y="-872.7" fill="none" width="101.5" height="25"/>
<text transform="matrix(1 0 0 1 160.9014 -863.6301)"><tspan x="0" y="0" fill="#F9F1C3" font-family="'Gibson-Regular'" font-size="13.1911">Frontend</tspan><tspan x="22" y="15.8" fill="#F9F1C3" font-family="'Gibson-Regular'" font-size="13.1911">dev</tspan></text>
<circle fill="none" stroke="#F9F1C3" stroke-miterlimit="10" cx="173.5" cy="-966.5" r="45.9"/>
<rect x="127.6" y="-977.7" fill="none" width="91.8" height="22.6"/>
<text transform="matrix(1 0 0 1 146.1638 -969.5198)"><tspan x="0" y="0" fill="#F9F1C3" font-family="'Gibson-Regular'" font-size="11.9275">backend</tspan><tspan x="16.3" y="14.3" fill="#F9F1C3" font-family="'Gibson-Regular'" font-size="11.9275">dev</tspan></text>
<circle fill="none" stroke="#F9F1C3" stroke-miterlimit="10" cx="115.2" cy="-1058.7" r="50.7"/>
<rect x="64.6" y="-1063.4" fill="none" width="101.3" height="9.3"/>
<text transform="matrix(1 0 0 1 90.7341 -1054.2721)" fill="#F9F1C3" font-family="'Gibson-Regular'" font-size="13.1656">iOS DEV</text>
<circle fill="none" stroke="#F9F1C3" stroke-miterlimit="10" cx="219.4" cy="-1058.7" r="45.9"/>
<rect x="173.5" y="-1060.3" fill="none" width="91.8" height="8.4"/>
<text transform="matrix(1 0 0 1 182.3536 -1054.084)" fill="#F9F1C3" font-family="'Gibson-Regular'" font-size="9">RESPONSIVENESS</text>
<circle fill="none" stroke="#F9F1C3" stroke-miterlimit="10" cx="289.4" cy="-974" r="54.9"/>
<rect x="234.4" y="-987.5" fill="none" width="109.8" height="27"/>
<text transform="matrix(1 0 0 1 260.0662 -977.6832)"><tspan x="0" y="0" fill="#F9F1C3" font-family="'Gibson-Regular'" font-size="14.2733">OVERALL</tspan><tspan x="11" y="17.1" fill="#F9F1C3" font-family="'Gibson-Regular'" font-size="14.2733">COST</tspan></text>
<text transform="matrix(1 0 0 1 561 710)" font-family="'MyriadPro-Regular'" font-size="12">E9E61E</text>
<g>
	<g>
		<path fill="#FFFFFF" d="M-336.6,139.1h-2.7v8.4h-2.4v-8.4h-2.7v-1.9h7.8V139.1z"/>
		<path fill="#FFFFFF" d="M-328.5,147.5h-6.8v-10.3h6.7v1.9h-4.3v2.1h4v1.9h-4v2.4h4.4V147.5z"/>
		<path fill="#FFFFFF" d="M-318,146.3c-0.5,0.5-1.6,1.4-3.7,1.4c-3,0-5.4-2-5.4-5.3c0-3.3,2.4-5.3,5.4-5.3c2.1,0,3.3,0.9,3.6,1.2
			l-0.8,2c-0.2-0.3-1.3-1.1-2.7-1.1c-1.8,0-3.1,1.2-3.1,3.2s1.4,3.2,3.1,3.2c1.3,0,2.2-0.5,2.8-1.1L-318,146.3z"/>
		<path fill="#FFFFFF" d="M-307.5,147.5h-2.4v-4.3h-4.2v4.3h-2.4v-10.3h2.4v4h4.2v-4h2.4V147.5z"/>
		<path fill="#FFFFFF" d="M-295.9,147.5h-2.5l-4.5-7c0,0,0,1.2,0,2.3v4.7h-2.4v-10.3h2.6l4.4,7c0,0,0-1.2,0-2.3v-4.7h2.4V147.5z"/>
		<path fill="#FFFFFF" d="M-291.1,147.5h-2.4v-10.3h2.4V147.5z"/>
		<path fill="#FFFFFF" d="M-280.2,146.3c-0.5,0.5-1.6,1.4-3.7,1.4c-3,0-5.4-2-5.4-5.3c0-3.3,2.4-5.3,5.4-5.3c2.1,0,3.3,0.9,3.6,1.2
			l-0.8,2c-0.2-0.3-1.3-1.1-2.7-1.1c-1.8,0-3.1,1.2-3.1,3.2s1.4,3.2,3.1,3.2c1.3,0,2.2-0.5,2.8-1.1L-280.2,146.3z"/>
		<path fill="#FFFFFF" d="M-269.3,147.5h-2.6l-0.7-2.1h-3.7l-0.7,2.1h-2.5l3.9-10.4h2.5L-269.3,147.5z M-273.2,143.5l-1.3-3.7
			l-1.3,3.7H-273.2z"/>
		<path fill="#FFFFFF" d="M-262.1,147.5h-6v-10.3h2.4v8.3h3.6V147.5z"/>
		<path fill="#FFFFFF" d="M-315.3,164.8c-0.7,0.6-1.7,0.9-2.8,0.9c-1.5,0-2.8-0.8-3.7-1.6l1.2-1.8c0.8,0.8,1.9,1.3,2.7,1.3
			c0.8,0,1.4-0.4,1.4-1.1c0-0.7-0.8-1-1.2-1.1c-0.4-0.2-1.2-0.4-1.6-0.6c-0.3-0.1-0.8-0.3-1.2-0.8c-0.5-0.4-0.8-1-0.8-2
			c0-1,0.5-1.8,1.1-2.3c0.6-0.5,1.5-0.8,2.7-0.8s2.6,0.6,3.3,1.3l-1,1.7c-0.6-0.6-1.5-1.1-2.3-1.1c-0.8,0-1.4,0.3-1.4,0.9
			s0.6,0.9,1,1c0.5,0.2,1.2,0.5,1.5,0.6c0.3,0.1,1,0.4,1.4,0.8c0.4,0.4,0.8,1.1,0.8,2C-314.1,163.3-314.5,164.2-315.3,164.8z"/>
		<path fill="#FFFFFF" d="M-303.6,165.5h-2.9l-2.6-4.3l-0.8,0.9v3.4h-2.4v-10.3h2.4v3.8l3.2-3.8h2.9l-3.6,4.1L-303.6,165.5z"/>
		<path fill="#FFFFFF" d="M-300.1,165.5h-2.4v-10.3h2.4V165.5z"/>
		<path fill="#FFFFFF" d="M-291.8,165.5h-6v-10.3h2.4v8.3h3.6V165.5z"/>
		<path fill="#FFFFFF" d="M-284.5,165.5h-6v-10.3h2.4v8.3h3.6V165.5z"/>
	</g>
	<g>
		<path fill="#FFFFFF" d="M-334.4,286.3c-0.8,0.6-1.8,0.9-3,0.9h-1.4v4.3h-2.7v-11.6h4.2c1.2,0,2.3,0.2,3,0.9
			c0.8,0.6,1.2,1.5,1.2,2.8C-333.2,284.7-333.6,285.6-334.4,286.3z M-336.5,282.3c-0.3-0.2-0.7-0.3-1.3-0.3h-1.1v3.1h1.1
			c0.6,0,1-0.1,1.3-0.3c0.3-0.2,0.6-0.7,0.6-1.2C-335.9,282.9-336.2,282.5-336.5,282.3z"/>
		<path fill="#FFFFFF" d="M-322.4,291.5h-3.2l-2.4-4.4h-0.9v4.4h-2.7v-11.6h4.2c1.3,0,2.3,0.3,3.1,0.8c0.8,0.6,1.3,1.5,1.3,2.7
			c0,2.2-1.4,3.1-2.3,3.3L-322.4,291.5z M-326.4,282.2c-0.3-0.3-0.8-0.3-1.4-0.3h-1.1v3h1.1c0.6,0,1.1-0.1,1.4-0.3
			c0.4-0.3,0.6-0.6,0.6-1.2C-325.8,282.8-326,282.5-326.4,282.2z"/>
		<path fill="#FFFFFF" d="M-315.6,291.7c-3.5,0-6.2-2.2-6.2-6s2.7-6,6.2-6c3.5,0,6.2,2.3,6.2,6S-312.1,291.7-315.6,291.7z
			 M-315.6,282c-1.9,0-3.4,1.4-3.4,3.6s1.5,3.6,3.4,3.6c1.9,0,3.4-1.4,3.4-3.6C-312.2,283.4-313.6,282-315.6,282z"/>
		<path fill="#FFFFFF" d="M-299,290.1c-1,0.8-2.5,1.4-4.5,1.4h-3.9v-11.6h3.9c2,0,3.5,0.6,4.5,1.4c1,0.8,1.9,2.2,1.9,4.4
			C-297.1,287.9-298,289.3-299,290.1z M-300.9,282.9c-0.5-0.5-1.3-0.8-2.4-0.8h-1.4v7.1h1.4c1.1,0,1.9-0.4,2.4-0.8
			c0.5-0.5,1-1.2,1-2.7C-299.9,284.2-300.4,283.4-300.9,282.9z"/>
		<path fill="#FFFFFF" d="M-285.5,286.6c0,1.6-0.3,2.8-1.1,3.7c-0.8,0.9-2.1,1.4-3.8,1.4c-1.7,0-2.9-0.5-3.8-1.4
			c-0.8-0.9-1.1-2-1.1-3.7v-6.8h2.7v6.8c0,0.8,0.1,1.5,0.5,1.9c0.4,0.4,0.9,0.7,1.7,0.7s1.3-0.3,1.7-0.7c0.4-0.5,0.5-1.1,0.5-1.9
			v-6.8h2.7V286.6z"/>
		<path fill="#FFFFFF" d="M-273.4,290.1c-0.6,0.6-1.8,1.6-4.2,1.6c-3.4,0-6.1-2.3-6.1-6c0-3.8,2.7-6,6.1-6c2.4,0,3.7,1,4,1.3
			l-0.8,2.3c-0.2-0.3-1.5-1.2-3-1.2c-2,0-3.5,1.3-3.5,3.6c0,2.3,1.6,3.6,3.5,3.6c1.4,0,2.5-0.6,3.1-1.2L-273.4,290.1z"/>
		<path fill="#FFFFFF" d="M-263.8,282h-3v9.5h-2.7V282h-3v-2.2h8.7V282z"/>
	</g>
	<g>
		<path fill="#FFFFFF" d="M-459.9,327.8c-0.5,0.5-1.6,1.4-3.7,1.4c-3,0-5.4-2-5.4-5.3c0-3.3,2.4-5.3,5.4-5.3c2.1,0,3.3,0.9,3.6,1.2
			l-0.8,2c-0.2-0.3-1.3-1.1-2.7-1.1c-1.8,0-3.1,1.2-3.1,3.2c0,2,1.4,3.2,3.1,3.2c1.3,0,2.2-0.5,2.8-1.1L-459.9,327.8z"/>
		<path fill="#FFFFFF" d="M-449.9,324.7c0,1.5-0.3,2.5-1,3.3c-0.7,0.8-1.8,1.2-3.3,1.2c-1.5,0-2.6-0.5-3.4-1.2c-0.7-0.8-1-1.8-1-3.3
			v-6h2.4v6c0,0.7,0.1,1.3,0.4,1.7c0.3,0.4,0.8,0.6,1.5,0.6c0.7,0,1.2-0.3,1.5-0.6c0.3-0.4,0.4-1,0.4-1.7v-6h2.4V324.7z"/>
		<path fill="#FFFFFF" d="M-442,328.3c-0.7,0.6-1.7,0.9-2.8,0.9c-1.5,0-2.8-0.8-3.7-1.6l1.2-1.8c0.8,0.8,1.9,1.3,2.7,1.3
			c0.8,0,1.4-0.4,1.4-1.1c0-0.7-0.8-1-1.2-1.1c-0.4-0.2-1.2-0.4-1.6-0.6c-0.3-0.1-0.8-0.3-1.2-0.8c-0.5-0.4-0.8-1-0.8-2
			c0-1,0.5-1.8,1.1-2.3c0.6-0.5,1.5-0.8,2.7-0.8c1.2,0,2.6,0.6,3.3,1.3l-1,1.7c-0.6-0.6-1.5-1.1-2.3-1.1c-0.8,0-1.4,0.3-1.4,0.9
			c0,0.6,0.6,0.9,1,1.1c0.5,0.2,1.2,0.4,1.5,0.6c0.3,0.1,1,0.4,1.4,0.8c0.4,0.4,0.8,1.1,0.8,2C-440.8,326.8-441.3,327.7-442,328.3z"
			/>
		<path fill="#FFFFFF" d="M-432.2,320.6h-2.7v8.4h-2.4v-8.4h-2.7v-1.9h7.8V320.6z"/>
		<path fill="#FFFFFF" d="M-426.1,329.2c-3.1,0-5.5-2-5.5-5.3c0-3.3,2.4-5.4,5.5-5.4c3.1,0,5.5,2,5.5,5.4
			C-420.6,327.2-423,329.2-426.1,329.2z M-426.1,320.6c-1.7,0-3,1.2-3,3.2s1.3,3.2,3,3.2c1.7,0,3-1.3,3-3.2
			C-423.1,321.8-424.4,320.6-426.1,320.6z"/>
		<path fill="#FFFFFF" d="M-407.2,329h-2.4l-0.4-7h0l-2.2,7h-1.9l-2.2-7h0l-0.4,7h-2.4l0.8-10.3h3.1l2.2,6.8h0l2.1-6.8h3.1
			L-407.2,329z"/>
		<path fill="#FFFFFF" d="M-398.4,329h-6.8v-10.3h6.7v1.9h-4.3v2.1h4v1.9h-4v2.4h4.4V329z"/>
		<path fill="#FFFFFF" d="M-388.3,329h-2.8l-2.2-4h-0.8v4h-2.4v-10.3h3.7c1.2,0,2.1,0.2,2.7,0.7c0.7,0.5,1.1,1.3,1.1,2.4
			c0,2-1.3,2.7-2,3L-388.3,329z M-391.8,320.8c-0.3-0.2-0.7-0.3-1.2-0.3h-1v2.7h1c0.6,0,0.9-0.1,1.2-0.3c0.3-0.2,0.5-0.5,0.5-1.1
			C-391.3,321.3-391.5,321-391.8,320.8z"/>
		<path fill="#FFFFFF" d="M-452.2,346.3c-0.7,0.6-1.7,0.9-2.8,0.9c-1.5,0-2.8-0.8-3.7-1.6l1.2-1.8c0.8,0.8,1.9,1.3,2.7,1.3
			c0.8,0,1.4-0.4,1.4-1.1c0-0.7-0.8-1-1.2-1.1c-0.4-0.2-1.2-0.4-1.6-0.6c-0.3-0.1-0.8-0.3-1.2-0.8c-0.5-0.4-0.8-1-0.8-2
			c0-1,0.5-1.8,1.1-2.3c0.6-0.5,1.5-0.8,2.7-0.8c1.2,0,2.6,0.6,3.3,1.3l-1,1.7c-0.6-0.6-1.5-1.1-2.3-1.1c-0.8,0-1.4,0.3-1.4,0.9
			c0,0.6,0.6,0.9,1,1.1c0.5,0.2,1.2,0.4,1.5,0.6c0.3,0.1,1,0.4,1.4,0.8c0.4,0.4,0.8,1.1,0.8,2C-451,344.8-451.5,345.7-452.2,346.3z"
			/>
		<path fill="#FFFFFF" d="M-442.5,347h-6.8v-10.3h6.7v1.9h-4.3v2.1h4v1.9h-4v2.4h4.4V347z"/>
		<path fill="#FFFFFF" d="M-432.3,347h-2.8l-2.2-4h-0.8v4h-2.4v-10.3h3.7c1.2,0,2.1,0.2,2.7,0.7c0.7,0.5,1.1,1.3,1.1,2.4
			c0,2-1.3,2.7-2,3L-432.3,347z M-435.9,338.8c-0.3-0.2-0.7-0.3-1.2-0.3h-1v2.7h1c0.6,0,0.9-0.1,1.2-0.3c0.3-0.2,0.5-0.5,0.5-1.1
			C-435.3,339.3-435.5,339-435.9,338.8z"/>
		<path fill="#FFFFFF" d="M-422.3,336.7l-3.8,10.3h-2.3l-3.8-10.3h2.6l2.4,7.1l2.4-7.1H-422.3z"/>
		<path fill="#FFFFFF" d="M-418.7,347h-2.4v-10.3h2.4V347z"/>
		<path fill="#FFFFFF" d="M-407.8,345.8c-0.5,0.5-1.6,1.4-3.7,1.4c-3,0-5.4-2-5.4-5.3c0-3.3,2.4-5.3,5.4-5.3c2.1,0,3.3,0.9,3.6,1.2
			l-0.8,2c-0.2-0.3-1.3-1.1-2.7-1.1c-1.8,0-3.1,1.2-3.1,3.2c0,2,1.4,3.2,3.1,3.2c1.3,0,2.2-0.5,2.8-1.1L-407.8,345.8z"/>
		<path fill="#FFFFFF" d="M-399.5,347h-6.8v-10.3h6.7v1.9h-4.3v2.1h4v1.9h-4v2.4h4.4V347z"/>
	</g>
	<g>
		<path fill="#FFFFFF" d="M-84.4,312.5c-0.5,0.5-1.6,1.4-3.7,1.4c-3,0-5.4-2-5.4-5.3c0-3.3,2.4-5.3,5.4-5.3c2.1,0,3.3,0.9,3.6,1.2
			l-0.8,2c-0.2-0.3-1.3-1.1-2.7-1.1c-1.8,0-3.1,1.2-3.1,3.2c0,2,1.4,3.2,3.1,3.2c1.3,0,2.2-0.5,2.8-1.1L-84.4,312.5z"/>
		<path fill="#FFFFFF" d="M-78.2,313.9c-3.1,0-5.5-2-5.5-5.3c0-3.3,2.4-5.4,5.5-5.4c3.1,0,5.5,2,5.5,5.4
			C-72.7,311.9-75.1,313.9-78.2,313.9z M-78.2,305.3c-1.7,0-3,1.2-3,3.2c0,2,1.3,3.2,3,3.2s3-1.3,3-3.2
			C-75.1,306.6-76.4,305.3-78.2,305.3z"/>
		<path fill="#FFFFFF" d="M-59.3,313.8h-2.4l-0.4-7h0l-2.2,7h-1.9l-2.2-7h0l-0.4,7h-2.4l0.8-10.3h3.1l2.2,6.8h0l2.1-6.8h3.1
			L-59.3,313.8z"/>
		<path fill="#FFFFFF" d="M-45.7,313.8h-2.4l-0.4-7h0l-2.2,7h-1.9l-2.2-7h0l-0.4,7h-2.4l0.8-10.3h3.1l2.2,6.8h0l2.1-6.8h3.1
			L-45.7,313.8z"/>
		<path fill="#FFFFFF" d="M-38,313.1c-0.7,0.6-1.7,0.9-2.8,0.9c-1.5,0-2.8-0.8-3.7-1.6l1.2-1.8c0.8,0.8,1.9,1.3,2.7,1.3
			c0.8,0,1.4-0.4,1.4-1.1c0-0.7-0.8-1-1.2-1.1c-0.5-0.2-1.2-0.4-1.6-0.6c-0.3-0.1-0.8-0.3-1.2-0.8c-0.5-0.4-0.8-1-0.8-2
			c0-1,0.5-1.8,1.1-2.3c0.6-0.5,1.5-0.8,2.7-0.8c1.2,0,2.6,0.6,3.3,1.3l-1,1.7c-0.6-0.6-1.5-1.1-2.3-1.1c-0.8,0-1.3,0.3-1.3,0.9
			s0.6,0.9,1,1c0.5,0.2,1.2,0.5,1.5,0.6c0.3,0.1,1,0.4,1.4,0.8c0.4,0.4,0.8,1.1,0.8,2C-36.8,311.6-37.3,312.5-38,313.1z"/>
	</g>
	<g>
		<path fill="#FFFFFF" d="M-206.1,204.4c-3.9,0-7-2.5-7-6.8c0-4.3,3.1-6.8,7-6.8s7,2.6,7,6.8C-199.1,201.8-202.1,204.4-206.1,204.4z
			 M-206.1,193.4c-2.2,0-3.9,1.6-3.9,4.1c0,2.5,1.7,4.1,3.9,4.1s3.9-1.6,3.9-4.1C-202.2,195-203.9,193.4-206.1,193.4z"/>
		<path fill="#FFFFFF" d="M-186,191l-4.9,13.2h-2.9l-4.9-13.2h3.3l3.1,9.1l3.1-9.1H-186z"/>
		<path fill="#FFFFFF" d="M-175.8,204.2h-8.7V191h8.6v2.5h-5.5v2.7h5.2v2.5h-5.2v3.1h5.6V204.2z"/>
		<path fill="#FFFFFF" d="M-162.8,204.2h-3.6l-2.8-5.1h-1v5.1h-3.1V191h4.7c1.5,0,2.6,0.3,3.5,0.9c0.9,0.7,1.5,1.7,1.5,3
			c0,2.5-1.6,3.5-2.6,3.8L-162.8,204.2z M-167.4,193.7c-0.4-0.3-0.9-0.3-1.6-0.3h-1.2v3.4h1.2c0.7,0,1.2-0.1,1.6-0.4
			c0.4-0.3,0.7-0.7,0.7-1.3C-166.7,194.4-167,194-167.4,193.7z"/>
		<path fill="#FFFFFF" d="M-148.8,204.2h-3.4l-0.9-2.7h-4.7l-0.9,2.7h-3.2l5-13.2h3.2L-148.8,204.2z M-153.8,199.1l-1.6-4.7
			l-1.6,4.7H-153.8z"/>
		<path fill="#FFFFFF" d="M-139.6,204.2h-7.7V191h3.1v10.6h4.6V204.2z"/>
		<path fill="#FFFFFF" d="M-130.3,204.2h-7.7V191h3.1v10.6h4.6V204.2z"/>
		<path fill="#FFFFFF" d="M-188.7,213.9l-4.9,13.2h-2.9l-4.9-13.2h3.3l3.1,9.1l3.1-9.1H-188.7z"/>
		<path fill="#FFFFFF" d="M-176.3,227.1h-3.4l-0.9-2.7h-4.7l-0.9,2.7h-3.2l5-13.2h3.2L-176.3,227.1z M-181.3,222l-1.6-4.7l-1.6,4.7
			H-181.3z"/>
		<path fill="#FFFFFF" d="M-167.1,227.1h-7.7v-13.2h3.1v10.6h4.6V227.1z"/>
		<path fill="#FFFFFF" d="M-154.6,221.6c0,1.9-0.3,3.1-1.3,4.2c-0.9,1-2.4,1.6-4.3,1.6c-1.9,0-3.3-0.6-4.3-1.6
			c-0.9-1-1.2-2.3-1.2-4.2v-7.7h3.1v7.7c0,0.9,0.1,1.7,0.5,2.2c0.4,0.5,1,0.8,1.9,0.8s1.5-0.3,1.9-0.8c0.4-0.5,0.5-1.3,0.5-2.2v-7.7
			h3.1V221.6z"/>
		<path fill="#FFFFFF" d="M-143.1,227.1h-8.7v-13.2h8.6v2.5h-5.5v2.7h5.2v2.5h-5.2v3.1h5.6V227.1z"/>
	</g>
	<g>
		<path fill="#FFFFFF" d="M-706.9,294.6c0,1.6-0.3,2.6-1.1,3.5c-0.8,0.8-2,1.3-3.6,1.3c-1.6,0-2.8-0.5-3.6-1.3c-0.8-0.9-1-1.9-1-3.5
			v-6.5h2.6v6.5c0,0.8,0.1,1.4,0.4,1.9c0.4,0.4,0.9,0.7,1.6,0.7s1.2-0.3,1.6-0.7c0.4-0.5,0.4-1.1,0.4-1.9v-6.5h2.6V294.6z"/>
		<path fill="#FFFFFF" d="M-695,299.3h-3.1l-2.3-4.1l-2.3,4.1h-3.1l3.7-5.8l-3.4-5.3h3.1l2.1,3.7l2.1-3.7h3.1l-3.5,5.3L-695,299.3z"
			/>
		<path fill="#FFFFFF" d="M-727.1,317.3c-0.9,0.8-2.4,1.3-4.3,1.3h-3.8v-11.1h3.8c1.9,0,3.4,0.5,4.3,1.3c0.9,0.8,1.8,2.1,1.8,4.2
			C-725.3,315.2-726.1,316.5-727.1,317.3z M-728.9,310.4c-0.5-0.4-1.2-0.8-2.3-0.8h-1.3v6.8h1.3c1.1,0,1.9-0.4,2.3-0.8
			c0.5-0.4,1-1.2,1-2.5C-727.9,311.7-728.4,310.9-728.9,310.4z"/>
		<path fill="#FFFFFF" d="M-716,318.6h-7.3v-11.1h7.2v2.1h-4.6v2.3h4.4v2.1h-4.4v2.6h4.8V318.6z"/>
		<path fill="#FFFFFF" d="M-707.8,317.9c-0.8,0.6-1.8,0.9-3,0.9c-1.6,0-3-0.8-3.9-1.7l1.3-1.9c0.8,0.8,2,1.4,2.9,1.4
			c0.8,0,1.5-0.4,1.5-1.1c0-0.8-0.8-1-1.3-1.2s-1.3-0.5-1.7-0.6c-0.3-0.1-0.8-0.3-1.3-0.8c-0.5-0.5-0.9-1.1-0.9-2.1
			c0-1.1,0.5-1.9,1.2-2.4c0.6-0.5,1.6-0.9,2.9-0.9s2.8,0.6,3.5,1.4l-1.1,1.8c-0.6-0.6-1.6-1.1-2.5-1.1s-1.5,0.3-1.5,1
			s0.6,0.9,1.1,1.1c0.5,0.2,1.3,0.5,1.7,0.6c0.3,0.1,1,0.4,1.5,0.9c0.5,0.5,0.9,1.1,0.9,2.1C-706.5,316.3-707,317.3-707.8,317.9z"/>
		<path fill="#FFFFFF" d="M-702,318.6h-2.6v-11.1h2.6V318.6z"/>
		<path fill="#FFFFFF" d="M-689.4,316.9c-0.6,0.5-1.9,1.9-4.9,1.9c-3.1,0-5.8-2-5.8-5.7c0-3.7,2.7-5.7,5.8-5.7
			c2.9,0,4.2,1.5,4.6,1.9l-1.7,1.5c-0.5-0.5-1.3-1.3-2.9-1.3c-1.8,0-3.2,1.3-3.2,3.6s1.4,3.6,3.2,3.6s2.3-0.7,2.3-0.7v-1.6h-2.3v-2
			h4.9V316.9z"/>
		<path fill="#FFFFFF" d="M-677.1,318.6h-2.7l-4.9-7.5c0,0,0,1.3,0,2.5v5h-2.5v-11.1h2.8l4.8,7.5c0,0,0-1.3,0-2.4v-5h2.5V318.6z"/>
	</g>
	<g>
		<path fill="#FFFFFF" d="M-615.2,328.1h-3.6v2.2h3.3v1.7h-3.3v3.5h-2.1v-9.1h5.7V328.1z"/>
		<path fill="#FFFFFF" d="M-606.5,335.5h-2.5l-1.9-3.5h-0.7v3.5h-2.1v-9.1h3.3c1,0,1.8,0.2,2.4,0.6c0.6,0.4,1,1.2,1,2.1
			c0,1.7-1.1,2.4-1.8,2.6L-606.5,335.5z M-609.7,328.3c-0.3-0.2-0.6-0.2-1.1-0.2h-0.8v2.3h0.8c0.5,0,0.8-0.1,1.1-0.3
			c0.3-0.2,0.5-0.4,0.5-0.9C-609.2,328.8-609.4,328.5-609.7,328.3z"/>
		<path fill="#FFFFFF" d="M-601.2,335.7c-2.7,0-4.8-1.8-4.8-4.7s2.1-4.7,4.8-4.7s4.8,1.8,4.8,4.7S-598.5,335.7-601.2,335.7z
			 M-601.2,328.1c-1.5,0-2.7,1.1-2.7,2.8s1.1,2.8,2.7,2.8s2.7-1.1,2.7-2.8C-598.5,329.2-599.7,328.1-601.2,328.1z"/>
		<path fill="#FFFFFF" d="M-586.6,335.5h-2.2l-4-6.2c0,0,0,1.1,0,2.1v4.1h-2.1v-9.1h2.3l3.9,6.1c0,0,0-1,0-2v-4.1h2.1V335.5z"/>
		<path fill="#FFFFFF" d="M-578.6,328.1h-2.3v7.4h-2.1v-7.4h-2.3v-1.7h6.8V328.1z"/>
		<path fill="#FFFFFF" d="M-571.5,335.5h-6v-9.1h5.9v1.7h-3.8v1.9h3.6v1.7h-3.6v2.1h3.9V335.5z"/>
		<path fill="#FFFFFF" d="M-561.5,335.5h-2.2l-4-6.2c0,0,0,1.1,0,2.1v4.1h-2.1v-9.1h2.3l3.9,6.1c0,0,0-1,0-2v-4.1h2.1V335.5z"/>
		<path fill="#FFFFFF" d="M-552.9,334.4c-0.8,0.6-1.9,1.1-3.5,1.1h-3.1v-9.1h3.1c1.6,0,2.8,0.4,3.5,1.1c0.8,0.6,1.5,1.7,1.5,3.5
			C-551.4,332.7-552.1,333.8-552.9,334.4z M-554.4,328.8c-0.4-0.4-1-0.6-1.9-0.6h-1.1v5.5h1.1c0.9,0,1.5-0.3,1.9-0.7
			c0.4-0.4,0.8-1,0.8-2.1C-553.5,329.9-554,329.2-554.4,328.8z"/>
		<path fill="#FFFFFF" d="M-592,350.3c-0.8,0.6-1.9,1.1-3.5,1.1h-3.1v-9.1h3.1c1.6,0,2.8,0.4,3.5,1.1c0.8,0.6,1.5,1.7,1.5,3.5
			C-590.5,348.6-591.2,349.6-592,350.3z M-593.5,344.7c-0.4-0.4-1-0.6-1.9-0.6h-1.1v5.5h1.1c0.9,0,1.5-0.3,1.9-0.7
			c0.4-0.4,0.8-1,0.8-2.1C-592.7,345.7-593.1,345-593.5,344.7z"/>
		<path fill="#FFFFFF" d="M-582.9,351.3h-6v-9.1h5.9v1.7h-3.8v1.9h3.6v1.7h-3.6v2.1h3.9V351.3z"/>
		<path fill="#FFFFFF" d="M-573.3,342.3l-3.4,9.1h-2l-3.4-9.1h2.3l2.1,6.3l2.1-6.3H-573.3z"/>
	</g>
	<g>
		<path fill="#FFFFFF" d="M-629.9,229.1c-0.5,0.4-1.3,0.5-2.1,0.5h-3.4v-8.2h2.8c0.8,0,1.5,0.1,2,0.3c0.5,0.3,1,0.8,1,1.7
			s-0.6,1.6-1.2,1.8v0c1,0.3,1.7,0.9,1.7,2C-629,228.2-629.4,228.7-629.9,229.1z M-631.8,223c-0.2-0.1-0.4-0.2-0.9-0.2h-0.8v1.9h0.8
			c0.4,0,0.7,0,0.9-0.2c0.2-0.2,0.4-0.4,0.4-0.8C-631.4,223.4-631.6,223.1-631.8,223z M-631.4,226.3c-0.3-0.2-0.6-0.2-1-0.2h-1.1
			v2.1h1.1c0.4,0,0.7,0,1-0.2c0.3-0.2,0.4-0.5,0.4-0.8C-631,226.7-631.1,226.5-631.4,226.3z"/>
		<path fill="#FFFFFF" d="M-620.4,229.6h-2.1l-0.6-1.7h-2.9l-0.6,1.7h-2l3.1-8.2h2L-620.4,229.6z M-623.5,226.5l-1-3l-1,3H-623.5z"
			/>
		<path fill="#FFFFFF" d="M-612.9,228.7c-0.4,0.4-1.3,1.1-3,1.1c-2.4,0-4.3-1.6-4.3-4.2c0-2.7,1.9-4.2,4.3-4.2
			c1.7,0,2.6,0.7,2.8,0.9l-0.6,1.6c-0.2-0.2-1-0.9-2.1-0.9c-1.4,0-2.5,0.9-2.5,2.5s1.1,2.5,2.5,2.5c1,0,1.8-0.4,2.2-0.9
			L-612.9,228.7z"/>
		<path fill="#FFFFFF" d="M-604.7,229.6h-2.3l-2.1-3.4l-0.7,0.7v2.7h-1.9v-8.2h1.9v3l2.5-3h2.3l-2.9,3.3L-604.7,229.6z"/>
		<path fill="#FFFFFF" d="M-598.4,229.6h-5.4v-8.2h5.3v1.5h-3.4v1.7h3.2v1.5h-3.2v1.9h3.5V229.6z"/>
		<path fill="#FFFFFF" d="M-589.3,229.6h-2l-3.6-5.6c0,0,0,1,0,1.9v3.7h-1.9v-8.2h2.1l3.5,5.5c0,0,0-0.9,0-1.8v-3.7h1.9V229.6z"/>
		<path fill="#FFFFFF" d="M-581.5,228.7c-0.7,0.6-1.7,1-3.2,1h-2.8v-8.2h2.8c1.4,0,2.5,0.4,3.2,1c0.7,0.6,1.3,1.5,1.3,3.1
			S-580.8,228.1-581.5,228.7z M-582.9,223.6c-0.3-0.3-0.9-0.6-1.7-0.6h-1v5h1c0.8,0,1.4-0.3,1.7-0.6c0.3-0.3,0.7-0.9,0.7-1.9
			S-582.5,223.9-582.9,223.6z"/>
		<path fill="#FFFFFF" d="M-613.1,243c-0.7,0.6-1.7,1-3.2,1h-2.8v-8.2h2.8c1.4,0,2.5,0.4,3.2,1c0.7,0.6,1.3,1.5,1.3,3.1
			S-612.4,242.4-613.1,243z M-614.4,237.9c-0.3-0.3-0.9-0.6-1.7-0.6h-1v5h1c0.8,0,1.4-0.3,1.7-0.6c0.3-0.3,0.7-0.9,0.7-1.9
			S-614.1,238.2-614.4,237.9z"/>
		<path fill="#FFFFFF" d="M-604.9,243.9h-5.4v-8.2h5.3v1.5h-3.4v1.7h3.2v1.5h-3.2v1.9h3.5V243.9z"/>
		<path fill="#FFFFFF" d="M-596.2,235.7l-3.1,8.2h-1.8l-3.1-8.2h2.1l1.9,5.7l1.9-5.7H-596.2z"/>
	</g>
	<g>
		<path fill="#FFFFFF" d="M-690,137.6c-0.7,0-1.2-0.4-1.2-1.1c0-0.6,0.5-1.1,1.2-1.1c0.7,0,1.2,0.4,1.2,1.1
			C-688.8,137.2-689.3,137.6-690,137.6z M-689,144.9h-2.1v-6.5h2.1V144.9z"/>
		<path fill="#FFFFFF" d="M-682.7,145c-2.7,0-4.8-1.8-4.8-4.7s2.1-4.7,4.8-4.7c2.7,0,4.8,1.8,4.8,4.7S-680,145-682.7,145z
			 M-682.7,137.5c-1.5,0-2.7,1.1-2.7,2.8s1.1,2.8,2.7,2.8c1.5,0,2.7-1.1,2.7-2.8C-680.1,138.6-681.2,137.5-682.7,137.5z"/>
		<path fill="#FFFFFF" d="M-671.4,144.3c-0.6,0.5-1.5,0.8-2.5,0.8c-1.3,0-2.5-0.7-3.2-1.4l1.1-1.6c0.7,0.7,1.7,1.1,2.4,1.1
			c0.7,0,1.2-0.3,1.2-0.9c0-0.6-0.7-0.9-1.1-1c-0.4-0.1-1.1-0.4-1.4-0.5c-0.2-0.1-0.7-0.3-1.1-0.7c-0.4-0.4-0.7-0.9-0.7-1.8
			c0-0.9,0.4-1.6,0.9-2c0.5-0.4,1.3-0.7,2.4-0.7c1.1,0,2.3,0.5,2.9,1.1l-0.9,1.5c-0.5-0.5-1.3-0.9-2-0.9c-0.7,0-1.2,0.3-1.2,0.8
			s0.5,0.8,0.9,0.9c0.4,0.2,1.1,0.4,1.4,0.5c0.3,0.1,0.9,0.3,1.3,0.7c0.4,0.4,0.7,0.9,0.7,1.8C-670.4,143-670.8,143.8-671.4,144.3z"
			/>
		<path fill="#FFFFFF" d="M-659.4,143.8c-0.8,0.6-1.9,1.1-3.5,1.1h-3.1v-9.1h3.1c1.6,0,2.8,0.4,3.5,1.1c0.8,0.6,1.5,1.7,1.5,3.5
			S-658.6,143.2-659.4,143.8z M-660.9,138.2c-0.4-0.4-1-0.6-1.9-0.6h-1.1v5.5h1.1c0.9,0,1.5-0.3,1.9-0.7c0.4-0.4,0.8-1,0.8-2.1
			C-660.1,139.2-660.5,138.6-660.9,138.2z"/>
		<path fill="#FFFFFF" d="M-650.4,144.9h-6v-9.1h5.9v1.7h-3.8v1.9h3.6v1.7h-3.6v2.1h3.9V144.9z"/>
		<path fill="#FFFFFF" d="M-640.8,135.8l-3.4,9.1h-2l-3.4-9.1h2.3l2.1,6.3l2.1-6.3H-640.8z"/>
	</g>
	<g>
		<path fill="#FFFFFF" d="M-596.2,145.1h-1.7l-1.3-2.4h-0.5v2.4h-1.5v-6.2h2.2c0.7,0,1.2,0.1,1.6,0.4c0.4,0.3,0.7,0.8,0.7,1.4
			c0,1.2-0.8,1.6-1.2,1.8L-596.2,145.1z M-598.3,140.1c-0.2-0.1-0.4-0.2-0.7-0.2h-0.6v1.6h0.6c0.3,0,0.6,0,0.7-0.2
			c0.2-0.1,0.3-0.3,0.3-0.6C-598,140.5-598.1,140.3-598.3,140.1z"/>
		<path fill="#FFFFFF" d="M-591.2,145.1h-4.1v-6.2h4v1.2h-2.6v1.3h2.4v1.2h-2.4v1.4h2.7V145.1z"/>
		<path fill="#FFFFFF" d="M-586.5,144.7c-0.4,0.4-1,0.5-1.7,0.5c-0.9,0-1.7-0.5-2.2-0.9l0.7-1.1c0.5,0.5,1.1,0.8,1.6,0.8
			c0.5,0,0.8-0.2,0.8-0.6c0-0.4-0.5-0.6-0.7-0.7c-0.3-0.1-0.7-0.3-0.9-0.4c-0.2-0.1-0.5-0.2-0.7-0.5c-0.3-0.3-0.5-0.6-0.5-1.2
			c0-0.6,0.3-1.1,0.6-1.4c0.4-0.3,0.9-0.5,1.6-0.5s1.5,0.3,2,0.8l-0.6,1c-0.4-0.4-0.9-0.6-1.4-0.6c-0.5,0-0.8,0.2-0.8,0.6
			c0,0.4,0.4,0.5,0.6,0.6c0.3,0.1,0.7,0.3,0.9,0.4c0.2,0.1,0.6,0.2,0.9,0.5c0.3,0.3,0.5,0.6,0.5,1.2
			C-585.8,143.8-586,144.3-586.5,144.7z"/>
		<path fill="#FFFFFF" d="M-580.8,142.3c-0.4,0.3-1,0.5-1.6,0.5h-0.8v2.3h-1.5v-6.2h2.2c0.6,0,1.2,0.1,1.6,0.5
			c0.4,0.3,0.6,0.8,0.6,1.5S-580.4,141.9-580.8,142.3z M-581.9,140.1c-0.2-0.1-0.4-0.2-0.7-0.2h-0.6v1.7h0.6c0.3,0,0.5,0,0.7-0.2
			c0.2-0.1,0.3-0.4,0.3-0.7S-581.7,140.3-581.9,140.1z"/>
		<path fill="#FFFFFF" d="M-576.1,145.2c-1.8,0-3.3-1.2-3.3-3.2c0-2,1.4-3.2,3.3-3.2c1.8,0,3.3,1.2,3.3,3.2
			C-572.8,144-574.3,145.2-576.1,145.2z M-576.1,140c-1,0-1.8,0.7-1.8,1.9c0,1.2,0.8,1.9,1.8,1.9c1,0,1.8-0.8,1.8-1.9
			C-574.3,140.8-575.1,140-576.1,140z"/>
		<path fill="#FFFFFF" d="M-566,145.1h-1.5l-2.7-4.2c0,0,0,0.7,0,1.4v2.8h-1.4v-6.2h1.6l2.7,4.2c0,0,0-0.7,0-1.4v-2.8h1.4V145.1z"/>
		<path fill="#FFFFFF" d="M-561.1,144.7c-0.4,0.4-1,0.5-1.7,0.5c-0.9,0-1.7-0.5-2.2-0.9l0.7-1.1c0.5,0.5,1.1,0.8,1.6,0.8
			c0.5,0,0.8-0.2,0.8-0.6c0-0.4-0.5-0.6-0.7-0.7c-0.3-0.1-0.7-0.3-0.9-0.4c-0.2-0.1-0.5-0.2-0.7-0.5c-0.3-0.3-0.5-0.6-0.5-1.2
			c0-0.6,0.3-1.1,0.6-1.4c0.4-0.3,0.9-0.5,1.6-0.5s1.5,0.3,2,0.8l-0.6,1c-0.4-0.4-0.9-0.6-1.4-0.6c-0.5,0-0.8,0.2-0.8,0.6
			c0,0.4,0.4,0.5,0.6,0.6c0.3,0.1,0.7,0.3,0.9,0.4c0.2,0.1,0.6,0.2,0.9,0.5c0.3,0.3,0.5,0.6,0.5,1.2
			C-560.4,143.8-560.7,144.3-561.1,144.7z"/>
		<path fill="#FFFFFF" d="M-557.8,145.1h-1.5v-6.2h1.5V145.1z"/>
		<path fill="#FFFFFF" d="M-550.9,138.9l-2.3,6.2h-1.4l-2.3-6.2h1.5l1.5,4.3l1.4-4.3H-550.9z"/>
		<path fill="#FFFFFF" d="M-546,145.1h-4.1v-6.2h4v1.2h-2.6v1.3h2.4v1.2h-2.4v1.4h2.7V145.1z"/>
		<path fill="#FFFFFF" d="M-539.1,145.1h-1.5l-2.7-4.2c0,0,0,0.7,0,1.4v2.8h-1.4v-6.2h1.6l2.7,4.2c0,0,0-0.7,0-1.4v-2.8h1.4V145.1z"
			/>
		<path fill="#FFFFFF" d="M-533.5,145.1h-4.1v-6.2h4v1.2h-2.6v1.3h2.4v1.2h-2.4v1.4h2.7V145.1z"/>
		<path fill="#FFFFFF" d="M-528.8,144.7c-0.4,0.4-1,0.5-1.7,0.5c-0.9,0-1.7-0.5-2.2-0.9l0.7-1.1c0.5,0.5,1.1,0.8,1.6,0.8
			c0.5,0,0.8-0.2,0.8-0.6c0-0.4-0.5-0.6-0.7-0.7c-0.3-0.1-0.7-0.3-0.9-0.4c-0.2-0.1-0.5-0.2-0.7-0.5c-0.3-0.3-0.5-0.6-0.5-1.2
			c0-0.6,0.3-1.1,0.6-1.4c0.4-0.3,0.9-0.5,1.6-0.5s1.5,0.3,2,0.8l-0.6,1c-0.4-0.4-0.9-0.6-1.4-0.6c-0.5,0-0.8,0.2-0.8,0.6
			c0,0.4,0.4,0.5,0.6,0.6c0.3,0.1,0.7,0.3,0.9,0.4c0.2,0.1,0.6,0.2,0.9,0.5c0.3,0.3,0.5,0.6,0.5,1.2
			C-528.1,143.8-528.3,144.3-528.8,144.7z"/>
		<path fill="#FFFFFF" d="M-523.5,144.7c-0.4,0.4-1,0.5-1.7,0.5c-0.9,0-1.7-0.5-2.2-0.9l0.7-1.1c0.5,0.5,1.1,0.8,1.6,0.8
			c0.5,0,0.8-0.2,0.8-0.6c0-0.4-0.5-0.6-0.7-0.7c-0.3-0.1-0.7-0.3-0.9-0.4c-0.2-0.1-0.5-0.2-0.7-0.5c-0.3-0.3-0.5-0.6-0.5-1.2
			c0-0.6,0.3-1.1,0.6-1.4c0.4-0.3,0.9-0.5,1.6-0.5s1.5,0.3,2,0.8l-0.6,1c-0.4-0.4-0.9-0.6-1.4-0.6c-0.5,0-0.8,0.2-0.8,0.6
			c0,0.4,0.4,0.5,0.6,0.6c0.3,0.1,0.7,0.3,0.9,0.4c0.2,0.1,0.6,0.2,0.9,0.5c0.3,0.3,0.5,0.6,0.5,1.2
			C-522.8,143.8-523.1,144.3-523.5,144.7z"/>
	</g>
	<g>
		<path fill="#FFFFFF" d="M-517.8,221.6c-2.9,0-5.2-1.9-5.2-5.1s2.3-5.1,5.2-5.1s5.2,1.9,5.2,5.1S-514.8,221.6-517.8,221.6z
			 M-517.8,213.4c-1.6,0-2.9,1.2-2.9,3.1c0,1.9,1.2,3.1,2.9,3.1s2.9-1.2,2.9-3.1C-514.9,214.6-516.1,213.4-517.8,213.4z"/>
		<path fill="#FFFFFF" d="M-502.8,211.6l-3.7,9.8h-2.2l-3.7-9.8h2.5l2.3,6.8l2.3-6.8H-502.8z"/>
		<path fill="#FFFFFF" d="M-495.1,221.5h-6.5v-9.8h6.4v1.8h-4.1v2h3.9v1.8h-3.9v2.3h4.2V221.5z"/>
		<path fill="#FFFFFF" d="M-485.4,221.5h-2.7l-2.1-3.8h-0.7v3.8h-2.3v-9.8h3.5c1.1,0,2,0.2,2.6,0.7c0.7,0.5,1.1,1.3,1.1,2.3
			c0,1.9-1.2,2.6-1.9,2.8L-485.4,221.5z M-488.8,213.7c-0.3-0.2-0.7-0.3-1.2-0.3h-0.9v2.5h0.9c0.5,0,0.9-0.1,1.2-0.3
			c0.3-0.2,0.5-0.5,0.5-1C-488.3,214.2-488.5,213.9-488.8,213.7z"/>
		<path fill="#FFFFFF" d="M-475,221.5h-2.5l-0.7-2h-3.5l-0.7,2h-2.4l3.7-9.9h2.4L-475,221.5z M-478.7,217.7l-1.2-3.5l-1.2,3.5
			H-478.7z"/>
		<path fill="#FFFFFF" d="M-468.1,221.5h-5.7v-9.8h2.3v7.9h3.4V221.5z"/>
		<path fill="#FFFFFF" d="M-461.1,221.5h-5.7v-9.8h2.3v7.9h3.4V221.5z"/>
		<path fill="#FFFFFF" d="M-501.5,237.4c-0.5,0.5-1.5,1.3-3.6,1.3c-2.9,0-5.2-1.9-5.2-5.1c0-3.2,2.3-5.1,5.2-5.1
			c2,0,3.1,0.8,3.4,1.1l-0.7,1.9c-0.2-0.2-1.2-1-2.5-1c-1.7,0-3,1.1-3,3c0,1.9,1.3,3,3,3c1.2,0,2.1-0.5,2.7-1L-501.5,237.4z"/>
		<path fill="#FFFFFF" d="M-495.5,238.8c-2.9,0-5.2-1.9-5.2-5.1s2.3-5.1,5.2-5.1s5.2,1.9,5.2,5.1S-492.6,238.8-495.5,238.8z
			 M-495.5,230.6c-1.6,0-2.9,1.2-2.9,3.1s1.2,3.1,2.9,3.1s2.9-1.2,2.9-3.1C-492.6,231.8-493.8,230.6-495.5,230.6z"/>
		<path fill="#FFFFFF" d="M-483.2,238c-0.7,0.6-1.6,0.8-2.7,0.8c-1.4,0-2.7-0.7-3.5-1.5l1.1-1.7c0.7,0.7,1.8,1.2,2.6,1.2
			c0.7,0,1.3-0.4,1.3-1c0-0.7-0.7-0.9-1.2-1.1c-0.4-0.2-1.2-0.4-1.5-0.6c-0.2-0.1-0.7-0.3-1.2-0.7c-0.4-0.4-0.8-1-0.8-1.9
			c0-0.9,0.5-1.7,1-2.2c0.6-0.5,1.5-0.8,2.6-0.8c1.1,0,2.5,0.5,3.1,1.2l-1,1.6c-0.6-0.6-1.5-1-2.2-1c-0.7,0-1.3,0.3-1.3,0.9
			c0,0.6,0.6,0.8,1,1c0.4,0.2,1.2,0.4,1.5,0.6c0.3,0.1,0.9,0.4,1.4,0.8c0.4,0.4,0.8,1,0.8,1.9C-482.1,236.5-482.5,237.4-483.2,238z"
			/>
		<path fill="#FFFFFF" d="M-473.8,230.6h-2.5v8h-2.3v-8h-2.5v-1.8h7.4V230.6z"/>
	</g>
</g>
<g>
	<path fill="#FFFFFF" d="M532,78h-3.1v9.6h-0.8V78H525v-0.7h7V78z"/>
	<path fill="#FFFFFF" d="M539.4,87.6h-5.7V77.3h5.6V78h-4.8v3.8h4.5v0.7h-4.5v4.4h4.9V87.6z"/>
	<path fill="#FFFFFF" d="M549.9,86.2c-0.8,0.8-2,1.6-3.8,1.6c-3,0-5.2-2.2-5.2-5.3s2.3-5.3,5.2-5.3c1.8,0,3,0.8,3.8,1.5l-0.5,0.6
		c-0.5-0.7-1.7-1.4-3.2-1.4c-2.5,0-4.3,1.9-4.3,4.6c0,2.7,1.8,4.6,4.3,4.6c1.4,0,2.5-0.5,3.3-1.4L549.9,86.2z"/>
	<path fill="#FFFFFF" d="M559.8,87.6H559v-5.2h-6.4v5.2h-0.8V77.3h0.8v4.4h6.4v-4.4h0.8V87.6z"/>
	<path fill="#FFFFFF" d="M571.1,87.6h-0.7l-6.9-9.1v9.1h-0.8V77.3h0.8l6.8,8.9v-8.9h0.8V87.6z"/>
	<path fill="#FFFFFF" d="M574.8,87.6H574V77.3h0.8V87.6z"/>
	<path fill="#FFFFFF" d="M586,86.2c-0.8,0.8-2,1.6-3.8,1.6c-3,0-5.2-2.2-5.2-5.3s2.3-5.3,5.2-5.3c1.8,0,3,0.8,3.8,1.5l-0.5,0.6
		c-0.5-0.7-1.7-1.4-3.2-1.4c-2.5,0-4.3,1.9-4.3,4.6c0,2.7,1.8,4.6,4.3,4.6c1.4,0,2.5-0.5,3.3-1.4L586,86.2z"/>
	<path fill="#FFFFFF" d="M596.3,87.6h-0.9l-1.3-3.1h-4.9l-1.3,3.1H587l4.4-10.4h0.5L596.3,87.6z M593.8,83.8l-2.2-5.3l-2.2,5.3
		H593.8z"/>
	<path fill="#FFFFFF" d="M602.5,87.6H598V77.3h0.8v9.6h3.7V87.6z"/>
	<path fill="#FFFFFF" d="M551.4,105.8c-2,0-2.9-1.4-3.2-1.9l0.6-0.4c0.4,0.7,1.3,1.6,2.6,1.6s2.4-0.8,2.4-2.2c0-1.4-1.4-1.9-2-2.1
		c-0.6-0.2-1.3-0.5-1.7-0.8c-0.4-0.2-1.5-0.9-1.5-2.4s1.3-2.5,3-2.5s2.6,1.2,2.7,1.4l-0.6,0.5c-0.4-0.5-1-1.1-2.2-1.1
		c-1.2,0-2.2,0.6-2.2,1.8s0.8,1.6,1.5,1.9c0.7,0.3,1.9,0.8,2.1,0.9c0.2,0.1,1.5,0.8,1.5,2.4C554.8,104.5,553.4,105.8,551.4,105.8z"
		/>
	<path fill="#FFFFFF" d="M563.9,105.6h-1l-4-5.8l-1.2,1.2v4.6h-0.8V95.3h0.8v4.8l4.9-4.8h1l-4.2,4L563.9,105.6z"/>
	<path fill="#FFFFFF" d="M566.3,105.6h-0.8V95.3h0.8V105.6z"/>
	<path fill="#FFFFFF" d="M573.6,105.6h-4.5V95.3h0.8v9.6h3.7V105.6z"/>
	<path fill="#FFFFFF" d="M579.8,105.6h-4.5V95.3h0.8v9.6h3.7V105.6z"/>
</g>
<g>
	<path fill="#FFFFFF" d="M533.6,223.3c-0.7,0.6-1.6,0.8-2.7,0.8h-1.8v5.4h-0.9V218h2.7c1.1,0,2,0.2,2.7,0.8c0.7,0.6,1.1,1.3,1.1,2.3
		C534.7,222.1,534.3,222.8,533.6,223.3z M532.9,219.3c-0.5-0.3-1.1-0.5-1.9-0.5h-1.8v4.5h1.8c0.8,0,1.5-0.2,1.9-0.5
		c0.5-0.3,0.8-1,0.8-1.8C533.7,220.2,533.4,219.6,532.9,219.3z"/>
	<path fill="#FFFFFF" d="M543.8,229.6h-1.2l-3.4-5.4h-1.5v5.4h-0.9V218h2.7c2.2,0,3.6,1.2,3.6,3.1c0,1.9-1.4,2.9-2.9,3.1
		L543.8,229.6z M541.3,219.3c-0.6-0.5-1.4-0.5-2.3-0.5h-1.3v4.6h1.3c0.9,0,1.7,0,2.3-0.5c0.6-0.5,0.9-1.1,0.9-1.8
		C542.1,220.3,541.9,219.7,541.3,219.3z"/>
	<path fill="#FFFFFF" d="M550.7,229.8c-3.2,0-5.9-2.3-5.9-6s2.7-6,5.9-6c3.2,0,5.9,2.3,5.9,6S553.8,229.8,550.7,229.8z M550.7,218.6
		c-2.6,0-4.9,1.9-4.9,5.2c0,3.2,2.3,5.2,4.9,5.2c2.7,0,5-1.9,5-5.2C555.6,220.5,553.3,218.6,550.7,218.6z"/>
	<path fill="#FFFFFF" d="M566.5,228c-0.8,0.8-2.2,1.6-4.2,1.6h-3.2V218h3.2c2,0,3.5,0.8,4.2,1.6c0.8,0.8,1.8,2.1,1.8,4.2
		C568.3,225.9,567.3,227.2,566.5,228z M565.7,220c-0.7-0.7-1.9-1.2-3.5-1.2H560v10h2.2c1.6,0,2.8-0.5,3.5-1.2
		c0.7-0.7,1.6-1.9,1.6-3.8C567.4,221.9,566.5,220.7,565.7,220z"/>
	<path fill="#FFFFFF" d="M579,224.9c0,1.3-0.1,2.5-0.8,3.5c-0.8,0.9-1.9,1.4-3.3,1.4c-1.4,0-2.5-0.5-3.3-1.4c-0.8-1-0.8-2.1-0.8-3.5
		V218h0.9v7c0,0.9,0,1.9,0.6,2.7c0.6,0.8,1.4,1.2,2.6,1.2c1.2,0,2.1-0.5,2.6-1.2c0.6-0.8,0.6-1.9,0.6-2.7v-7h0.9V224.9z"/>
	<path fill="#FFFFFF" d="M591.5,228c-0.8,0.9-2.2,1.8-4.3,1.8c-3.4,0-5.9-2.5-5.9-6s2.6-6,5.9-6c2,0,3.4,0.8,4.2,1.7l-0.6,0.7
		c-0.6-0.8-1.9-1.5-3.6-1.5c-2.9,0-4.9,2.1-4.9,5.1c0,3,2,5.2,4.9,5.2c1.6,0,2.9-0.6,3.7-1.5L591.5,228z"/>
	<path fill="#FFFFFF" d="M600.6,218.8h-3.5v10.8h-0.9v-10.8h-3.5V218h7.8V218.8z"/>
</g>
<g>
	<path fill="#FFFFFF" d="M369.9,268.7c-0.8,0.8-2,1.6-3.8,1.6c-3,0-5.2-2.2-5.2-5.3c0-3.2,2.3-5.3,5.2-5.3c1.8,0,3,0.8,3.8,1.5
		l-0.5,0.6c-0.5-0.7-1.7-1.4-3.2-1.4c-2.5,0-4.3,1.9-4.3,4.6s1.8,4.6,4.3,4.6c1.4,0,2.5-0.5,3.3-1.4L369.9,268.7z"/>
	<path fill="#FFFFFF" d="M379.1,266c0,1.2,0,2.2-0.7,3.1c-0.7,0.8-1.7,1.3-2.9,1.3s-2.3-0.4-2.9-1.3c-0.7-0.9-0.7-1.9-0.7-3.1v-6.2
		h0.8v6.3c0,0.8,0,1.7,0.5,2.4c0.5,0.7,1.3,1.1,2.3,1.1c1,0,1.8-0.4,2.3-1.1c0.5-0.7,0.5-1.6,0.5-2.4v-6.3h0.8V266z"/>
	<path fill="#FFFFFF" d="M384.2,270.3c-2,0-2.9-1.4-3.2-1.9l0.6-0.5c0.4,0.7,1.3,1.6,2.6,1.6s2.4-0.8,2.4-2.2c0-1.4-1.4-1.9-2-2.1
		c-0.6-0.2-1.3-0.5-1.7-0.8c-0.4-0.2-1.5-0.9-1.5-2.4s1.3-2.5,3-2.5c1.7,0,2.6,1.2,2.7,1.3l-0.6,0.5c-0.4-0.5-1-1.1-2.2-1.1
		c-1.2,0-2.2,0.6-2.2,1.8s0.8,1.6,1.5,2c0.7,0.3,1.9,0.8,2.1,0.9c0.2,0.1,1.5,0.8,1.5,2.4C387.5,269,386.2,270.3,384.2,270.3z"/>
	<path fill="#FFFFFF" d="M395.6,260.5h-3.1v9.6h-0.8v-9.6h-3.1v-0.7h7V260.5z"/>
	<path fill="#FFFFFF" d="M401.3,270.3c-2.8,0-5.2-2-5.2-5.3s2.4-5.3,5.2-5.3c2.8,0,5.2,2,5.2,5.3S404.2,270.3,401.3,270.3z
		 M401.3,260.3c-2.4,0-4.4,1.7-4.4,4.6c0,2.9,2.1,4.6,4.4,4.6c2.4,0,4.4-1.7,4.4-4.6C405.7,262.1,403.7,260.3,401.3,260.3z"/>
	<path fill="#FFFFFF" d="M419.4,270.1h-0.8l-0.9-9l-3.8,9.2h-0.1l-3.8-9.2l-0.9,9h-0.8l1-10.3h0.9l3.6,8.8l3.6-8.8h0.9L419.4,270.1z
		"/>
	<path fill="#FFFFFF" d="M427.5,270.1h-5.7v-10.3h5.6v0.7h-4.8v3.8h4.5v0.7h-4.5v4.4h4.9V270.1z"/>
	<path fill="#FFFFFF" d="M435.7,270.1h-1l-3.1-4.8h-1.3v4.8h-0.8v-10.3h2.4c2,0,3.2,1,3.2,2.8c0,1.7-1.2,2.5-2.6,2.7L435.7,270.1z
		 M433.5,260.9c-0.6-0.4-1.2-0.4-2.1-0.4h-1.1v4.1h1.1c0.8,0,1.5,0,2.1-0.4c0.6-0.4,0.8-0.9,0.8-1.6S434,261.4,433.5,260.9z"/>
	<path fill="#FFFFFF" d="M374.9,288.3c-2,0-2.9-1.4-3.2-1.9l0.6-0.5c0.4,0.7,1.3,1.6,2.6,1.6s2.4-0.8,2.4-2.2c0-1.4-1.4-1.9-2-2.1
		c-0.6-0.2-1.3-0.5-1.7-0.8c-0.4-0.2-1.5-0.9-1.5-2.4s1.3-2.5,3-2.5c1.7,0,2.6,1.2,2.7,1.3l-0.6,0.5c-0.4-0.5-1-1.1-2.2-1.1
		c-1.2,0-2.2,0.6-2.2,1.8s0.8,1.6,1.5,2c0.7,0.3,1.9,0.8,2.1,0.9c0.2,0.1,1.5,0.8,1.5,2.4C378.2,287,376.9,288.3,374.9,288.3z"/>
	<path fill="#FFFFFF" d="M386.1,288.1h-5.7v-10.3h5.6v0.7h-4.8v3.8h4.5v0.7h-4.5v4.4h4.9V288.1z"/>
	<path fill="#FFFFFF" d="M394.3,288.1h-1l-3.1-4.8h-1.3v4.8h-0.8v-10.3h2.4c2,0,3.2,1,3.2,2.8c0,1.7-1.2,2.5-2.6,2.7L394.3,288.1z
		 M392.1,278.9c-0.6-0.4-1.2-0.4-2.1-0.4h-1.1v4.1h1.1c0.8,0,1.5,0,2.1-0.4c0.6-0.4,0.8-0.9,0.8-1.6S392.7,279.4,392.1,278.9z"/>
	<path fill="#FFFFFF" d="M402.8,277.8l-3.8,10.4h-0.6l-3.8-10.4h0.9l3.2,9l3.2-9H402.8z"/>
	<path fill="#FFFFFF" d="M405.3,288.1h-0.8v-10.3h0.8V288.1z"/>
	<path fill="#FFFFFF" d="M416.6,286.7c-0.8,0.8-2,1.6-3.8,1.6c-3,0-5.2-2.2-5.2-5.3c0-3.2,2.3-5.3,5.2-5.3c1.8,0,3,0.8,3.8,1.5
		l-0.5,0.6c-0.5-0.7-1.7-1.4-3.2-1.4c-2.5,0-4.3,1.9-4.3,4.6s1.8,4.6,4.3,4.6c1.4,0,2.6-0.5,3.3-1.4L416.6,286.7z"/>
	<path fill="#FFFFFF" d="M424.2,288.1h-5.7v-10.3h5.6v0.7h-4.8v3.8h4.5v0.7h-4.5v4.4h4.9V288.1z"/>
</g>
<g>
	<path fill="#FFFFFF" d="M783.5,250.5c-0.8,0.8-2,1.6-3.8,1.6c-3,0-5.2-2.2-5.2-5.3c0-3.1,2.3-5.3,5.2-5.3c1.8,0,3,0.8,3.8,1.5
		l-0.5,0.6c-0.5-0.7-1.7-1.4-3.2-1.4c-2.5,0-4.3,1.9-4.3,4.6c0,2.7,1.8,4.6,4.3,4.6c1.4,0,2.6-0.5,3.3-1.4L783.5,250.5z"/>
	<path fill="#FFFFFF" d="M789.7,252.1c-2.8,0-5.2-2-5.2-5.3s2.4-5.3,5.2-5.3c2.8,0,5.2,2,5.2,5.3S792.6,252.1,789.7,252.1z
		 M789.7,242.1c-2.4,0-4.4,1.7-4.4,4.6c0,2.9,2.1,4.6,4.4,4.6c2.4,0,4.4-1.7,4.4-4.6C794.2,243.8,792.1,242.1,789.7,242.1z"/>
	<path fill="#FFFFFF" d="M807.8,251.9H807l-0.9-9l-3.8,9.2h-0.1l-3.8-9.2l-0.9,9h-0.8l1-10.3h0.9l3.6,8.8l3.6-8.8h0.9L807.8,251.9z"
		/>
	<path fill="#FFFFFF" d="M820.8,251.9H820l-0.9-9l-3.8,9.2h-0.1l-3.8-9.2l-0.9,9h-0.8l1-10.3h0.9l3.6,8.8l3.6-8.8h0.9L820.8,251.9z"
		/>
	<path fill="#FFFFFF" d="M825.6,252.1c-2,0-2.9-1.4-3.2-1.9l0.6-0.5c0.4,0.7,1.3,1.6,2.6,1.6s2.4-0.8,2.4-2.2s-1.4-1.9-2-2.1
		c-0.6-0.2-1.3-0.5-1.7-0.8c-0.4-0.2-1.5-0.9-1.5-2.4s1.3-2.5,3-2.5s2.6,1.2,2.7,1.4l-0.6,0.5c-0.4-0.5-1-1.1-2.2-1.1
		c-1.2,0-2.2,0.6-2.2,1.8s0.8,1.6,1.5,1.9c0.7,0.3,1.9,0.8,2.1,0.9c0.2,0.1,1.5,0.8,1.5,2.4S827.6,252.1,825.6,252.1z"/>
</g>
<g>
	<path fill="#FFFFFF" d="M665.4,144.5c-3.6,0-6.7-2.6-6.7-6.8c0-4.2,3.1-6.8,6.7-6.8c3.6,0,6.7,2.6,6.7,6.8
		C672.1,141.9,669,144.5,665.4,144.5z M665.4,131.8c-3,0-5.6,2.2-5.6,5.9c0,3.7,2.6,5.9,5.6,5.9c3,0,5.6-2.2,5.6-5.9
		C671,134,668.4,131.8,665.4,131.8z"/>
	<path fill="#FFFFFF" d="M683.4,131.1l-4.8,13.2h-0.8l-4.8-13.2h1.1l4.1,11.5l4.1-11.5H683.4z"/>
	<path fill="#FFFFFF" d="M692.8,144.3h-7.3v-13.2h7.2v0.9h-6.1v4.8h5.8v0.9h-5.8v5.6h6.3V144.3z"/>
	<path fill="#FFFFFF" d="M703.2,144.3h-1.3l-3.9-6.1h-1.7v6.1h-1v-13.2h3.1c2.5,0,4.1,1.3,4.1,3.5s-1.6,3.3-3.3,3.5L703.2,144.3z
		 M700.4,132.6c-0.7-0.5-1.6-0.6-2.6-0.6h-1.5v5.2h1.5c1.1,0,1.9,0,2.6-0.5c0.7-0.5,1-1.2,1-2.1S701.1,133.1,700.4,132.6z"/>
	<path fill="#FFFFFF" d="M716.4,144.3h-1.2l-1.6-4h-6.3l-1.6,4h-1.1l5.6-13.2h0.6L716.4,144.3z M713.1,139.4l-2.8-6.8l-2.8,6.8
		H713.1z"/>
	<path fill="#FFFFFF" d="M724.2,144.3h-5.7v-13.2h1v12.3h4.7V144.3z"/>
	<path fill="#FFFFFF" d="M732.1,144.3h-5.7v-13.2h1v12.3h4.7V144.3z"/>
	<path fill="#FFFFFF" d="M679.4,154l-4.8,13.2h-0.8L669,154h1.1l4.1,11.5l4.1-11.5H679.4z"/>
	<path fill="#FFFFFF" d="M690.8,167.2h-1.2l-1.6-4h-6.3l-1.6,4H679l5.6-13.2h0.6L690.8,167.2z M687.6,162.3l-2.8-6.8l-2.8,6.8H687.6
		z"/>
	<path fill="#FFFFFF" d="M698.7,167.2h-5.7V154h1v12.3h4.7V167.2z"/>
	<path fill="#FFFFFF" d="M709.5,161.9c0,1.5-0.1,2.8-0.9,3.9c-0.9,1.1-2.1,1.6-3.8,1.6s-2.9-0.6-3.8-1.6c-0.9-1.1-0.9-2.4-0.9-3.9
		V154h1v8c0,1,0,2.2,0.7,3.1c0.6,0.9,1.6,1.4,3,1.4s2.4-0.5,3-1.4c0.7-0.9,0.7-2.1,0.7-3.1v-8h1V161.9z"/>
	<path fill="#FFFFFF" d="M720.4,167.2h-7.3V154h7.2v0.9h-6.1v4.8h5.8v0.9h-5.8v5.6h6.3V167.2z"/>
</g>
<g>
	<path fill="#FFFFFF" d="M120.3,232.9c0,1.3,0,2.4-0.8,3.3c-0.7,0.9-1.8,1.4-3.2,1.4s-2.4-0.5-3.2-1.4c-0.7-0.9-0.8-2-0.8-3.3v-6.6
		h0.9v6.7c0,0.8,0,1.9,0.6,2.6c0.5,0.7,1.4,1.2,2.5,1.2s2-0.5,2.5-1.2c0.5-0.8,0.6-1.8,0.6-2.6v-6.7h0.9V232.9z"/>
	<path fill="#FFFFFF" d="M130.3,237.4h-1l-3.2-5.1l-3.2,5.1h-1l3.7-5.7l-3.4-5.4h1l2.9,4.8l2.9-4.8h1l-3.4,5.4L130.3,237.4z"/>
	<path fill="#FFFFFF" d="M101.2,255.2c-0.7,0.7-2.1,1.5-4.1,1.5h-3.1v-11.1h3.1c1.9,0,3.3,0.8,4.1,1.5c0.7,0.7,1.7,2,1.7,4
		C102.9,253.2,101.9,254.5,101.2,255.2z M100.4,247.6c-0.7-0.7-1.9-1.2-3.4-1.2h-2.1v9.5H97c1.5,0,2.7-0.5,3.4-1.2s1.5-1.8,1.5-3.6
		C102,249.4,101.1,248.3,100.4,247.6z"/>
	<path fill="#FFFFFF" d="M111.4,256.7h-6.2v-11.1h6v0.8h-5.2v4h4.9v0.8h-4.9v4.7h5.3V256.7z"/>
	<path fill="#FFFFFF" d="M116.3,256.9c-2.2,0-3.2-1.5-3.4-2l0.7-0.5c0.4,0.7,1.4,1.7,2.8,1.7s2.6-0.9,2.6-2.3s-1.5-2-2.1-2.3
		s-1.4-0.6-1.8-0.8c-0.4-0.2-1.6-1-1.6-2.6s1.4-2.7,3.3-2.7s2.8,1.3,2.9,1.5l-0.6,0.5c-0.4-0.5-1.1-1.2-2.4-1.2s-2.3,0.7-2.3,1.9
		s0.9,1.8,1.7,2.1s2,0.9,2.3,1s1.6,0.9,1.6,2.6S118.4,256.9,116.3,256.9z"/>
	<path fill="#FFFFFF" d="M123,256.7h-0.9v-11.1h0.9V256.7z"/>
	<path fill="#FFFFFF" d="M135.6,255.2c0,0-1.4,1.7-4.6,1.7s-5.6-2.4-5.6-5.8c0-3.3,2.4-5.7,5.6-5.7c2.8,0,4,1.5,4.4,1.9l-0.6,0.6
		c-0.8-1-1.9-1.8-3.8-1.8c-2.6,0-4.6,1.9-4.6,4.9c0,3.1,2.1,4.9,4.8,4.9s3.7-1.2,3.7-1.2v-3h-3.4v-0.8h4.3V255.2z"/>
	<path fill="#FFFFFF" d="M147.5,256.7h-0.8l-7.4-9.7v9.7h-0.9v-11.1h0.9l7.3,9.6v-9.6h0.9V256.7z"/>
</g>
<g>
	<path fill="#FFFFFF" d="M213,267.9h-3.9v3.6h3.7v0.6h-3.7v4.2h-0.7v-9.1h4.6V267.9z"/>
	<path fill="#FFFFFF" d="M220.2,276.3h-0.9l-2.7-4.2h-1.2v4.2h-0.7v-9.1h2.1c1.7,0,2.8,0.9,2.8,2.4c0,1.5-1.1,2.2-2.2,2.4
		L220.2,276.3z M218.2,268.3c-0.5-0.4-1.1-0.4-1.8-0.4h-1v3.6h1c0.7,0,1.3,0,1.8-0.4c0.5-0.4,0.7-0.8,0.7-1.4
		C218.9,269.1,218.7,268.6,218.2,268.3z"/>
	<path fill="#FFFFFF" d="M225.6,276.5c-2.5,0-4.6-1.8-4.6-4.7s2.1-4.7,4.6-4.7c2.5,0,4.6,1.8,4.6,4.7S228.1,276.5,225.6,276.5z
		 M225.6,267.7c-2.1,0-3.9,1.5-3.9,4c0,2.5,1.8,4,3.9,4c2.1,0,3.9-1.5,3.9-4C229.5,269.2,227.7,267.7,225.6,267.7z"/>
	<path fill="#FFFFFF" d="M239.6,276.3H239l-6.1-8v8h-0.7v-9.1h0.7l6,7.8v-7.8h0.7V276.3z"/>
	<path fill="#FFFFFF" d="M247.2,267.9h-2.7v8.5h-0.7v-8.5h-2.7v-0.6h6.1V267.9z"/>
	<path fill="#FFFFFF" d="M253.8,276.3h-5v-9.1h4.9v0.6h-4.2v3.3h4v0.6h-4v3.9h4.3V276.3z"/>
	<path fill="#FFFFFF" d="M262.9,276.3h-0.6l-6.1-8v8h-0.7v-9.1h0.7l6,7.8v-7.8h0.7V276.3z"/>
	<path fill="#FFFFFF" d="M271.3,275.1c-0.6,0.6-1.7,1.3-3.3,1.3h-2.5v-9.1h2.5c1.6,0,2.7,0.7,3.3,1.3c0.6,0.6,1.4,1.6,1.4,3.3
		C272.7,273.4,271.9,274.5,271.3,275.1z M270.7,268.9c-0.6-0.5-1.5-1-2.8-1h-1.7v7.8h1.7c1.3,0,2.2-0.4,2.8-1s1.3-1.5,1.3-2.9
		C271.9,270.3,271.3,269.4,270.7,268.9z"/>
	<path fill="#FFFFFF" d="M235.3,290.9c-0.6,0.6-1.7,1.3-3.3,1.3h-2.5v-9.1h2.5c1.6,0,2.7,0.7,3.3,1.3c0.6,0.6,1.4,1.6,1.4,3.3
		C236.7,289.3,235.9,290.3,235.3,290.9z M234.7,284.7c-0.6-0.5-1.5-1-2.8-1h-1.7v7.8h1.7c1.3,0,2.2-0.4,2.8-1s1.3-1.5,1.3-2.9
		C236,286.2,235.3,285.2,234.7,284.7z"/>
	<path fill="#FFFFFF" d="M243.7,292.2h-5v-9.1h4.9v0.6h-4.2v3.3h4v0.6h-4v3.9h4.3V292.2z"/>
	<path fill="#FFFFFF" d="M252.1,283.1l-3.3,9.1h-0.6l-3.3-9.1h0.8l2.8,7.9l2.8-7.9H252.1z"/>
</g>
<g>
	<path fill="#FFFFFF" d="M197.7,169.9c-0.5,0.4-1.1,0.5-2.1,0.5h-2.2v-8.2h1.8c0.8,0,1.4,0.1,1.9,0.4c0.5,0.4,0.8,0.8,0.8,1.6
		c0,0.8-0.6,1.6-1.3,1.8c1.2,0.2,1.9,0.9,1.9,2C198.6,169,198.2,169.5,197.7,169.9z M196.6,163c-0.3-0.2-0.7-0.3-1.3-0.3h-1.2v3.1
		h1.1c0.7,0,1.1-0.1,1.4-0.3c0.3-0.2,0.7-0.6,0.7-1.3C197.3,163.6,197,163.2,196.6,163z M197.2,166.8c-0.5-0.3-1.1-0.3-1.7-0.3h-1.3
		v3.4h1.3c0.6,0,1.3,0,1.7-0.3c0.5-0.3,0.7-0.8,0.7-1.4C197.9,167.5,197.6,167.1,197.2,166.8z"/>
	<path fill="#FFFFFF" d="M206.7,170.4H206l-1-2.5H201l-1,2.5h-0.7l3.5-8.3h0.4L206.7,170.4z M204.7,167.4l-1.7-4.2l-1.7,4.2H204.7z"
		/>
	<path fill="#FFFFFF" d="M214.4,169.3c-0.6,0.7-1.6,1.3-3,1.3c-2.4,0-4.2-1.7-4.2-4.2c0-2.5,1.8-4.2,4.2-4.2c1.4,0,2.4,0.6,3,1.2
		l-0.4,0.5c-0.4-0.5-1.4-1.1-2.6-1.1c-2,0-3.5,1.5-3.5,3.6c0,2.1,1.4,3.7,3.5,3.7c1.1,0,2-0.4,2.6-1.1L214.4,169.3z"/>
	<path fill="#FFFFFF" d="M221.5,170.4h-0.8l-3.2-4.6l-1,1v3.6h-0.6v-8.2h0.6v3.9l3.9-3.9h0.8l-3.3,3.2L221.5,170.4z"/>
	<path fill="#FFFFFF" d="M227.3,170.4h-4.6v-8.2h4.5v0.6h-3.8v3h3.6v0.6h-3.6v3.5h3.9V170.4z"/>
	<path fill="#FFFFFF" d="M235.6,170.4H235l-5.5-7.2v7.2h-0.6v-8.2h0.6l5.4,7.1v-7.1h0.6V170.4z"/>
	<path fill="#FFFFFF" d="M243.2,169.3c-0.5,0.5-1.6,1.1-3,1.1h-2.3v-8.2h2.3c1.4,0,2.5,0.6,3,1.1c0.5,0.5,1.3,1.5,1.3,3
		S243.7,168.8,243.2,169.3z M242.6,163.7c-0.5-0.5-1.4-0.9-2.5-0.9h-1.6v7.1h1.6c1.1,0,2-0.4,2.5-0.9s1.1-1.3,1.1-2.7
		S243.1,164.2,242.6,163.7z"/>
	<path fill="#FFFFFF" d="M214.2,183.6c-0.5,0.5-1.6,1.1-3,1.1h-2.3v-8.2h2.3c1.4,0,2.5,0.6,3,1.1c0.5,0.5,1.3,1.5,1.3,3
		S214.7,183.1,214.2,183.6z M213.6,178c-0.5-0.5-1.4-0.9-2.5-0.9h-1.6v7.1h1.6c1.1,0,2-0.4,2.5-0.9s1.1-1.3,1.1-2.7
		S214.2,178.5,213.6,178z"/>
	<path fill="#FFFFFF" d="M221.8,184.8h-4.6v-8.2h4.5v0.6h-3.8v3h3.6v0.6h-3.6v3.5h3.9V184.8z"/>
	<path fill="#FFFFFF" d="M229.4,176.5l-3,8.2h-0.5l-3-8.2h0.7l2.6,7.2l2.6-7.2H229.4z"/>
</g>
<g>
	<path fill="#FFFFFF" d="M138.7,83H138v-9.1h0.7V83z"/>
	<path fill="#FFFFFF" d="M145.2,83.2c-2.5,0-4.6-1.8-4.6-4.7s2.1-4.7,4.6-4.7c2.5,0,4.6,1.8,4.6,4.7S147.7,83.2,145.2,83.2z
		 M145.2,74.4c-2.1,0-3.9,1.5-3.9,4c0,2.5,1.8,4,3.9,4c2.1,0,3.9-1.5,3.9-4C149.1,75.9,147.3,74.4,145.2,74.4z"/>
	<path fill="#FFFFFF" d="M153.8,83.2c-1.8,0-2.6-1.3-2.8-1.6l0.6-0.4c0.3,0.6,1.1,1.4,2.3,1.4s2.1-0.7,2.1-1.9
		c0-1.2-1.2-1.6-1.7-1.8s-1.1-0.5-1.5-0.7c-0.4-0.2-1.3-0.8-1.3-2.1c0-1.3,1.1-2.2,2.7-2.2c1.5,0,2.3,1.1,2.4,1.2l-0.5,0.4
		c-0.3-0.4-0.9-1-1.9-1c-1.1,0-1.9,0.6-1.9,1.6c0,1,0.7,1.4,1.4,1.7c0.6,0.3,1.7,0.7,1.9,0.8c0.2,0.1,1.3,0.7,1.3,2.1
		C156.7,82,155.6,83.2,153.8,83.2z"/>
	<path fill="#FFFFFF" d="M167.6,81.7c-0.6,0.6-1.7,1.3-3.3,1.3h-2.5v-9.1h2.5c1.6,0,2.7,0.7,3.3,1.3c0.6,0.6,1.4,1.6,1.4,3.3
		S168.2,81.2,167.6,81.7z M166.9,75.5c-0.6-0.5-1.5-1-2.8-1h-1.7v7.8h1.7c1.3,0,2.2-0.4,2.8-1s1.3-1.5,1.3-2.9
		C168.2,77,167.5,76.1,166.9,75.5z"/>
	<path fill="#FFFFFF" d="M175.9,83h-5v-9.1h4.9v0.6h-4.2v3.3h4v0.6h-4v3.9h4.3V83z"/>
	<path fill="#FFFFFF" d="M184.3,73.9L181,83h-0.6l-3.3-9.1h0.8l2.8,7.9l2.8-7.9H184.3z"/>
</g>
<g>
	<path fill="#FFFFFF" d="M237.2,85.1h-0.8l-2.4-3.8h-1v3.8h-0.6V77h1.9c1.5,0,2.5,0.8,2.5,2.2s-1,2-2,2.2L237.2,85.1z M235.5,77.9
		c-0.4-0.3-1-0.3-1.6-0.3H233v3.2h0.9c0.6,0,1.2,0,1.6-0.3c0.4-0.3,0.6-0.7,0.6-1.3S235.9,78.2,235.5,77.9z"/>
	<path fill="#FFFFFF" d="M243.2,85.1h-4.5V77h4.4v0.6h-3.8v2.9h3.6v0.6h-3.6v3.5h3.9V85.1z"/>
	<path fill="#FFFFFF" d="M246.9,85.3c-1.6,0-2.3-1.1-2.5-1.5l0.5-0.4c0.3,0.5,1,1.3,2.1,1.3s1.9-0.6,1.9-1.7c0-1.1-1.1-1.5-1.6-1.7
		c-0.5-0.2-1-0.4-1.3-0.6c-0.3-0.2-1.2-0.7-1.2-1.9c0-1.2,1-2,2.4-2c1.4,0,2.1,0.9,2.1,1.1l-0.4,0.4c-0.3-0.4-0.8-0.9-1.7-0.9
		c-0.9,0-1.7,0.5-1.7,1.4c0,0.9,0.6,1.3,1.2,1.5c0.6,0.2,1.5,0.6,1.7,0.7c0.2,0.1,1.2,0.6,1.2,1.9C249.6,84.2,248.5,85.3,246.9,85.3
		z"/>
	<path fill="#FFFFFF" d="M255.1,80.8c-0.5,0.4-1.1,0.6-1.9,0.6H252v3.8h-0.6V77h1.9c0.8,0,1.4,0.2,1.9,0.6c0.5,0.4,0.7,0.9,0.7,1.6
		C255.9,79.9,255.6,80.3,255.1,80.8z M254.7,77.9c-0.3-0.2-0.8-0.4-1.4-0.4H252v3.2h1.2c0.6,0,1-0.1,1.4-0.4
		c0.3-0.2,0.6-0.7,0.6-1.2C255.2,78.6,255,78.2,254.7,77.9z"/>
	<path fill="#FFFFFF" d="M261.3,85.3c-2.2,0-4.1-1.6-4.1-4.2c0-2.6,1.9-4.2,4.1-4.2c2.2,0,4.1,1.6,4.1,4.2
		C265.4,83.7,263.5,85.3,261.3,85.3z M261.3,77.4c-1.9,0-3.5,1.3-3.5,3.6c0,2.3,1.6,3.6,3.5,3.6c1.9,0,3.5-1.3,3.5-3.6
		C264.8,78.8,263.2,77.4,261.3,77.4z"/>
	<path fill="#FFFFFF" d="M274,85.1h-0.6L268,78v7.1h-0.6V77h0.6l5.4,7v-7h0.6V85.1z"/>
	<path fill="#FFFFFF" d="M278.3,85.3c-1.6,0-2.3-1.1-2.5-1.5l0.5-0.4c0.3,0.5,1,1.3,2.1,1.3c1,0,1.9-0.6,1.9-1.7
		c0-1.1-1.1-1.5-1.6-1.7c-0.5-0.2-1-0.4-1.3-0.6c-0.3-0.2-1.2-0.7-1.2-1.9c0-1.2,1-2,2.4-2c1.4,0,2.1,0.9,2.1,1.1l-0.4,0.4
		c-0.3-0.4-0.8-0.9-1.7-0.9c-0.9,0-1.7,0.5-1.7,1.4c0,0.9,0.6,1.3,1.2,1.5c0.6,0.2,1.5,0.6,1.7,0.7c0.2,0.1,1.2,0.6,1.2,1.9
		C280.9,84.2,279.9,85.3,278.3,85.3z"/>
	<path fill="#FFFFFF" d="M283.4,85.1h-0.6V77h0.6V85.1z"/>
	<path fill="#FFFFFF" d="M291.3,77l-3,8.1h-0.5l-3-8.1h0.7l2.5,7.1l2.5-7.1H291.3z"/>
	<path fill="#FFFFFF" d="M297.2,85.1h-4.5V77h4.4v0.6h-3.8v2.9h3.6v0.6h-3.6v3.5h3.9V85.1z"/>
</g>
<g>
	<path fill="#FFFFFF" d="M312.5,161.8c-2.7,0-5-1.9-5-5.1s2.3-5.1,5-5.1c2.7,0,5,1.9,5,5.1S315.2,161.8,312.5,161.8z M312.5,152.3
		c-2.2,0-4.2,1.6-4.2,4.4c0,2.7,2,4.4,4.2,4.4c2.3,0,4.2-1.6,4.2-4.4C316.7,153.9,314.8,152.3,312.5,152.3z"/>
	<path fill="#FFFFFF" d="M326,151.7l-3.6,9.9h-0.6l-3.6-9.9h0.8l3.1,8.6l3.1-8.6H326z"/>
	<path fill="#FFFFFF" d="M333,161.6h-5.4v-9.8h5.4v0.7h-4.6v3.6h4.3v0.7h-4.3v4.2h4.7V161.6z"/>
	<path fill="#FFFFFF" d="M340.8,161.6h-1l-2.9-4.6h-1.3v4.6h-0.8v-9.8h2.3c1.9,0,3.1,1,3.1,2.6s-1.2,2.4-2.4,2.6L340.8,161.6z
		 M338.7,152.9c-0.5-0.4-1.2-0.4-2-0.4h-1.1v3.9h1.1c0.8,0,1.4,0,2-0.4c0.5-0.4,0.7-0.9,0.7-1.5
		C339.4,153.7,339.2,153.2,338.7,152.9z"/>
	<path fill="#FFFFFF" d="M350.6,161.6h-0.9l-1.2-3h-4.7l-1.2,3h-0.8l4.2-9.9h0.4L350.6,161.6z M348.2,157.9l-2.1-5l-2.1,5H348.2z"/>
	<path fill="#FFFFFF" d="M356.5,161.6h-4.3v-9.8h0.8v9.1h3.5V161.6z"/>
	<path fill="#FFFFFF" d="M362.4,161.6h-4.3v-9.8h0.8v9.1h3.5V161.6z"/>
	<path fill="#FFFFFF" d="M326.2,177.4c-0.7,0.8-1.9,1.5-3.6,1.5c-2.9,0-5-2.1-5-5.1s2.2-5.1,5-5.1c1.7,0,2.9,0.7,3.6,1.4l-0.5,0.6
		c-0.5-0.6-1.6-1.3-3.1-1.3c-2.4,0-4.1,1.8-4.1,4.4s1.7,4.4,4.1,4.4c1.4,0,2.4-0.5,3.1-1.3L326.2,177.4z"/>
	<path fill="#FFFFFF" d="M332.1,178.9c-2.7,0-5-1.9-5-5.1s2.3-5.1,5-5.1c2.7,0,5,1.9,5,5.1S334.8,178.9,332.1,178.9z M332.1,169.4
		c-2.2,0-4.2,1.6-4.2,4.4c0,2.7,2,4.4,4.2,4.4c2.3,0,4.2-1.6,4.2-4.4C336.3,171,334.4,169.4,332.1,169.4z"/>
	<path fill="#FFFFFF" d="M341.5,178.9c-1.9,0-2.8-1.4-3-1.8l0.6-0.4c0.4,0.7,1.2,1.5,2.5,1.5c1.3,0,2.3-0.8,2.3-2.1s-1.3-1.8-1.9-2
		c-0.6-0.2-1.2-0.5-1.6-0.7c-0.4-0.2-1.4-0.9-1.4-2.3s1.2-2.4,2.9-2.4c1.7,0,2.5,1.1,2.6,1.3l-0.5,0.5c-0.4-0.5-0.9-1.1-2.1-1.1
		c-1.1,0-2.1,0.6-2.1,1.7c0,1.1,0.8,1.6,1.5,1.9c0.7,0.3,1.8,0.8,2,0.9c0.2,0.1,1.4,0.8,1.4,2.3S343.4,178.9,341.5,178.9z"/>
	<path fill="#FFFFFF" d="M352.4,169.6h-2.9v9.1h-0.8v-9.1h-2.9v-0.7h6.6V169.6z"/>
</g>
<g>
	<path fill="#FFFFFF" d="M70.4,421.2c-0.7,0.5-1.8,0.8-3,0.8h-4.8v-11.6h4c1.1,0,2.1,0.1,2.9,0.5c0.8,0.4,1.5,1.2,1.5,2.4
		c0,1.3-0.8,2.3-1.7,2.6v0c1.4,0.4,2.4,1.3,2.4,2.8C71.7,419.9,71.1,420.6,70.4,421.2z M67.7,412.6c-0.3-0.2-0.6-0.2-1.2-0.2h-1.1
		v2.7h1.1c0.6,0,1,0,1.3-0.3c0.3-0.2,0.6-0.5,0.6-1.1C68.3,413.1,68,412.8,67.7,412.6z M68.3,417.2c-0.4-0.3-0.9-0.3-1.4-0.3h-1.5v3
		h1.5c0.6,0,1,0,1.4-0.3c0.4-0.3,0.6-0.7,0.6-1.2C68.9,417.9,68.7,417.5,68.3,417.2z"/>
	<path fill="#FFFFFF" d="M81.3,421.9h-7.7v-11.6h7.5v2.2h-4.8v2.4h4.5v2.2h-4.5v2.7h5V421.9z"/>
	<path fill="#FFFFFF" d="M91.1,412.5h-3v9.5h-2.7v-9.5h-3v-2.2h8.7V412.5z"/>
	<path fill="#FFFFFF" d="M100.7,412.5h-3v9.5H95v-9.5h-3v-2.2h8.7V412.5z"/>
	<path fill="#FFFFFF" d="M109.8,421.9h-7.7v-11.6h7.5v2.2h-4.8v2.4h4.5v2.2h-4.5v2.7h5V421.9z"/>
	<path fill="#FFFFFF" d="M121.2,421.9H118l-2.4-4.4h-0.9v4.4H112v-11.6h4.2c1.3,0,2.3,0.3,3.1,0.8c0.8,0.6,1.3,1.5,1.3,2.7
		c0,2.2-1.4,3.1-2.3,3.3L121.2,421.9z M117.2,412.7c-0.3-0.3-0.8-0.3-1.4-0.3h-1.1v3h1.1c0.6,0,1.1-0.1,1.4-0.3
		c0.4-0.3,0.6-0.6,0.6-1.2C117.8,413.3,117.5,413,117.2,412.7z"/>
	<path fill="#FFFFFF" d="M134,412.5h-3v9.5h-2.7v-9.5h-3v-2.2h8.7V412.5z"/>
	<path fill="#FFFFFF" d="M145.5,421.9h-2.7v-4.9h-4.7v4.9h-2.7v-11.6h2.7v4.5h4.7v-4.5h2.7V421.9z"/>
	<path fill="#FFFFFF" d="M158.4,421.9h-3l-0.8-2.3h-4.1l-0.8,2.3h-2.8l4.4-11.6h2.8L158.4,421.9z M154,417.5l-1.4-4.2l-1.4,4.2H154z
		"/>
	<path fill="#FFFFFF" d="M170.3,421.9h-2.8l-5.1-7.9c0,0,0.1,1.4,0.1,2.6v5.3h-2.7v-11.6h2.9l5,7.8c0,0-0.1-1.3-0.1-2.5v-5.3h2.7
		V421.9z"/>
	<path fill="#FFFFFF" d="M187,421.9h-3l-0.8-2.3h-4.1l-0.8,2.3h-2.8l4.4-11.6h2.8L187,421.9z M182.6,417.5l-1.4-4.2l-1.4,4.2H182.6z
		"/>
	<path fill="#FFFFFF" d="M197.6,410.3l-4.3,11.6h-2.6l-4.3-11.6h2.9l2.7,8l2.7-8H197.6z"/>
	<path fill="#FFFFFF" d="M206.6,421.9h-7.7v-11.6h7.5v2.2h-4.8v2.4h4.5v2.2h-4.5v2.7h5V421.9z"/>
	<path fill="#FFFFFF" d="M218,421.9h-3.2l-2.4-4.4h-0.9v4.4h-2.7v-11.6h4.2c1.3,0,2.3,0.3,3.1,0.8c0.8,0.6,1.3,1.5,1.3,2.7
		c0,2.2-1.4,3.1-2.3,3.3L218,421.9z M214,412.7c-0.3-0.3-0.8-0.3-1.4-0.3h-1.1v3h1.1c0.6,0,1.1-0.1,1.4-0.3c0.4-0.3,0.6-0.6,0.6-1.2
		C214.6,413.3,214.3,413,214,412.7z"/>
	<path fill="#FFFFFF" d="M230.3,421.9h-3l-0.8-2.3h-4.1l-0.8,2.3h-2.8l4.4-11.6h2.8L230.3,421.9z M225.9,417.5l-1.4-4.2l-1.4,4.2
		H225.9z"/>
	<path fill="#FFFFFF" d="M241.8,420.1c-0.6,0.5-2,2-5.2,2c-3.2,0-6-2.1-6-6c0-3.9,2.8-6,6.1-6c3.1,0,4.4,1.6,4.8,2l-1.8,1.6
		c-0.5-0.5-1.4-1.3-3-1.3c-1.9,0-3.3,1.4-3.3,3.7c0,2.4,1.5,3.7,3.4,3.7c1.9,0,2.4-0.7,2.4-0.7v-1.7h-2.4v-2.1h5.1V420.1z"/>
	<path fill="#FFFFFF" d="M251.9,421.9h-7.7v-11.6h7.5v2.2h-4.8v2.4h4.5v2.2h-4.5v2.7h5V421.9z"/>
	<path fill="#FFFFFF" d="M506.1,421.2c-0.7,0.5-1.8,0.8-3,0.8h-4.8v-11.6h4c1.1,0,2.1,0.1,2.9,0.5c0.8,0.4,1.5,1.2,1.5,2.4
		c0,1.3-0.8,2.3-1.7,2.6v0c1.4,0.4,2.4,1.3,2.4,2.8C507.4,419.9,506.9,420.6,506.1,421.2z M503.5,412.6c-0.3-0.2-0.6-0.2-1.2-0.2
		h-1.1v2.7h1.1c0.6,0,1,0,1.3-0.3c0.3-0.2,0.6-0.5,0.6-1.1C504,413.1,503.8,412.8,503.5,412.6z M504.1,417.2
		c-0.4-0.3-0.9-0.3-1.4-0.3h-1.5v3h1.5c0.6,0,1,0,1.4-0.3c0.4-0.3,0.6-0.7,0.6-1.2C504.6,417.9,504.5,417.5,504.1,417.2z"/>
	<path fill="#FFFFFF" d="M517,421.9h-7.7v-11.6h7.5v2.2H512v2.4h4.5v2.2H512v2.7h5V421.9z"/>
	<path fill="#FFFFFF" d="M525.6,421.2c-0.8,0.7-1.9,1-3.2,1c-1.7,0-3.2-0.9-4.1-1.8l1.3-2c0.8,0.9,2.1,1.5,3,1.5
		c0.9,0,1.6-0.4,1.6-1.2c0-0.8-0.9-1.1-1.4-1.3c-0.5-0.2-1.4-0.5-1.8-0.7c-0.3-0.1-0.9-0.4-1.4-0.8c-0.5-0.5-0.9-1.1-0.9-2.2
		c0-1.1,0.5-2,1.2-2.5c0.7-0.6,1.7-0.9,3.1-0.9c1.3,0,2.9,0.6,3.7,1.4l-1.2,1.9c-0.7-0.7-1.7-1.2-2.6-1.2c-0.9,0-1.5,0.3-1.5,1
		s0.7,1,1.2,1.2c0.5,0.2,1.4,0.5,1.7,0.7c0.3,0.1,1.1,0.4,1.6,0.9c0.5,0.5,0.9,1.2,0.9,2.2C526.9,419.5,526.4,420.5,525.6,421.2z"/>
	<path fill="#FFFFFF" d="M536.6,412.5h-3v9.5h-2.7v-9.5h-3v-2.2h8.7V412.5z"/>
	<path fill="#FFFFFF" d="M544.6,421.9h-2.7v-11.6h2.7V421.9z"/>
	<path fill="#FFFFFF" d="M557.7,421.9h-2.8l-5.1-7.9c0,0,0.1,1.4,0.1,2.6v5.3h-2.7v-11.6h2.9l5,7.8c0,0-0.1-1.3-0.1-2.5v-5.3h2.7
		V421.9z"/>
	<path fill="#FFFFFF" d="M571.7,421.2c-0.7,0.5-1.8,0.8-3,0.8H564v-11.6h4c1.1,0,2.1,0.1,2.9,0.5c0.8,0.4,1.5,1.2,1.5,2.4
		c0,1.3-0.8,2.3-1.7,2.6v0c1.4,0.4,2.4,1.3,2.4,2.8C573,419.9,572.5,420.6,571.7,421.2z M569,412.6c-0.3-0.2-0.6-0.2-1.2-0.2h-1.1
		v2.7h1.1c0.6,0,1,0,1.3-0.3c0.3-0.2,0.6-0.5,0.6-1.1C569.6,413.1,569.4,412.8,569,412.6z M569.6,417.2c-0.4-0.3-0.9-0.3-1.4-0.3
		h-1.5v3h1.5c0.6,0,1,0,1.4-0.3c0.4-0.3,0.6-0.7,0.6-1.2C570.2,417.9,570,417.5,569.6,417.2z"/>
	<path fill="#FFFFFF" d="M584.1,421.9h-3.2l-2.4-4.4h-0.9v4.4h-2.7v-11.6h4.2c1.3,0,2.3,0.3,3.1,0.8c0.8,0.6,1.3,1.5,1.3,2.7
		c0,2.2-1.4,3.1-2.3,3.3L584.1,421.9z M580.1,412.7c-0.3-0.3-0.8-0.3-1.4-0.3h-1.1v3h1.1c0.6,0,1.1-0.1,1.4-0.3
		c0.4-0.3,0.6-0.6,0.6-1.2C580.7,413.3,580.4,413,580.1,412.7z"/>
	<path fill="#FFFFFF" d="M593.2,421.9h-7.7v-11.6h7.5v2.2h-4.8v2.4h4.5v2.2h-4.5v2.7h5V421.9z"/>
	<path fill="#FFFFFF" d="M603,421.9h-7.7v-11.6h7.5v2.2h-4.8v2.4h4.5v2.2h-4.5v2.7h5V421.9z"/>
	<path fill="#FFFFFF" d="M613.7,420.6c-1,0.8-2.5,1.4-4.5,1.4h-3.9v-11.6h3.9c2,0,3.5,0.6,4.5,1.4c1,0.8,1.9,2.2,1.9,4.4
		C615.6,418.4,614.6,419.7,613.7,420.6z M611.8,413.4c-0.5-0.5-1.3-0.8-2.4-0.8H608v7.1h1.4c1.1,0,1.9-0.4,2.4-0.8
		c0.5-0.5,1-1.2,1-2.7C612.8,414.7,612.3,413.9,611.8,413.4z"/>
</g>
<g>
	<g>
		<g>
			<path fill="#FFFFFF" d="M371.3,834.3c-0.9,0.7-2.2,0.9-3.6,0.9H362v-14h4.8c1.3,0,2.5,0.1,3.5,0.6c0.9,0.5,1.8,1.4,1.8,2.9
				c0,1.5-1,2.7-2.1,3.1v0c1.7,0.4,2.9,1.6,2.9,3.3C372.9,832.7,372.2,833.6,371.3,834.3z M368.1,823.9c-0.4-0.2-0.8-0.3-1.5-0.3
				h-1.4v3.2h1.3c0.7,0,1.2,0,1.5-0.3c0.4-0.3,0.7-0.7,0.7-1.3C368.8,824.5,368.5,824.1,368.1,823.9z M368.8,829.5
				c-0.5-0.3-1-0.4-1.7-0.4h-1.8v3.6h1.8c0.7,0,1.3,0,1.7-0.4c0.5-0.3,0.7-0.8,0.7-1.4C369.6,830.3,369.3,829.8,368.8,829.5z"/>
			<path fill="#FFFFFF" d="M384.5,835.2h-9.3v-14h9.1v2.6h-5.8v2.9h5.5v2.6h-5.5v3.3h6V835.2z"/>
			<path fill="#FFFFFF" d="M396.3,823.8h-3.6v11.4h-3.3v-11.4h-3.6v-2.6h10.5V823.8z"/>
			<path fill="#FFFFFF" d="M407.5,823.8h-3.6v11.4h-3.3v-11.4H397v-2.6h10.5V823.8z"/>
			<path fill="#FFFFFF" d="M418.7,835.2h-9.3v-14h9.1v2.6h-5.8v2.9h5.5v2.6h-5.5v3.3h6V835.2z"/>
			<path fill="#FFFFFF" d="M432.3,835.2h-3.8l-2.9-5.4h-1v5.4h-3.3v-14h5c1.6,0,2.8,0.3,3.7,1c0.9,0.7,1.5,1.8,1.5,3.2
				c0,2.7-1.7,3.7-2.7,4L432.3,835.2z M427.5,824.1c-0.4-0.3-0.9-0.4-1.7-0.4h-1.3v3.6h1.3c0.8,0,1.3-0.1,1.7-0.4
				c0.4-0.3,0.7-0.7,0.7-1.4C428.2,824.8,427.9,824.4,427.5,824.1z"/>
			<path fill="#FFFFFF" d="M447.8,823.8h-3.6v11.4h-3.3v-11.4h-3.6v-2.6h10.5V823.8z"/>
			<path fill="#FFFFFF" d="M461.8,835.2h-3.3v-5.9h-5.6v5.9h-3.3v-14h3.3v5.4h5.6v-5.4h3.3V835.2z"/>
			<path fill="#FFFFFF" d="M477.5,835.2H474l-1-2.8h-5l-1,2.8h-3.4l5.3-14h3.4L477.5,835.2z M472.2,829.8l-1.7-5l-1.7,5H472.2z"/>
			<path fill="#FFFFFF" d="M491.9,835.2h-3.4l-6.2-9.5c0,0,0.1,1.7,0.1,3.2v6.3h-3.2v-14h3.5l6,9.4c0,0-0.1-1.6-0.1-3.1v-6.4h3.2
				V835.2z"/>
			<path fill="#FFFFFF" d="M512.1,835.2h-3.6l-1-2.8h-5l-1,2.8h-3.4l5.3-14h3.4L512.1,835.2z M506.8,829.8l-1.7-5l-1.7,5H506.8z"/>
			<path fill="#FFFFFF" d="M525,821.2l-5.2,14h-3.1l-5.2-14h3.5l3.3,9.7l3.3-9.7H525z"/>
			<path fill="#FFFFFF" d="M536,835.2h-9.3v-14h9.1v2.6H530v2.9h5.5v2.6H530v3.3h6V835.2z"/>
			<path fill="#FFFFFF" d="M549.6,835.2h-3.8l-2.9-5.4h-1v5.4h-3.3v-14h5c1.6,0,2.8,0.3,3.7,1c0.9,0.7,1.5,1.8,1.5,3.2
				c0,2.7-1.7,3.7-2.7,4L549.6,835.2z M544.8,824.1c-0.4-0.3-0.9-0.4-1.7-0.4h-1.3v3.6h1.3c0.8,0,1.3-0.1,1.7-0.4
				c0.4-0.3,0.7-0.7,0.7-1.4C545.5,824.8,545.2,824.4,544.8,824.1z"/>
			<path fill="#FFFFFF" d="M563.8,835.2h-3.6l-1-2.8h-5l-1,2.8h-3.4l5.3-14h3.4L563.8,835.2z M558.5,829.8l-1.7-5l-1.7,5H558.5z"/>
			<path fill="#FFFFFF" d="M578,833c-0.7,0.6-2.4,2.4-6.2,2.4c-3.9,0-7.3-2.6-7.3-7.2s3.4-7.2,7.3-7.2c3.7,0,5.3,2,5.8,2.4l-2.2,1.9
				c-0.6-0.7-1.7-1.6-3.6-1.6c-2.3,0-4,1.6-4,4.5c0,2.8,1.8,4.5,4.1,4.5c2.3,0,2.9-0.9,2.9-0.9v-2.1h-2.9v-2.5h6.2V833z"/>
			<path fill="#FFFFFF" d="M590,835.2h-9.3v-14h9.1v2.6H584v2.9h5.5v2.6H584v3.3h6V835.2z"/>
		</g>
	</g>
	<g>
		<g>
			<path fill="#FFFFFF" d="M790.3,834.3c-0.9,0.7-2.2,0.9-3.6,0.9H781v-14h4.8c1.3,0,2.5,0.1,3.5,0.6c0.9,0.5,1.8,1.4,1.8,2.9
				c0,1.5-1,2.7-2.1,3.1v0c1.7,0.4,2.9,1.6,2.9,3.3C791.9,832.7,791.2,833.6,790.3,834.3z M787.1,823.9c-0.4-0.2-0.8-0.3-1.5-0.3
				h-1.4v3.2h1.3c0.7,0,1.2,0,1.5-0.3c0.4-0.3,0.7-0.7,0.7-1.3C787.8,824.5,787.5,824.1,787.1,823.9z M787.8,829.5
				c-0.5-0.3-1-0.4-1.7-0.4h-1.8v3.6h1.8c0.7,0,1.3,0,1.7-0.4c0.5-0.3,0.7-0.8,0.7-1.4C788.5,830.3,788.3,829.8,787.8,829.5z"/>
			<path fill="#FFFFFF" d="M803.4,835.2h-9.3v-14h9.1v2.6h-5.8v2.9h5.5v2.6h-5.5v3.3h6V835.2z"/>
			<path fill="#FFFFFF" d="M813.8,834.3c-1,0.8-2.3,1.2-3.8,1.2c-2,0-3.8-1.1-5-2.1l1.6-2.4c1,1.1,2.6,1.8,3.7,1.8
				c1.1,0,1.9-0.5,1.9-1.4c0-1-1-1.3-1.6-1.5c-0.6-0.2-1.7-0.6-2.1-0.8c-0.3-0.2-1.1-0.4-1.7-1c-0.6-0.6-1.1-1.4-1.1-2.7
				c0-1.3,0.7-2.4,1.5-3.1c0.8-0.7,2.1-1.1,3.7-1.1c1.6,0,3.5,0.8,4.5,1.7l-1.4,2.3c-0.8-0.8-2.1-1.4-3.1-1.4
				c-1.1,0-1.8,0.4-1.8,1.3c0,0.9,0.8,1.2,1.4,1.4c0.6,0.2,1.6,0.6,2.1,0.8c0.4,0.1,1.3,0.5,2,1.1c0.6,0.6,1.1,1.4,1.1,2.7
				C815.4,832.3,814.8,833.5,813.8,834.3z"/>
			<path fill="#FFFFFF" d="M826.8,823.8h-3.6v11.4h-3.3v-11.4h-3.6v-2.6h10.5V823.8z"/>
			<path fill="#FFFFFF" d="M836.5,835.2h-3.3v-14h3.3V835.2z"/>
			<path fill="#FFFFFF" d="M852.3,835.2h-3.4l-6.2-9.5c0,0,0.1,1.7,0.1,3.2v6.3h-3.2v-14h3.5l6,9.4c0,0-0.1-1.6-0.1-3.1v-6.4h3.2
				V835.2z"/>
			<path fill="#FFFFFF" d="M869.2,834.3c-0.9,0.7-2.2,0.9-3.6,0.9h-5.7v-14h4.8c1.3,0,2.5,0.1,3.5,0.6c0.9,0.5,1.8,1.4,1.8,2.9
				c0,1.5-1,2.7-2.1,3.1v0c1.7,0.4,2.9,1.6,2.9,3.3C870.7,832.7,870.1,833.6,869.2,834.3z M865.9,823.9c-0.4-0.2-0.8-0.3-1.5-0.3
				h-1.4v3.2h1.3c0.7,0,1.2,0,1.5-0.3c0.4-0.3,0.7-0.7,0.7-1.3C866.6,824.5,866.3,824.1,865.9,823.9z M866.7,829.5
				c-0.5-0.3-1-0.4-1.7-0.4h-1.8v3.6h1.8c0.7,0,1.3,0,1.7-0.4c0.5-0.3,0.7-0.8,0.7-1.4C867.4,830.3,867.2,829.8,866.7,829.5z"/>
			<path fill="#FFFFFF" d="M884.1,835.2h-3.8l-2.9-5.4h-1v5.4H873v-14h5c1.6,0,2.8,0.3,3.7,1c0.9,0.7,1.5,1.8,1.5,3.2
				c0,2.7-1.7,3.7-2.7,4L884.1,835.2z M879.3,824.1c-0.4-0.3-0.9-0.4-1.7-0.4h-1.3v3.6h1.3c0.8,0,1.3-0.1,1.7-0.4
				c0.4-0.3,0.7-0.7,0.7-1.4C880,824.8,879.7,824.4,879.3,824.1z"/>
			<path fill="#FFFFFF" d="M895,835.2h-9.3v-14h9.1v2.6H889v2.9h5.5v2.6H889v3.3h6V835.2z"/>
			<path fill="#FFFFFF" d="M906.8,835.2h-9.3v-14h9.1v2.6h-5.8v2.9h5.5v2.6h-5.5v3.3h6V835.2z"/>
			<path fill="#FFFFFF" d="M919.5,833.5c-1.2,1-3,1.7-5.4,1.7h-4.8v-14h4.8c2.4,0,4.2,0.7,5.4,1.7c1.2,1,2.3,2.6,2.3,5.3
				S920.7,832.5,919.5,833.5z M917.2,824.9c-0.6-0.5-1.6-1-2.9-1h-1.7v8.5h1.7c1.4,0,2.3-0.4,2.9-1c0.6-0.5,1.2-1.5,1.2-3.2
				S917.8,825.4,917.2,824.9z"/>
		</g>
	</g>
</g>
</svg>
