<?xml version="1.0" encoding="utf-8"?>
<!-- Generator: Adobe Illustrator 17.1.0, SVG Export Plug-In . SVG Version: 6.00 Build 0)  -->
<!DOCTYPE svg PUBLIC "-//W3C//DTD SVG 1.1//EN" "http://www.w3.org/Graphics/SVG/1.1/DTD/svg11.dtd">
<svg version="1.1" id="Layer_1" xmlns="http://www.w3.org/2000/svg" xmlns:xlink="http://www.w3.org/1999/xlink" x="0px" y="0px"
	 viewBox="0 0 931 483" enable-background="new 0 0 931 483" xml:space="preserve">
<g>
	<g>
		<g>
			<path fill="#FFFFFF" d="M70.6,441.8c-0.8,0.6-2,0.8-3.3,0.8H62v-12.9h4.4c1.2,0,2.3,0.1,3.2,0.5s1.6,1.3,1.6,2.7
				c0,1.4-0.9,2.5-1.9,2.8v0c1.6,0.4,2.7,1.5,2.7,3.1C72,440.4,71.4,441.2,70.6,441.8z M67.6,432.3c-0.4-0.2-0.7-0.3-1.3-0.3H65v3
				h1.2c0.7,0,1.1,0,1.4-0.3c0.4-0.3,0.6-0.6,0.6-1.2C68.2,432.9,68,432.5,67.6,432.3z M68.3,437.4c-0.4-0.3-1-0.4-1.6-0.4H65v3.3
				h1.7c0.7,0,1.2,0,1.6-0.4c0.4-0.3,0.7-0.7,0.7-1.3C68.9,438.2,68.7,437.8,68.3,437.4z"/>
			<path fill="#FFFFFF" d="M82.6,442.7h-8.5v-12.9h8.3v2.4h-5.3v2.6h5v2.4h-5v3h5.5V442.7z"/>
			<path fill="#FFFFFF" d="M93.5,432.2h-3.3v10.5h-3v-10.5h-3.3v-2.4h9.7V432.2z"/>
			<path fill="#FFFFFF" d="M103.8,432.2h-3.3v10.5h-3v-10.5h-3.3v-2.4h9.7V432.2z"/>
			<path fill="#FFFFFF" d="M114.1,442.7h-8.5v-12.9h8.3v2.4h-5.3v2.6h5v2.4h-5v3h5.5V442.7z"/>
			<path fill="#FFFFFF" d="M126.6,442.7h-3.5l-2.7-4.9h-1v4.9h-3v-12.9h4.6c1.4,0,2.6,0.3,3.4,0.9c0.9,0.6,1.4,1.7,1.4,3
				c0,2.4-1.6,3.4-2.5,3.7L126.6,442.7z M122.1,432.5c-0.4-0.3-0.9-0.3-1.6-0.3h-1.2v3.3h1.2c0.7,0,1.2-0.1,1.6-0.4
				c0.4-0.3,0.7-0.6,0.7-1.3C122.8,433.1,122.5,432.7,122.1,432.5z"/>
			<path fill="#FFFFFF" d="M140.8,432.2h-3.3v10.5h-3v-10.5h-3.3v-2.4h9.7V432.2z"/>
			<path fill="#FFFFFF" d="M153.7,442.7h-3v-5.4h-5.2v5.4h-3v-12.9h3v5h5.2v-5h3V442.7z"/>
			<path fill="#FFFFFF" d="M168.1,442.7h-3.3l-0.9-2.6h-4.6l-0.9,2.6h-3.1l4.9-12.9h3.1L168.1,442.7z M163.3,437.7l-1.6-4.6
				l-1.6,4.6H163.3z"/>
			<path fill="#FFFFFF" d="M181.4,442.7h-3.1l-5.7-8.7c0,0,0.1,1.5,0.1,2.9v5.8h-3v-12.9h3.2l5.5,8.7c0,0-0.1-1.5-0.1-2.8v-5.8h3
				V442.7z"/>
			<path fill="#FFFFFF" d="M199.9,442.7h-3.3l-0.9-2.6h-4.6l-0.9,2.6h-3.1l4.9-12.9h3.1L199.9,442.7z M195,437.7l-1.6-4.6l-1.6,4.6
				H195z"/>
			<path fill="#FFFFFF" d="M211.8,429.8l-4.8,12.9h-2.9l-4.8-12.9h3.2l3,8.9l3-8.9H211.8z"/>
			<path fill="#FFFFFF" d="M221.8,442.7h-8.5v-12.9h8.3v2.4h-5.3v2.6h5v2.4h-5v3h5.5V442.7z"/>
			<path fill="#FFFFFF" d="M234.4,442.7h-3.5l-2.7-4.9h-1v4.9h-3v-12.9h4.6c1.4,0,2.6,0.3,3.4,0.9c0.9,0.6,1.4,1.7,1.4,3
				c0,2.4-1.6,3.4-2.5,3.7L234.4,442.7z M229.9,432.5c-0.4-0.3-0.9-0.3-1.6-0.3h-1.2v3.3h1.2c0.7,0,1.2-0.1,1.6-0.4
				c0.4-0.3,0.7-0.6,0.7-1.3C230.6,433.1,230.3,432.7,229.9,432.5z"/>
			<path fill="#FFFFFF" d="M247.4,442.7h-3.3l-0.9-2.6h-4.6l-0.9,2.6h-3.1l4.9-12.9h3.1L247.4,442.7z M242.6,437.7l-1.6-4.6
				l-1.6,4.6H242.6z"/>
			<path fill="#FFFFFF" d="M260.4,440.7c-0.7,0.6-2.2,2.2-5.7,2.2c-3.6,0-6.7-2.4-6.7-6.6s3.1-6.6,6.7-6.6c3.4,0,4.9,1.8,5.3,2.2
				l-2,1.7c-0.5-0.6-1.6-1.5-3.3-1.5c-2.1,0-3.7,1.5-3.7,4.1c0,2.6,1.6,4.1,3.7,4.1s2.7-0.8,2.7-0.8v-1.9h-2.7v-2.3h5.7V440.7z"/>
			<path fill="#FFFFFF" d="M271.5,442.7H263v-12.9h8.3v2.4H266v2.6h5v2.4h-5v3h5.5V442.7z"/>
		</g>
	</g>
	<g>
		<g>
			<path fill="#FFFFFF" d="M455.5,441.8c-0.8,0.6-2,0.8-3.3,0.8H447v-12.9h4.4c1.2,0,2.3,0.1,3.2,0.5s1.6,1.3,1.6,2.7
				c0,1.4-0.9,2.5-1.9,2.8v0c1.6,0.4,2.7,1.5,2.7,3.1C456.9,440.4,456.3,441.2,455.5,441.8z M452.6,432.3c-0.4-0.2-0.7-0.3-1.3-0.3
				H450v3h1.2c0.7,0,1.1,0,1.4-0.3c0.4-0.3,0.6-0.6,0.6-1.2C453.2,432.9,452.9,432.5,452.6,432.3z M453.2,437.4
				c-0.4-0.3-1-0.4-1.6-0.4H450v3.3h1.7c0.7,0,1.2,0,1.6-0.4c0.4-0.3,0.7-0.7,0.7-1.3C453.9,438.2,453.7,437.8,453.2,437.4z"/>
			<path fill="#FFFFFF" d="M467.6,442.7h-8.5v-12.9h8.3v2.4h-5.3v2.6h5v2.4h-5v3h5.5V442.7z"/>
			<path fill="#FFFFFF" d="M477.1,441.8c-0.9,0.7-2.1,1.1-3.5,1.1c-1.9,0-3.5-1-4.6-1.9l1.5-2.2c0.9,1,2.4,1.6,3.4,1.6
				c1,0,1.7-0.5,1.7-1.3c0-0.9-1-1.2-1.5-1.4c-0.6-0.2-1.5-0.5-2-0.7c-0.3-0.1-1-0.4-1.5-0.9c-0.6-0.5-1-1.3-1-2.5
				c0-1.2,0.6-2.2,1.3-2.8c0.7-0.6,1.9-1,3.4-1s3.2,0.7,4.1,1.6l-1.3,2.1c-0.7-0.7-1.9-1.3-2.9-1.3c-1,0-1.7,0.4-1.7,1.2
				c0,0.8,0.7,1.1,1.3,1.3c0.6,0.2,1.5,0.6,1.9,0.7c0.4,0.1,1.2,0.5,1.8,1c0.5,0.5,1,1.3,1,2.5C478.6,440,478,441.1,477.1,441.8z"/>
			<path fill="#FFFFFF" d="M489.1,432.2h-3.3v10.5h-3v-10.5h-3.3v-2.4h9.7V432.2z"/>
			<path fill="#FFFFFF" d="M498,442.7h-3v-12.9h3V442.7z"/>
			<path fill="#FFFFFF" d="M512.4,442.7h-3.1l-5.7-8.7c0,0,0.1,1.5,0.1,2.9v5.8h-3v-12.9h3.2l5.5,8.7c0,0-0.1-1.5-0.1-2.8v-5.8h3
				V442.7z"/>
			<path fill="#FFFFFF" d="M528,441.8c-0.8,0.6-2,0.8-3.3,0.8h-5.3v-12.9h4.4c1.2,0,2.3,0.1,3.2,0.5s1.6,1.3,1.6,2.7
				c0,1.4-0.9,2.5-1.9,2.8v0c1.6,0.4,2.7,1.5,2.7,3.1C529.4,440.4,528.8,441.2,528,441.8z M525,432.3c-0.4-0.2-0.7-0.3-1.3-0.3h-1.3
				v3h1.2c0.7,0,1.1,0,1.4-0.3c0.4-0.3,0.6-0.6,0.6-1.2C525.6,432.9,525.4,432.5,525,432.3z M525.7,437.4c-0.4-0.3-1-0.4-1.6-0.4
				h-1.7v3.3h1.7c0.7,0,1.2,0,1.6-0.4c0.4-0.3,0.7-0.7,0.7-1.3C526.3,438.2,526.1,437.8,525.7,437.4z"/>
			<path fill="#FFFFFF" d="M541.7,442.7h-3.5l-2.7-4.9h-1v4.9h-3v-12.9h4.6c1.4,0,2.6,0.3,3.4,0.9c0.9,0.6,1.4,1.7,1.4,3
				c0,2.4-1.6,3.4-2.5,3.7L541.7,442.7z M537.3,432.5c-0.4-0.3-0.9-0.3-1.5-0.3h-1.2v3.3h1.2c0.7,0,1.2-0.1,1.5-0.4
				c0.4-0.3,0.7-0.6,0.7-1.3C537.9,433.1,537.6,432.7,537.3,432.5z"/>
			<path fill="#FFFFFF" d="M551.7,442.7h-8.5v-12.9h8.3v2.4h-5.3v2.6h5v2.4h-5v3h5.5V442.7z"/>
			<path fill="#FFFFFF" d="M562.5,442.7H554v-12.9h8.3v2.4H557v2.6h5v2.4h-5v3h5.5V442.7z"/>
			<path fill="#FFFFFF" d="M574.2,441.1c-1.1,0.9-2.7,1.5-5,1.5h-4.4v-12.9h4.4c2.2,0,3.9,0.6,5,1.5c1.1,0.9,2.1,2.4,2.1,4.9
				S575.3,440.2,574.2,441.1z M572.1,433.2c-0.5-0.5-1.4-0.9-2.7-0.9h-1.5v7.8h1.5c1.3,0,2.1-0.4,2.7-0.9c0.5-0.5,1.1-1.4,1.1-3
				S572.6,433.7,572.1,433.2z"/>
		</g>
	</g>
</g>
<circle fill="none" stroke="#FFF7B5" stroke-miterlimit="10" cx="553.8" cy="90.1" r="57.7"/>
<circle fill="none" stroke="#FFF7B5" stroke-miterlimit="10" cx="553.8" cy="224.4" r="64.8"/>
<circle fill="none" stroke="#FFF7B5" stroke-miterlimit="10" cx="428" cy="271.6" r="57.7"/>
<g>
	<circle fill="none" stroke="#FFF7B5" stroke-miterlimit="10" cx="791.5" cy="247.5" r="57.7"/>
</g>
<circle fill="none" stroke="#FFF7B5" stroke-miterlimit="10" cx="685.1" cy="147.8" r="73.6"/>
<circle fill="none" stroke="#FFF7B5" stroke-miterlimit="10" cx="150.8" cy="242.1" r="62"/>
<circle fill="none" stroke="#FFF7B5" stroke-miterlimit="10" cx="270.6" cy="277.6" r="50.8"/>
<circle fill="none" stroke="#FFF7B5" stroke-miterlimit="10" cx="248.9" cy="171.4" r="45.9"/>
<circle fill="none" stroke="#FFF7B5" stroke-miterlimit="10" cx="190.6" cy="79.2" r="50.7"/>
<circle fill="none" stroke="#FFF7B5" stroke-miterlimit="10" cx="294.8" cy="79.2" r="45.9"/>
<circle fill="none" stroke="#FFF7B5" stroke-miterlimit="10" cx="364.8" cy="163.9" r="54.9"/>
<g>
	<g>
		<rect x="-24.4" y="-708.1" fill="none" width="231" height="53.4"/>
		<text transform="matrix(1 0 0 1 -15.222 -695.2125)" fill="#EEEEEE" font-family="'Gibson-SemiBold'" font-size="18.6764">Better Than Average</text>
	</g>
	<g>
		<rect x="335.8" y="-708.1" fill="none" width="160.1" height="53.4"/>
		<text transform="matrix(1 0 0 1 350.2636 -695.2125)" fill="#EEEEEE" font-family="'Gibson-SemiBold'" font-size="18.6764">Best In Breed</text>
	</g>
	<g>
	</g>
</g>
<circle fill="none" stroke="#F9F1C3" stroke-miterlimit="10" cx="478.4" cy="-1047.8" r="57.7"/>
<rect x="420.7" y="-1062" fill="none" width="115.4" height="28.4"/>
<text transform="matrix(1 0 0 1 438.3137 -1051.6411)"><tspan x="0" y="0" fill="#F9F1C3" font-family="'Gibson-Regular'" font-size="15">Technical </tspan><tspan x="22.7" y="18" fill="#F9F1C3" font-family="'Gibson-Regular'" font-size="15">Skill</tspan></text>
<circle fill="none" stroke="#F9F1C3" stroke-miterlimit="10" cx="478.4" cy="-913.5" r="64.8"/>
<rect x="413.5" y="-919.3" fill="none" width="129.7" height="11.6"/>
<text transform="matrix(1 0 0 1 440.2332 -907.688)" fill="#F9F1C3" font-family="'Gibson-Regular'" font-size="16.853">Product</text>
<circle fill="none" stroke="#F9F1C3" stroke-miterlimit="10" cx="352.6" cy="-866.3" r="57.7"/>
<rect x="294.9" y="-880.5" fill="none" width="115.4" height="28.4"/>
<text transform="matrix(1 0 0 1 313.2026 -870.1419)"><tspan x="0" y="0" fill="#F9F1C3" font-family="'Gibson-Regular'" font-size="15">Customer</tspan><tspan x="10.9" y="18" fill="#F9F1C3" font-family="'Gibson-Regular'" font-size="15">service</tspan></text>
<g>
	<circle fill="none" stroke="#F9F1C3" stroke-miterlimit="10" cx="716.3" cy="-890.6" r="57.7"/>
</g>
<rect x="658.6" y="-895.7" fill="none" width="115.4" height="10.4"/>
<text transform="matrix(1 0 0 1 687.8316 -885.3859)" fill="#F9F1C3" font-family="'Gibson-Regular'" font-size="15">COMMS</text>
<circle fill="none" stroke="#F9F1C3" stroke-miterlimit="10" cx="609.7" cy="-990.1" r="73.6"/>
<rect x="536.1" y="-1008.2" fill="none" width="147.2" height="36.2"/>
<text transform="matrix(1 0 0 1 570.4166 -994.9911)"><tspan x="0" y="0" fill="#F9F1C3" font-family="'Gibson-Regular'" font-size="19.1288">Overall</tspan><tspan x="10.9" y="23" fill="#F9F1C3" font-family="'Gibson-Regular'" font-size="19.1288">value</tspan></text>
<circle fill="none" stroke="#F9F1C3" stroke-miterlimit="10" cx="75.4" cy="-895.7" r="62"/>
<rect x="13.4" y="-911" fill="none" width="124" height="30.5"/>
<text transform="matrix(1 0 0 1 65.1705 -899.873)"><tspan x="0" y="0" fill="#F9F1C3" font-family="'Gibson-Regular'" font-size="16.1136">UX</tspan><tspan x="-18.9" y="19.3" fill="#F9F1C3" font-family="'Gibson-Regular'" font-size="16.1136">Design</tspan></text>
<circle fill="none" stroke="#F9F1C3" stroke-miterlimit="10" cx="195.2" cy="-860.2" r="50.8"/>
<rect x="144.4" y="-872.7" fill="none" width="101.5" height="25"/>
<text transform="matrix(1 0 0 1 160.9014 -863.6301)"><tspan x="0" y="0" fill="#F9F1C3" font-family="'Gibson-Regular'" font-size="13.1911">Frontend</tspan><tspan x="22" y="15.8" fill="#F9F1C3" font-family="'Gibson-Regular'" font-size="13.1911">dev</tspan></text>
<circle fill="none" stroke="#F9F1C3" stroke-miterlimit="10" cx="173.5" cy="-966.5" r="45.9"/>
<rect x="127.6" y="-977.7" fill="none" width="91.8" height="22.6"/>
<text transform="matrix(1 0 0 1 146.1638 -969.5198)"><tspan x="0" y="0" fill="#F9F1C3" font-family="'Gibson-Regular'" font-size="11.9275">backend</tspan><tspan x="16.3" y="14.3" fill="#F9F1C3" font-family="'Gibson-Regular'" font-size="11.9275">dev</tspan></text>
<circle fill="none" stroke="#F9F1C3" stroke-miterlimit="10" cx="115.2" cy="-1058.7" r="50.7"/>
<rect x="64.6" y="-1063.4" fill="none" width="101.3" height="9.3"/>
<text transform="matrix(1 0 0 1 90.7341 -1054.2721)" fill="#F9F1C3" font-family="'Gibson-Regular'" font-size="13.1656">iOS DEV</text>
<circle fill="none" stroke="#F9F1C3" stroke-miterlimit="10" cx="219.4" cy="-1058.7" r="45.9"/>
<rect x="173.5" y="-1060.3" fill="none" width="91.8" height="8.4"/>
<text transform="matrix(1 0 0 1 182.3536 -1054.084)" fill="#F9F1C3" font-family="'Gibson-Regular'" font-size="9">RESPONSIVENESS</text>
<circle fill="none" stroke="#F9F1C3" stroke-miterlimit="10" cx="289.4" cy="-974" r="54.9"/>
<rect x="234.4" y="-987.5" fill="none" width="109.8" height="27"/>
<text transform="matrix(1 0 0 1 260.0662 -977.6832)"><tspan x="0" y="0" fill="#F9F1C3" font-family="'Gibson-Regular'" font-size="14.2733">OVERALL</tspan><tspan x="11" y="17.1" fill="#F9F1C3" font-family="'Gibson-Regular'" font-size="14.2733">COST</tspan></text>
<text transform="matrix(1 0 0 1 561 710)" font-family="'MyriadPro-Regular'" font-size="12">E9E61E</text>
<g>
	<g>
		<path fill="#FFFFFF" d="M520.3,79.3h-2.7v8.4h-2.4v-8.4h-2.7v-1.9h7.8V79.3z"/>
		<path fill="#FFFFFF" d="M528.4,87.7h-6.8V77.4h6.7v1.9h-4.3v2.1h4v1.9h-4v2.4h4.4V87.7z"/>
		<path fill="#FFFFFF" d="M538.8,86.5c-0.5,0.5-1.6,1.4-3.7,1.4c-3,0-5.4-2-5.4-5.3c0-3.3,2.4-5.3,5.4-5.3c2.1,0,3.3,0.9,3.6,1.2
			l-0.8,2c-0.2-0.3-1.3-1.1-2.7-1.1c-1.8,0-3.1,1.2-3.1,3.2s1.4,3.2,3.1,3.2c1.3,0,2.2-0.5,2.8-1.1L538.8,86.5z"/>
		<path fill="#FFFFFF" d="M549.3,87.7h-2.4v-4.3h-4.2v4.3h-2.4V77.4h2.4v4h4.2v-4h2.4V87.7z"/>
		<path fill="#FFFFFF" d="M561,87.7h-2.5l-4.5-7c0,0,0,1.2,0,2.3v4.7h-2.4V77.4h2.6l4.4,7c0,0,0-1.2,0-2.3v-4.7h2.4V87.7z"/>
		<path fill="#FFFFFF" d="M565.7,87.7h-2.4V77.4h2.4V87.7z"/>
		<path fill="#FFFFFF" d="M576.6,86.5c-0.5,0.5-1.6,1.4-3.7,1.4c-3,0-5.4-2-5.4-5.3c0-3.3,2.4-5.3,5.4-5.3c2.1,0,3.3,0.9,3.6,1.2
			l-0.8,2c-0.2-0.3-1.3-1.1-2.7-1.1c-1.8,0-3.1,1.2-3.1,3.2s1.4,3.2,3.1,3.2c1.3,0,2.2-0.5,2.8-1.1L576.6,86.5z"/>
		<path fill="#FFFFFF" d="M587.6,87.7H585l-0.7-2.1h-3.7l-0.7,2.1h-2.5l3.9-10.4h2.5L587.6,87.7z M583.7,83.7l-1.3-3.7l-1.3,3.7
			H583.7z"/>
		<path fill="#FFFFFF" d="M594.8,87.7h-6V77.4h2.4v8.3h3.6V87.7z"/>
		<path fill="#FFFFFF" d="M541.6,105c-0.7,0.6-1.7,0.9-2.8,0.9c-1.5,0-2.8-0.8-3.7-1.6l1.2-1.8c0.8,0.8,1.9,1.3,2.7,1.3
			c0.8,0,1.4-0.4,1.4-1.1c0-0.7-0.8-1-1.2-1.1c-0.4-0.2-1.2-0.4-1.6-0.6c-0.3-0.1-0.8-0.3-1.2-0.8c-0.5-0.4-0.8-1-0.8-2
			c0-1,0.5-1.8,1.1-2.3c0.6-0.5,1.5-0.8,2.7-0.8s2.6,0.6,3.3,1.3l-1,1.7c-0.6-0.6-1.5-1.1-2.3-1.1c-0.8,0-1.4,0.3-1.4,0.9
			s0.6,0.9,1,1c0.5,0.2,1.2,0.5,1.5,0.6c0.3,0.1,1,0.4,1.4,0.8c0.4,0.4,0.8,1.1,0.8,2C542.8,103.5,542.3,104.4,541.6,105z"/>
		<path fill="#FFFFFF" d="M553.3,105.7h-2.9l-2.6-4.3l-0.8,0.9v3.4h-2.4V95.4h2.4v3.8l3.2-3.8h2.9l-3.6,4.1L553.3,105.7z"/>
		<path fill="#FFFFFF" d="M556.8,105.7h-2.4V95.4h2.4V105.7z"/>
		<path fill="#FFFFFF" d="M565.1,105.7h-6V95.4h2.4v8.3h3.6V105.7z"/>
		<path fill="#FFFFFF" d="M572.4,105.7h-6V95.4h2.4v8.3h3.6V105.7z"/>
	</g>
	<g>
		<path fill="#FFFFFF" d="M522.5,226.5c-0.8,0.6-1.8,0.9-3,0.9H518v4.3h-2.7V220h4.2c1.2,0,2.3,0.2,3,0.9c0.8,0.6,1.2,1.5,1.2,2.8
			C523.7,224.9,523.3,225.8,522.5,226.5z M520.4,222.5c-0.3-0.2-0.7-0.3-1.3-0.3H518v3.1h1.1c0.6,0,1-0.1,1.3-0.3
			c0.3-0.2,0.6-0.7,0.6-1.2C520.9,223.1,520.7,222.7,520.4,222.5z"/>
		<path fill="#FFFFFF" d="M534.5,231.7h-3.2l-2.4-4.4H528v4.4h-2.7V220h4.2c1.3,0,2.3,0.3,3.1,0.8c0.8,0.6,1.3,1.5,1.3,2.7
			c0,2.2-1.4,3.1-2.3,3.3L534.5,231.7z M530.5,222.4c-0.3-0.3-0.8-0.3-1.4-0.3H528v3h1.1c0.6,0,1.1-0.1,1.4-0.3
			c0.4-0.3,0.6-0.6,0.6-1.2C531.1,223,530.8,222.7,530.5,222.4z"/>
		<path fill="#FFFFFF" d="M541.3,231.9c-3.5,0-6.2-2.2-6.2-6s2.7-6,6.2-6c3.5,0,6.2,2.3,6.2,6S544.7,231.9,541.3,231.9z
			 M541.3,222.2c-1.9,0-3.4,1.4-3.4,3.6s1.5,3.6,3.4,3.6c1.9,0,3.4-1.4,3.4-3.6C544.7,223.6,543.2,222.2,541.3,222.2z"/>
		<path fill="#FFFFFF" d="M557.9,230.3c-1,0.8-2.5,1.4-4.5,1.4h-3.9V220h3.9c2,0,3.5,0.6,4.5,1.4c1,0.8,1.9,2.2,1.9,4.4
			C559.7,228.1,558.8,229.4,557.9,230.3z M555.9,223.1c-0.5-0.5-1.3-0.8-2.4-0.8h-1.4v7.1h1.4c1.1,0,1.9-0.4,2.4-0.8
			c0.5-0.5,1-1.2,1-2.7C557,224.4,556.4,223.6,555.9,223.1z"/>
		<path fill="#FFFFFF" d="M571.3,226.8c0,1.6-0.3,2.8-1.1,3.7c-0.8,0.9-2.1,1.4-3.8,1.4c-1.7,0-2.9-0.5-3.8-1.4
			c-0.8-0.9-1.1-2-1.1-3.7V220h2.7v6.8c0,0.8,0.1,1.5,0.5,1.9c0.4,0.4,0.9,0.7,1.7,0.7s1.3-0.3,1.7-0.7c0.4-0.5,0.5-1.1,0.5-1.9V220
			h2.7V226.8z"/>
		<path fill="#FFFFFF" d="M583.5,230.3c-0.6,0.6-1.8,1.6-4.2,1.6c-3.4,0-6.1-2.3-6.1-6c0-3.8,2.7-6,6.1-6c2.4,0,3.7,1,4,1.3
			l-0.8,2.3c-0.2-0.3-1.5-1.2-3-1.2c-2,0-3.5,1.3-3.5,3.6c0,2.3,1.6,3.6,3.5,3.6c1.4,0,2.5-0.6,3.1-1.2L583.5,230.3z"/>
		<path fill="#FFFFFF" d="M593.1,222.2h-3v9.5h-2.7v-9.5h-3V220h8.7V222.2z"/>
	</g>
	<g>
		<path fill="#FFFFFF" d="M397,268c-0.5,0.5-1.6,1.4-3.7,1.4c-3,0-5.4-2-5.4-5.3c0-3.3,2.4-5.3,5.4-5.3c2.1,0,3.3,0.9,3.6,1.2
			l-0.8,2c-0.2-0.3-1.3-1.1-2.7-1.1c-1.8,0-3.1,1.2-3.1,3.2c0,2,1.4,3.2,3.1,3.2c1.3,0,2.2-0.5,2.8-1.1L397,268z"/>
		<path fill="#FFFFFF" d="M407,264.9c0,1.5-0.3,2.5-1,3.3c-0.7,0.8-1.8,1.2-3.3,1.2c-1.5,0-2.6-0.5-3.4-1.2c-0.7-0.8-1-1.8-1-3.3v-6
			h2.4v6c0,0.7,0.1,1.3,0.4,1.7c0.3,0.4,0.8,0.6,1.5,0.6c0.7,0,1.2-0.3,1.5-0.6c0.3-0.4,0.4-1,0.4-1.7v-6h2.4V264.9z"/>
		<path fill="#FFFFFF" d="M414.8,268.5c-0.7,0.6-1.7,0.9-2.8,0.9c-1.5,0-2.8-0.8-3.7-1.6l1.2-1.8c0.8,0.8,1.9,1.3,2.7,1.3
			c0.8,0,1.4-0.4,1.4-1.1c0-0.7-0.8-1-1.2-1.1c-0.4-0.2-1.2-0.4-1.6-0.6c-0.3-0.1-0.8-0.3-1.2-0.8c-0.5-0.4-0.8-1-0.8-2
			c0-1,0.5-1.8,1.1-2.3c0.6-0.5,1.5-0.8,2.7-0.8c1.2,0,2.6,0.6,3.3,1.3l-1,1.7c-0.6-0.6-1.5-1.1-2.3-1.1c-0.8,0-1.4,0.3-1.4,0.9
			c0,0.6,0.6,0.9,1,1.1c0.5,0.2,1.2,0.4,1.5,0.6c0.3,0.1,1,0.4,1.4,0.8c0.4,0.4,0.8,1.1,0.8,2C416,267,415.6,267.9,414.8,268.5z"/>
		<path fill="#FFFFFF" d="M424.7,260.8H422v8.4h-2.4v-8.4h-2.7v-1.9h7.8V260.8z"/>
		<path fill="#FFFFFF" d="M430.8,269.4c-3.1,0-5.5-2-5.5-5.3c0-3.3,2.4-5.4,5.5-5.4c3.1,0,5.5,2,5.5,5.4
			C436.3,267.4,433.9,269.4,430.8,269.4z M430.8,260.8c-1.7,0-3,1.2-3,3.2s1.3,3.2,3,3.2c1.7,0,3-1.3,3-3.2
			C433.8,262,432.5,260.8,430.8,260.8z"/>
		<path fill="#FFFFFF" d="M449.6,269.2h-2.4l-0.4-7h0l-2.2,7h-1.9l-2.2-7h0l-0.4,7h-2.4l0.8-10.3h3.1l2.2,6.8h0l2.1-6.8h3.1
			L449.6,269.2z"/>
		<path fill="#FFFFFF" d="M458.4,269.2h-6.8v-10.3h6.7v1.9H454v2.1h4v1.9h-4v2.4h4.4V269.2z"/>
		<path fill="#FFFFFF" d="M468.6,269.2h-2.8l-2.2-4h-0.8v4h-2.4v-10.3h3.7c1.2,0,2.1,0.2,2.7,0.7c0.7,0.5,1.1,1.3,1.1,2.4
			c0,2-1.3,2.7-2,3L468.6,269.2z M465,261c-0.3-0.2-0.7-0.3-1.2-0.3h-1v2.7h1c0.6,0,0.9-0.1,1.2-0.3c0.3-0.2,0.5-0.5,0.5-1.1
			C465.5,261.5,465.3,261.2,465,261z"/>
		<path fill="#FFFFFF" d="M404.6,286.5c-0.7,0.6-1.7,0.9-2.8,0.9c-1.5,0-2.8-0.8-3.7-1.6l1.2-1.8c0.8,0.8,1.9,1.3,2.7,1.3
			c0.8,0,1.4-0.4,1.4-1.1c0-0.7-0.8-1-1.2-1.1c-0.4-0.2-1.2-0.4-1.6-0.6c-0.3-0.1-0.8-0.3-1.2-0.8c-0.5-0.4-0.8-1-0.8-2
			c0-1,0.5-1.8,1.1-2.3c0.6-0.5,1.5-0.8,2.7-0.8c1.2,0,2.6,0.6,3.3,1.3l-1,1.7c-0.6-0.6-1.5-1.1-2.3-1.1c-0.8,0-1.4,0.3-1.4,0.9
			c0,0.6,0.6,0.9,1,1.1c0.5,0.2,1.2,0.4,1.5,0.6c0.3,0.1,1,0.4,1.4,0.8c0.4,0.4,0.8,1.1,0.8,2C405.8,285,405.4,285.9,404.6,286.5z"
			/>
		<path fill="#FFFFFF" d="M414.4,287.2h-6.8v-10.3h6.7v1.9H410v2.1h4v1.9h-4v2.4h4.4V287.2z"/>
		<path fill="#FFFFFF" d="M424.6,287.2h-2.8l-2.2-4h-0.8v4h-2.4v-10.3h3.7c1.2,0,2.1,0.2,2.7,0.7c0.7,0.5,1.1,1.3,1.1,2.4
			c0,2-1.3,2.7-2,3L424.6,287.2z M421,279c-0.3-0.2-0.7-0.3-1.2-0.3h-1v2.7h1c0.6,0,0.9-0.1,1.2-0.3c0.3-0.2,0.5-0.5,0.5-1.1
			C421.5,279.5,421.3,279.2,421,279z"/>
		<path fill="#FFFFFF" d="M434.5,276.9l-3.8,10.3h-2.3l-3.8-10.3h2.6l2.4,7.1l2.4-7.1H434.5z"/>
		<path fill="#FFFFFF" d="M438.2,287.2h-2.4v-10.3h2.4V287.2z"/>
		<path fill="#FFFFFF" d="M449.1,286c-0.5,0.5-1.6,1.4-3.7,1.4c-3,0-5.4-2-5.4-5.3c0-3.3,2.4-5.3,5.4-5.3c2.1,0,3.3,0.9,3.6,1.2
			l-0.8,2c-0.2-0.3-1.3-1.1-2.7-1.1c-1.8,0-3.1,1.2-3.1,3.2c0,2,1.4,3.2,3.1,3.2c1.3,0,2.2-0.5,2.8-1.1L449.1,286z"/>
		<path fill="#FFFFFF" d="M457.4,287.2h-6.8v-10.3h6.7v1.9H453v2.1h4v1.9h-4v2.4h4.4V287.2z"/>
	</g>
	<g>
		<path fill="#FFFFFF" d="M772.4,252.7c-0.5,0.5-1.6,1.4-3.7,1.4c-3,0-5.4-2-5.4-5.3c0-3.3,2.4-5.3,5.4-5.3c2.1,0,3.3,0.9,3.6,1.2
			l-0.8,2c-0.2-0.3-1.3-1.1-2.7-1.1c-1.8,0-3.1,1.2-3.1,3.2c0,2,1.4,3.2,3.1,3.2c1.3,0,2.2-0.5,2.8-1.1L772.4,252.7z"/>
		<path fill="#FFFFFF" d="M778.7,254.1c-3.1,0-5.5-2-5.5-5.3c0-3.3,2.4-5.4,5.5-5.4c3.1,0,5.5,2,5.5,5.4
			C784.2,252.1,781.8,254.1,778.7,254.1z M778.7,245.5c-1.7,0-3,1.2-3,3.2c0,2,1.3,3.2,3,3.2s3-1.3,3-3.2
			C781.7,246.8,780.4,245.5,778.7,245.5z"/>
		<path fill="#FFFFFF" d="M797.5,254h-2.4l-0.4-7h0l-2.2,7h-1.9l-2.2-7h0l-0.4,7h-2.4l0.8-10.3h3.1l2.2,6.8h0l2.1-6.8h3.1L797.5,254
			z"/>
		<path fill="#FFFFFF" d="M811.2,254h-2.4l-0.4-7h0l-2.2,7h-1.9l-2.2-7h0l-0.4,7h-2.4l0.8-10.3h3.1l2.2,6.8h0l2.1-6.8h3.1L811.2,254
			z"/>
		<path fill="#FFFFFF" d="M818.8,253.3c-0.7,0.6-1.7,0.9-2.8,0.9c-1.5,0-2.8-0.8-3.7-1.6l1.2-1.8c0.8,0.8,1.9,1.3,2.7,1.3
			c0.8,0,1.4-0.4,1.4-1.1c0-0.7-0.8-1-1.2-1.1c-0.5-0.2-1.2-0.4-1.6-0.6c-0.3-0.1-0.8-0.3-1.2-0.8c-0.5-0.4-0.8-1-0.8-2
			c0-1,0.5-1.8,1.1-2.3c0.6-0.5,1.5-0.8,2.7-0.8c1.2,0,2.6,0.6,3.3,1.3l-1,1.7c-0.6-0.6-1.5-1.1-2.3-1.1c-0.8,0-1.3,0.3-1.3,0.9
			s0.6,0.9,1,1c0.5,0.2,1.2,0.5,1.5,0.6c0.3,0.1,1,0.4,1.4,0.8c0.4,0.4,0.8,1.1,0.8,2C820,251.8,819.6,252.7,818.8,253.3z"/>
	</g>
	<g>
		<path fill="#FFFFFF" d="M650.8,144.6c-3.9,0-7-2.5-7-6.8c0-4.3,3.1-6.8,7-6.8s7,2.6,7,6.8C657.8,142,654.7,144.6,650.8,144.6z
			 M650.8,133.6c-2.2,0-3.9,1.6-3.9,4.1c0,2.5,1.7,4.1,3.9,4.1s3.9-1.6,3.9-4.1C654.7,135.2,653,133.6,650.8,133.6z"/>
		<path fill="#FFFFFF" d="M670.8,131.1l-4.9,13.2H663l-4.9-13.2h3.3l3.1,9.1l3.1-9.1H670.8z"/>
		<path fill="#FFFFFF" d="M681.1,144.4h-8.7v-13.2h8.6v2.5h-5.5v2.7h5.2v2.5h-5.2v3.1h5.6V144.4z"/>
		<path fill="#FFFFFF" d="M694,144.4h-3.6l-2.8-5.1h-1v5.1h-3.1v-13.2h4.7c1.5,0,2.6,0.3,3.5,0.9c0.9,0.7,1.5,1.7,1.5,3
			c0,2.5-1.6,3.5-2.6,3.8L694,144.4z M689.5,133.9c-0.4-0.3-0.9-0.3-1.6-0.3h-1.2v3.4h1.2c0.7,0,1.2-0.1,1.6-0.4
			c0.4-0.3,0.7-0.7,0.7-1.3C690.2,134.6,689.9,134.2,689.5,133.9z"/>
		<path fill="#FFFFFF" d="M708.1,144.4h-3.4l-0.9-2.7h-4.7l-0.9,2.7h-3.2l5-13.2h3.2L708.1,144.4z M703.1,139.3l-1.6-4.7l-1.6,4.7
			H703.1z"/>
		<path fill="#FFFFFF" d="M717.2,144.4h-7.7v-13.2h3.1v10.6h4.6V144.4z"/>
		<path fill="#FFFFFF" d="M726.6,144.4h-7.7v-13.2h3.1v10.6h4.6V144.4z"/>
		<path fill="#FFFFFF" d="M668.2,154.1l-4.9,13.2h-2.9l-4.9-13.2h3.3l3.1,9.1l3.1-9.1H668.2z"/>
		<path fill="#FFFFFF" d="M680.6,167.3h-3.4l-0.9-2.7h-4.7l-0.9,2.7h-3.2l5-13.2h3.2L680.6,167.3z M675.6,162.2l-1.6-4.7l-1.6,4.7
			H675.6z"/>
		<path fill="#FFFFFF" d="M689.8,167.3h-7.7v-13.2h3.1v10.6h4.6V167.3z"/>
		<path fill="#FFFFFF" d="M702.2,161.8c0,1.9-0.3,3.1-1.3,4.2c-0.9,1-2.4,1.6-4.3,1.6c-1.9,0-3.3-0.6-4.3-1.6
			c-0.9-1-1.2-2.3-1.2-4.2v-7.7h3.1v7.7c0,0.9,0.1,1.7,0.5,2.2c0.4,0.5,1,0.8,1.9,0.8s1.5-0.3,1.9-0.8c0.4-0.5,0.5-1.3,0.5-2.2v-7.7
			h3.1V161.8z"/>
		<path fill="#FFFFFF" d="M713.8,167.3h-8.7v-13.2h8.6v2.5h-5.5v2.7h5.2v2.5h-5.2v3.1h5.6V167.3z"/>
	</g>
	<g>
		<path fill="#FFFFFF" d="M150,234.8c0,1.6-0.3,2.6-1.1,3.5c-0.8,0.8-2,1.3-3.6,1.3c-1.6,0-2.8-0.5-3.6-1.3c-0.8-0.9-1-1.9-1-3.5
			v-6.5h2.6v6.5c0,0.8,0.1,1.4,0.4,1.9c0.4,0.4,0.9,0.7,1.6,0.7s1.2-0.3,1.6-0.7c0.4-0.5,0.4-1.1,0.4-1.9v-6.5h2.6V234.8z"/>
		<path fill="#FFFFFF" d="M161.9,239.5h-3.1l-2.3-4.1l-2.3,4.1h-3.1l3.7-5.8l-3.4-5.3h3.1l2.1,3.7l2.1-3.7h3.1l-3.5,5.3L161.9,239.5
			z"/>
		<path fill="#FFFFFF" d="M129.8,257.5c-0.9,0.8-2.4,1.3-4.3,1.3h-3.8v-11.1h3.8c1.9,0,3.4,0.5,4.3,1.3c0.9,0.8,1.8,2.1,1.8,4.2
			C131.6,255.4,130.7,256.7,129.8,257.5z M128,250.6c-0.5-0.4-1.2-0.8-2.3-0.8h-1.3v6.8h1.3c1.1,0,1.9-0.4,2.3-0.8
			c0.5-0.4,1-1.2,1-2.5C129,251.9,128.4,251.1,128,250.6z"/>
		<path fill="#FFFFFF" d="M140.8,258.8h-7.3v-11.1h7.2v2.1h-4.6v2.3h4.4v2.1h-4.4v2.6h4.8V258.8z"/>
		<path fill="#FFFFFF" d="M149,258.1c-0.8,0.6-1.8,0.9-3,0.9c-1.6,0-3-0.8-3.9-1.7l1.3-1.9c0.8,0.8,2,1.4,2.9,1.4
			c0.8,0,1.5-0.4,1.5-1.1c0-0.8-0.8-1-1.3-1.2s-1.3-0.5-1.7-0.6c-0.3-0.1-0.8-0.3-1.3-0.8c-0.5-0.5-0.9-1.1-0.9-2.1
			c0-1.1,0.5-1.9,1.2-2.4c0.6-0.5,1.6-0.9,2.9-0.9s2.8,0.6,3.5,1.4l-1.1,1.8c-0.6-0.6-1.6-1.1-2.5-1.1s-1.5,0.3-1.5,1
			s0.6,0.9,1.1,1.1c0.5,0.2,1.3,0.5,1.7,0.6c0.3,0.1,1,0.4,1.5,0.9c0.5,0.5,0.9,1.1,0.9,2.1C150.3,256.5,149.8,257.5,149,258.1z"/>
		<path fill="#FFFFFF" d="M154.8,258.8h-2.6v-11.1h2.6V258.8z"/>
		<path fill="#FFFFFF" d="M167.4,257.1c-0.6,0.5-1.9,1.9-4.9,1.9c-3.1,0-5.8-2-5.8-5.7c0-3.7,2.7-5.7,5.8-5.7c2.9,0,4.2,1.5,4.6,1.9
			l-1.7,1.5c-0.5-0.5-1.3-1.3-2.9-1.3c-1.8,0-3.2,1.3-3.2,3.6s1.4,3.6,3.2,3.6s2.3-0.7,2.3-0.7v-1.6h-2.3v-2h4.9V257.1z"/>
		<path fill="#FFFFFF" d="M179.7,258.8h-2.7l-4.9-7.5c0,0,0,1.3,0,2.5v5h-2.5v-11.1h2.8l4.8,7.5c0,0,0-1.3,0-2.4v-5h2.5V258.8z"/>
	</g>
	<g>
		<path fill="#FFFFFF" d="M241.6,268.3h-3.6v2.2h3.3v1.7h-3.3v3.5h-2.1v-9.1h5.7V268.3z"/>
		<path fill="#FFFFFF" d="M250.3,275.7h-2.5l-1.9-3.5h-0.7v3.5h-2.1v-9.1h3.3c1,0,1.8,0.2,2.4,0.6c0.6,0.4,1,1.2,1,2.1
			c0,1.7-1.1,2.4-1.8,2.6L250.3,275.7z M247.2,268.5c-0.3-0.2-0.6-0.2-1.1-0.2h-0.8v2.3h0.8c0.5,0,0.8-0.1,1.1-0.3
			c0.3-0.2,0.5-0.4,0.5-0.9C247.6,269,247.5,268.7,247.2,268.5z"/>
		<path fill="#FFFFFF" d="M255.7,275.9c-2.7,0-4.8-1.8-4.8-4.7s2.1-4.7,4.8-4.7s4.8,1.8,4.8,4.7S258.4,275.9,255.7,275.9z
			 M255.7,268.3c-1.5,0-2.7,1.1-2.7,2.8s1.1,2.8,2.7,2.8s2.7-1.1,2.7-2.8C258.3,269.4,257.2,268.3,255.7,268.3z"/>
		<path fill="#FFFFFF" d="M270.3,275.7h-2.2l-4-6.2c0,0,0,1.1,0,2.1v4.1h-2.1v-9.1h2.3l3.9,6.1c0,0,0-1,0-2v-4.1h2.1V275.7z"/>
		<path fill="#FFFFFF" d="M278.2,268.3h-2.3v7.4h-2.1v-7.4h-2.3v-1.7h6.8V268.3z"/>
		<path fill="#FFFFFF" d="M285.4,275.7h-6v-9.1h5.9v1.7h-3.8v1.9h3.6v1.7h-3.6v2.1h3.9V275.7z"/>
		<path fill="#FFFFFF" d="M295.4,275.7h-2.2l-4-6.2c0,0,0,1.1,0,2.1v4.1h-2.1v-9.1h2.3l3.9,6.1c0,0,0-1,0-2v-4.1h2.1V275.7z"/>
		<path fill="#FFFFFF" d="M304,274.6c-0.8,0.6-1.9,1.1-3.5,1.1h-3.1v-9.1h3.1c1.6,0,2.8,0.4,3.5,1.1c0.8,0.6,1.5,1.7,1.5,3.5
			C305.5,272.9,304.8,274,304,274.6z M302.5,269c-0.4-0.4-1-0.6-1.9-0.6h-1.1v5.5h1.1c0.9,0,1.5-0.3,1.9-0.7c0.4-0.4,0.8-1,0.8-2.1
			C303.3,270,302.9,269.4,302.5,269z"/>
		<path fill="#FFFFFF" d="M264.9,290.5c-0.8,0.6-1.9,1.1-3.5,1.1h-3.1v-9.1h3.1c1.6,0,2.8,0.4,3.5,1.1c0.8,0.6,1.5,1.7,1.5,3.5
			C266.4,288.8,265.6,289.8,264.9,290.5z M263.4,284.9c-0.4-0.4-1-0.6-1.9-0.6h-1.1v5.5h1.1c0.9,0,1.5-0.3,1.9-0.7
			c0.4-0.4,0.8-1,0.8-2.1C264.2,285.9,263.8,285.2,263.4,284.9z"/>
		<path fill="#FFFFFF" d="M273.9,291.5h-6v-9.1h5.9v1.7H270v1.9h3.6v1.7H270v2.1h3.9V291.5z"/>
		<path fill="#FFFFFF" d="M283.5,282.4l-3.4,9.1h-2l-3.4-9.1h2.3l2.1,6.3l2.1-6.3H283.5z"/>
	</g>
	<g>
		<path fill="#FFFFFF" d="M226.9,169.3c-0.5,0.4-1.3,0.5-2.1,0.5h-3.4v-8.2h2.8c0.8,0,1.5,0.1,2,0.3c0.5,0.3,1,0.8,1,1.7
			s-0.6,1.6-1.2,1.8v0c1,0.3,1.7,0.9,1.7,2C227.8,168.4,227.4,168.9,226.9,169.3z M225,163.2c-0.2-0.1-0.4-0.2-0.9-0.2h-0.8v1.9h0.8
			c0.4,0,0.7,0,0.9-0.2c0.2-0.2,0.4-0.4,0.4-0.8C225.4,163.6,225.3,163.3,225,163.2z M225.5,166.5c-0.3-0.2-0.6-0.2-1-0.2h-1.1v2.1
			h1.1c0.4,0,0.7,0,1-0.2c0.3-0.2,0.4-0.5,0.4-0.8C225.9,166.9,225.7,166.7,225.5,166.5z"/>
		<path fill="#FFFFFF" d="M236.5,169.8h-2.1l-0.6-1.7h-2.9l-0.6,1.7h-2l3.1-8.2h2L236.5,169.8z M233.4,166.7l-1-3l-1,3H233.4z"/>
		<path fill="#FFFFFF" d="M244,168.8c-0.4,0.4-1.3,1.1-3,1.1c-2.4,0-4.3-1.6-4.3-4.2c0-2.7,1.9-4.2,4.3-4.2c1.7,0,2.6,0.7,2.8,0.9
			l-0.6,1.6c-0.2-0.2-1-0.9-2.1-0.9c-1.4,0-2.5,0.9-2.5,2.5s1.1,2.5,2.5,2.5c1,0,1.8-0.4,2.2-0.9L244,168.8z"/>
		<path fill="#FFFFFF" d="M252.2,169.8h-2.3l-2.1-3.4l-0.7,0.7v2.7h-1.9v-8.2h1.9v3l2.5-3h2.3l-2.9,3.3L252.2,169.8z"/>
		<path fill="#FFFFFF" d="M258.5,169.8h-5.4v-8.2h5.3v1.5H255v1.7h3.2v1.5H255v1.9h3.5V169.8z"/>
		<path fill="#FFFFFF" d="M267.5,169.8h-2l-3.6-5.6c0,0,0,1,0,1.9v3.7h-1.9v-8.2h2.1l3.5,5.5c0,0,0-0.9,0-1.8v-3.7h1.9V169.8z"/>
		<path fill="#FFFFFF" d="M275.3,168.8c-0.7,0.6-1.7,1-3.2,1h-2.8v-8.2h2.8c1.4,0,2.5,0.4,3.2,1c0.7,0.6,1.3,1.5,1.3,3.1
			S276,168.3,275.3,168.8z M274,163.8c-0.3-0.3-0.9-0.6-1.7-0.6h-1v5h1c0.8,0,1.4-0.3,1.7-0.6c0.3-0.3,0.7-0.9,0.7-1.9
			S274.3,164.1,274,163.8z"/>
		<path fill="#FFFFFF" d="M243.8,183.2c-0.7,0.6-1.7,1-3.2,1h-2.8v-8.2h2.8c1.4,0,2.5,0.4,3.2,1c0.7,0.6,1.3,1.5,1.3,3.1
			S244.5,182.6,243.8,183.2z M242.4,178.1c-0.3-0.3-0.9-0.6-1.7-0.6h-1v5h1c0.8,0,1.4-0.3,1.7-0.6c0.3-0.3,0.7-0.9,0.7-1.9
			S242.8,178.4,242.4,178.1z"/>
		<path fill="#FFFFFF" d="M252,184.1h-5.4v-8.2h5.3v1.5h-3.4v1.7h3.2v1.5h-3.2v1.9h3.5V184.1z"/>
		<path fill="#FFFFFF" d="M260.7,175.9l-3.1,8.2h-1.8l-3.1-8.2h2.1l1.9,5.7l1.9-5.7H260.7z"/>
	</g>
	<g>
		<path fill="#FFFFFF" d="M166.8,77.8c-0.7,0-1.2-0.4-1.2-1.1c0-0.6,0.5-1.1,1.2-1.1c0.7,0,1.2,0.4,1.2,1.1
			C168,77.4,167.5,77.8,166.8,77.8z M167.9,85.1h-2.1v-6.5h2.1V85.1z"/>
		<path fill="#FFFFFF" d="M174.1,85.2c-2.7,0-4.8-1.8-4.8-4.7s2.1-4.7,4.8-4.7c2.7,0,4.8,1.8,4.8,4.7S176.8,85.2,174.1,85.2z
			 M174.1,77.7c-1.5,0-2.7,1.1-2.7,2.8s1.1,2.8,2.7,2.8c1.5,0,2.7-1.1,2.7-2.8C176.8,78.8,175.6,77.7,174.1,77.7z"/>
		<path fill="#FFFFFF" d="M185.4,84.5c-0.6,0.5-1.5,0.8-2.5,0.8c-1.3,0-2.5-0.7-3.2-1.4l1.1-1.6c0.7,0.7,1.7,1.1,2.4,1.1
			c0.7,0,1.2-0.3,1.2-0.9c0-0.6-0.7-0.9-1.1-1c-0.4-0.1-1.1-0.4-1.4-0.5c-0.2-0.1-0.7-0.3-1.1-0.7c-0.4-0.4-0.7-0.9-0.7-1.8
			c0-0.9,0.4-1.6,0.9-2c0.5-0.4,1.3-0.7,2.4-0.7c1.1,0,2.3,0.5,2.9,1.1l-0.9,1.5c-0.5-0.5-1.3-0.9-2-0.9c-0.7,0-1.2,0.3-1.2,0.8
			s0.5,0.8,0.9,0.9c0.4,0.2,1.1,0.4,1.4,0.5c0.3,0.1,0.9,0.3,1.3,0.7c0.4,0.4,0.7,0.9,0.7,1.8C186.5,83.2,186.1,84,185.4,84.5z"/>
		<path fill="#FFFFFF" d="M197.5,84c-0.8,0.6-1.9,1.1-3.5,1.1h-3.1V76h3.1c1.6,0,2.8,0.4,3.5,1.1c0.8,0.6,1.5,1.7,1.5,3.5
			S198.2,83.3,197.5,84z M196,78.4c-0.4-0.4-1-0.6-1.9-0.6H193v5.5h1.1c0.9,0,1.5-0.3,1.9-0.7c0.4-0.4,0.8-1,0.8-2.1
			C196.8,79.4,196.3,78.8,196,78.4z"/>
		<path fill="#FFFFFF" d="M206.5,85.1h-6V76h5.9v1.7h-3.8v1.9h3.6v1.7h-3.6v2.1h3.9V85.1z"/>
		<path fill="#FFFFFF" d="M216.1,76l-3.4,9.1h-2l-3.4-9.1h2.3l2.1,6.3l2.1-6.3H216.1z"/>
	</g>
	<g>
		<path fill="#FFFFFF" d="M260.7,85.3H259l-1.3-2.4h-0.5v2.4h-1.5V79h2.2c0.7,0,1.2,0.1,1.6,0.4c0.4,0.3,0.7,0.8,0.7,1.4
			c0,1.2-0.8,1.6-1.2,1.8L260.7,85.3z M258.6,80.3c-0.2-0.1-0.4-0.2-0.7-0.2h-0.6v1.6h0.6c0.3,0,0.6,0,0.7-0.2
			c0.2-0.1,0.3-0.3,0.3-0.6C258.9,80.6,258.8,80.5,258.6,80.3z"/>
		<path fill="#FFFFFF" d="M265.7,85.3h-4.1V79h4v1.2H263v1.3h2.4v1.2H263v1.4h2.7V85.3z"/>
		<path fill="#FFFFFF" d="M270.4,84.9c-0.4,0.4-1,0.5-1.7,0.5c-0.9,0-1.7-0.5-2.2-0.9l0.7-1.1c0.5,0.5,1.1,0.8,1.6,0.8
			c0.5,0,0.8-0.2,0.8-0.6c0-0.4-0.5-0.6-0.7-0.7c-0.3-0.1-0.7-0.3-0.9-0.4c-0.2-0.1-0.5-0.2-0.7-0.5c-0.3-0.3-0.5-0.6-0.5-1.2
			c0-0.6,0.3-1.1,0.6-1.4c0.4-0.3,0.9-0.5,1.6-0.5s1.5,0.3,2,0.8l-0.6,1c-0.4-0.4-0.9-0.6-1.4-0.6c-0.5,0-0.8,0.2-0.8,0.6
			c0,0.4,0.4,0.5,0.6,0.6c0.3,0.1,0.7,0.3,0.9,0.4c0.2,0.1,0.6,0.2,0.9,0.5c0.3,0.3,0.5,0.6,0.5,1.2C271.1,84,270.8,84.5,270.4,84.9
			z"/>
		<path fill="#FFFFFF" d="M276.1,82.5c-0.4,0.3-1,0.5-1.6,0.5h-0.8v2.3h-1.5V79h2.2c0.6,0,1.2,0.1,1.6,0.5c0.4,0.3,0.6,0.8,0.6,1.5
			S276.5,82.1,276.1,82.5z M275,80.3c-0.2-0.1-0.4-0.2-0.7-0.2h-0.6v1.7h0.6c0.3,0,0.5,0,0.7-0.2c0.2-0.1,0.3-0.4,0.3-0.7
			S275.1,80.5,275,80.3z"/>
		<path fill="#FFFFFF" d="M280.8,85.4c-1.8,0-3.3-1.2-3.3-3.2c0-2,1.4-3.2,3.3-3.2c1.8,0,3.3,1.2,3.3,3.2
			C284.1,84.2,282.6,85.4,280.8,85.4z M280.8,80.2c-1,0-1.8,0.7-1.8,1.9c0,1.2,0.8,1.9,1.8,1.9c1,0,1.8-0.8,1.8-1.9
			C282.6,80.9,281.8,80.2,280.8,80.2z"/>
		<path fill="#FFFFFF" d="M290.8,85.3h-1.5l-2.7-4.2c0,0,0,0.7,0,1.4v2.8h-1.4V79h1.6l2.7,4.2c0,0,0-0.7,0-1.4V79h1.4V85.3z"/>
		<path fill="#FFFFFF" d="M295.8,84.9c-0.4,0.4-1,0.5-1.7,0.5c-0.9,0-1.7-0.5-2.2-0.9l0.7-1.1c0.5,0.5,1.1,0.8,1.6,0.8
			c0.5,0,0.8-0.2,0.8-0.6c0-0.4-0.5-0.6-0.7-0.7c-0.3-0.1-0.7-0.3-0.9-0.4c-0.2-0.1-0.5-0.2-0.7-0.5c-0.3-0.3-0.5-0.6-0.5-1.2
			c0-0.6,0.3-1.1,0.6-1.4c0.4-0.3,0.9-0.5,1.6-0.5s1.5,0.3,2,0.8l-0.6,1c-0.4-0.4-0.9-0.6-1.4-0.6c-0.5,0-0.8,0.2-0.8,0.6
			c0,0.4,0.4,0.5,0.6,0.6c0.3,0.1,0.7,0.3,0.9,0.4c0.2,0.1,0.6,0.2,0.9,0.5c0.3,0.3,0.5,0.6,0.5,1.2C296.5,84,296.2,84.5,295.8,84.9
			z"/>
		<path fill="#FFFFFF" d="M299.1,85.3h-1.5V79h1.5V85.3z"/>
		<path fill="#FFFFFF" d="M305.9,79l-2.3,6.2h-1.4l-2.3-6.2h1.5l1.5,4.3l1.4-4.3H305.9z"/>
		<path fill="#FFFFFF" d="M310.9,85.3h-4.1V79h4v1.2h-2.6v1.3h2.4v1.2h-2.4v1.4h2.7V85.3z"/>
		<path fill="#FFFFFF" d="M317.8,85.3h-1.5l-2.7-4.2c0,0,0,0.7,0,1.4v2.8h-1.4V79h1.6l2.7,4.2c0,0,0-0.7,0-1.4V79h1.4V85.3z"/>
		<path fill="#FFFFFF" d="M323.4,85.3h-4.1V79h4v1.2h-2.6v1.3h2.4v1.2h-2.4v1.4h2.7V85.3z"/>
		<path fill="#FFFFFF" d="M328.1,84.9c-0.4,0.4-1,0.5-1.7,0.5c-0.9,0-1.7-0.5-2.2-0.9l0.7-1.1c0.5,0.5,1.1,0.8,1.6,0.8
			c0.5,0,0.8-0.2,0.8-0.6c0-0.4-0.5-0.6-0.7-0.7c-0.3-0.1-0.7-0.3-0.9-0.4c-0.2-0.1-0.5-0.2-0.7-0.5c-0.3-0.3-0.5-0.6-0.5-1.2
			c0-0.6,0.3-1.1,0.6-1.4c0.4-0.3,0.9-0.5,1.6-0.5s1.5,0.3,2,0.8l-0.6,1c-0.4-0.4-0.9-0.6-1.4-0.6c-0.5,0-0.8,0.2-0.8,0.6
			c0,0.4,0.4,0.5,0.6,0.6c0.3,0.1,0.7,0.3,0.9,0.4c0.2,0.1,0.6,0.2,0.9,0.5c0.3,0.3,0.5,0.6,0.5,1.2C328.8,84,328.5,84.5,328.1,84.9
			z"/>
		<path fill="#FFFFFF" d="M333.3,84.9c-0.4,0.4-1,0.5-1.7,0.5c-0.9,0-1.7-0.5-2.2-0.9l0.7-1.1c0.5,0.5,1.1,0.8,1.6,0.8
			c0.5,0,0.8-0.2,0.8-0.6c0-0.4-0.5-0.6-0.7-0.7c-0.3-0.1-0.7-0.3-0.9-0.4c-0.2-0.1-0.5-0.2-0.7-0.5c-0.3-0.3-0.5-0.6-0.5-1.2
			c0-0.6,0.3-1.1,0.6-1.4c0.4-0.3,0.9-0.5,1.6-0.5s1.5,0.3,2,0.8l-0.6,1c-0.4-0.4-0.9-0.6-1.4-0.6c-0.5,0-0.8,0.2-0.8,0.6
			c0,0.4,0.4,0.5,0.6,0.6c0.3,0.1,0.7,0.3,0.9,0.4c0.2,0.1,0.6,0.2,0.9,0.5c0.3,0.3,0.5,0.6,0.5,1.2C334,84,333.8,84.5,333.3,84.9z"
			/>
	</g>
	<g>
		<path fill="#FFFFFF" d="M339.1,161.8c-2.9,0-5.2-1.9-5.2-5.1s2.3-5.1,5.2-5.1s5.2,1.9,5.2,5.1S342,161.8,339.1,161.8z
			 M339.1,153.6c-1.6,0-2.9,1.2-2.9,3.1c0,1.9,1.2,3.1,2.9,3.1s2.9-1.2,2.9-3.1C342,154.8,340.7,153.6,339.1,153.6z"/>
		<path fill="#FFFFFF" d="M354.1,151.8l-3.7,9.8h-2.2l-3.7-9.8h2.5l2.3,6.8l2.3-6.8H354.1z"/>
		<path fill="#FFFFFF" d="M361.7,161.7h-6.5v-9.8h6.4v1.8h-4.1v2h3.9v1.8h-3.9v2.3h4.2V161.7z"/>
		<path fill="#FFFFFF" d="M371.4,161.7h-2.7l-2.1-3.8h-0.7v3.8h-2.3v-9.8h3.5c1.1,0,2,0.2,2.6,0.7c0.7,0.5,1.1,1.3,1.1,2.3
			c0,1.9-1.2,2.6-1.9,2.8L371.4,161.7z M368,153.9c-0.3-0.2-0.7-0.3-1.2-0.3h-0.9v2.5h0.9c0.5,0,0.9-0.1,1.2-0.3
			c0.3-0.2,0.5-0.5,0.5-1C368.5,154.4,368.3,154.1,368,153.9z"/>
		<path fill="#FFFFFF" d="M381.9,161.7h-2.5l-0.7-2h-3.5l-0.7,2h-2.4l3.7-9.9h2.4L381.9,161.7z M378.2,157.9l-1.2-3.5l-1.2,3.5
			H378.2z"/>
		<path fill="#FFFFFF" d="M388.8,161.7h-5.7v-9.8h2.3v7.9h3.4V161.7z"/>
		<path fill="#FFFFFF" d="M395.7,161.7H390v-9.8h2.3v7.9h3.4V161.7z"/>
		<path fill="#FFFFFF" d="M355.4,177.6c-0.5,0.5-1.5,1.3-3.6,1.3c-2.9,0-5.2-1.9-5.2-5.1c0-3.2,2.3-5.1,5.2-5.1c2,0,3.1,0.8,3.4,1.1
			l-0.7,1.9c-0.2-0.2-1.2-1-2.5-1c-1.7,0-3,1.1-3,3c0,1.9,1.3,3,3,3c1.2,0,2.1-0.5,2.7-1L355.4,177.6z"/>
		<path fill="#FFFFFF" d="M361.4,179c-2.9,0-5.2-1.9-5.2-5.1s2.3-5.1,5.2-5.1s5.2,1.9,5.2,5.1S364.3,179,361.4,179z M361.4,170.8
			c-1.6,0-2.9,1.2-2.9,3.1s1.2,3.1,2.9,3.1s2.9-1.2,2.9-3.1C364.3,172,363,170.8,361.4,170.8z"/>
		<path fill="#FFFFFF" d="M373.6,178.1c-0.7,0.6-1.6,0.8-2.7,0.8c-1.4,0-2.7-0.7-3.5-1.5l1.1-1.7c0.7,0.7,1.8,1.2,2.6,1.2
			c0.7,0,1.3-0.4,1.3-1c0-0.7-0.7-0.9-1.2-1.1c-0.4-0.2-1.2-0.4-1.5-0.6c-0.2-0.1-0.7-0.3-1.2-0.7c-0.4-0.4-0.8-1-0.8-1.9
			c0-0.9,0.5-1.7,1-2.2c0.6-0.5,1.5-0.8,2.6-0.8c1.1,0,2.5,0.5,3.1,1.2l-1,1.6c-0.6-0.6-1.5-1-2.2-1c-0.7,0-1.3,0.3-1.3,0.9
			c0,0.6,0.6,0.8,1,1c0.4,0.2,1.2,0.4,1.5,0.6c0.3,0.1,0.9,0.4,1.4,0.8c0.4,0.4,0.8,1,0.8,1.9C374.8,176.7,374.3,177.6,373.6,178.1z
			"/>
		<path fill="#FFFFFF" d="M383,170.8h-2.5v8h-2.3v-8h-2.5v-1.8h7.4V170.8z"/>
	</g>
</g>
<rect x="261.6" y="-494.6" fill="none" width="115.4" height="28.4"/>
<text transform="matrix(1 0 0 1 278.0159 -484.2644)"><tspan x="0" y="0" fill="#FFFFFF" font-family="'Gibson-SemiBold'" font-size="15">Technical </tspan><tspan x="22.4" y="18" fill="#FFFFFF" font-family="'Gibson-SemiBold'" font-size="15">Skill</tspan></text>
<rect x="254.4" y="-351.9" fill="none" width="129.7" height="11.6"/>
<text transform="matrix(1 0 0 1 279.7547 -340.3117)" fill="#FFFFFF" font-family="'Gibson-SemiBold'" font-size="16.853">Product</text>
<rect x="135.8" y="-313.1" fill="none" width="115.4" height="28.4"/>
<text transform="matrix(1 0 0 1 152.8824 -302.7656)"><tspan x="0" y="0" fill="#FFFFFF" font-family="'Gibson-SemiBold'" font-size="15">Customer</tspan><tspan x="10.5" y="18" fill="#FFFFFF" font-family="'Gibson-SemiBold'" font-size="15">service</tspan></text>
<rect x="499.5" y="-328.4" fill="none" width="115.4" height="10.4"/>
<text transform="matrix(1 0 0 1 528.3893 -318.0087)" fill="#FFFFFF" font-family="'Gibson-SemiBold'" font-size="15">COMMS</text>
<rect x="377" y="-440.8" fill="none" width="147.2" height="36.2"/>
<text transform="matrix(1 0 0 1 408.6998 -427.6148)"><tspan x="0" y="0" fill="#FFFFFF" font-family="'Gibson-SemiBold'" font-size="19.1288">Overall</tspan><tspan x="11.6" y="23" fill="#FFFFFF" font-family="'Gibson-SemiBold'" font-size="19.1288">value</tspan></text>
<rect x="-145.7" y="-343.6" fill="none" width="124" height="30.5"/>
<text transform="matrix(1 0 0 1 -94.7244 -332.4977)"><tspan x="0" y="0" fill="#FFFFFF" font-family="'Gibson-SemiBold'" font-size="16.1136">UX</tspan><tspan x="-18.9" y="19.3" fill="#FFFFFF" font-family="'Gibson-SemiBold'" font-size="16.1136">Design</tspan></text>
<rect x="-14.7" y="-305.4" fill="none" width="101.5" height="25"/>
<text transform="matrix(1 0 0 1 0.6285 -296.2529)"><tspan x="0" y="0" fill="#FFFFFF" font-family="'Gibson-SemiBold'" font-size="13.1911">Frontend</tspan><tspan x="22.4" y="15.8" fill="#FFFFFF" font-family="'Gibson-SemiBold'" font-size="13.1911">dev</tspan></text>
<rect x="-31.5" y="-410.4" fill="none" width="91.8" height="22.6"/>
<text transform="matrix(1 0 0 1 -13.8541 -402.143)"><tspan x="0" y="0" fill="#FFFFFF" font-family="'Gibson-SemiBold'" font-size="11.9275">backend</tspan><tspan x="16.5" y="14.3" fill="#FFFFFF" font-family="'Gibson-SemiBold'" font-size="11.9275">dev</tspan></text>
<rect x="-94.6" y="-496" fill="none" width="101.3" height="9.3"/>
<text transform="matrix(1 0 0 1 -69.3986 -486.8953)" fill="#FFFFFF" font-family="'Gibson-SemiBold'" font-size="13.1656">iOS DEV</text>
<rect x="14.4" y="-492.9" fill="none" width="91.8" height="8.4"/>
<text transform="matrix(1 0 0 1 21.5519 -486.7077)" fill="#FFFFFF" font-family="'Gibson-SemiBold'" font-size="9">RESPONSIVENESS</text>
<rect x="75.3" y="-420.2" fill="none" width="109.8" height="27"/>
<text transform="matrix(1 0 0 1 99.0125 -410.3069)"><tspan x="0" y="0" fill="#FFFFFF" font-family="'Gibson-SemiBold'" font-size="14.2733">OVERALL</tspan><tspan x="12.8" y="17.1" fill="#FFFFFF" font-family="'Gibson-SemiBold'" font-size="14.2733">COST</tspan></text>
</svg>
