<?xml version="1.0" encoding="utf-8"?>
<!-- Generator: Adobe Illustrator 17.1.0, SVG Export Plug-In . SVG Version: 6.00 Build 0)  -->
<!DOCTYPE svg PUBLIC "-//W3C//DTD SVG 1.1//EN" "http://www.w3.org/Graphics/SVG/1.1/DTD/svg11.dtd">
<svg version="1.1" id="Layer_1" xmlns="http://www.w3.org/2000/svg" xmlns:xlink="http://www.w3.org/1999/xlink" x="0px" y="0px"
	 viewBox="0 0 931 483" enable-background="new 0 0 931 483" xml:space="preserve">
<g>
	<g>
		<g>
			<path fill="#EEEEEE" d="M70.6,441.8c-0.8,0.6-2,0.8-3.3,0.8H62v-12.9h4.4c1.2,0,2.3,0.1,3.2,0.5s1.6,1.3,1.6,2.7
				c0,1.4-0.9,2.5-1.9,2.8v0c1.6,0.4,2.7,1.5,2.7,3.1C72,440.4,71.4,441.2,70.6,441.8z M67.6,432.3c-0.4-0.2-0.7-0.3-1.3-0.3H65v3
				h1.2c0.7,0,1.1,0,1.4-0.3c0.4-0.3,0.6-0.6,0.6-1.2C68.2,432.9,68,432.5,67.6,432.3z M68.3,437.4c-0.4-0.3-1-0.4-1.6-0.4H65v3.3
				h1.7c0.7,0,1.2,0,1.6-0.4c0.4-0.3,0.7-0.7,0.7-1.3C68.9,438.2,68.7,437.8,68.3,437.4z"/>
			<path fill="#EEEEEE" d="M82.6,442.7h-8.5v-12.9h8.3v2.4h-5.3v2.6h5v2.4h-5v3h5.5V442.7z"/>
			<path fill="#EEEEEE" d="M93.5,432.2h-3.3v10.5h-3v-10.5h-3.3v-2.4h9.7V432.2z"/>
			<path fill="#EEEEEE" d="M103.8,432.2h-3.3v10.5h-3v-10.5h-3.3v-2.4h9.7V432.2z"/>
			<path fill="#EEEEEE" d="M114.1,442.7h-8.5v-12.9h8.3v2.4h-5.3v2.6h5v2.4h-5v3h5.5V442.7z"/>
			<path fill="#EEEEEE" d="M126.6,442.7h-3.5l-2.7-4.9h-1v4.9h-3v-12.9h4.6c1.4,0,2.6,0.3,3.4,0.9c0.9,0.6,1.4,1.7,1.4,3
				c0,2.4-1.6,3.4-2.5,3.7L126.6,442.7z M122.1,432.5c-0.4-0.3-0.9-0.3-1.6-0.3h-1.2v3.3h1.2c0.7,0,1.2-0.1,1.6-0.4
				c0.4-0.3,0.7-0.6,0.7-1.3C122.8,433.1,122.5,432.7,122.1,432.5z"/>
			<path fill="#EEEEEE" d="M140.8,432.2h-3.3v10.5h-3v-10.5h-3.3v-2.4h9.7V432.2z"/>
			<path fill="#EEEEEE" d="M153.7,442.7h-3v-5.4h-5.2v5.4h-3v-12.9h3v5h5.2v-5h3V442.7z"/>
			<path fill="#EEEEEE" d="M168.1,442.7h-3.3l-0.9-2.6h-4.6l-0.9,2.6h-3.1l4.9-12.9h3.1L168.1,442.7z M163.3,437.7l-1.6-4.6
				l-1.6,4.6H163.3z"/>
			<path fill="#EEEEEE" d="M181.4,442.7h-3.1l-5.7-8.7c0,0,0.1,1.5,0.1,2.9v5.8h-3v-12.9h3.2l5.5,8.7c0,0-0.1-1.5-0.1-2.8v-5.8h3
				V442.7z"/>
			<path fill="#EEEEEE" d="M199.9,442.7h-3.3l-0.9-2.6h-4.6l-0.9,2.6h-3.1l4.9-12.9h3.1L199.9,442.7z M195,437.7l-1.6-4.6l-1.6,4.6
				H195z"/>
			<path fill="#EEEEEE" d="M211.8,429.8l-4.8,12.9h-2.9l-4.8-12.9h3.2l3,8.9l3-8.9H211.8z"/>
			<path fill="#EEEEEE" d="M221.8,442.7h-8.5v-12.9h8.3v2.4h-5.3v2.6h5v2.4h-5v3h5.5V442.7z"/>
			<path fill="#EEEEEE" d="M234.4,442.7h-3.5l-2.7-4.9h-1v4.9h-3v-12.9h4.6c1.4,0,2.6,0.3,3.4,0.9c0.9,0.6,1.4,1.7,1.4,3
				c0,2.4-1.6,3.4-2.5,3.7L234.4,442.7z M229.9,432.5c-0.4-0.3-0.9-0.3-1.6-0.3h-1.2v3.3h1.2c0.7,0,1.2-0.1,1.6-0.4
				c0.4-0.3,0.7-0.6,0.7-1.3C230.6,433.1,230.3,432.7,229.9,432.5z"/>
			<path fill="#EEEEEE" d="M247.4,442.7h-3.3l-0.9-2.6h-4.6l-0.9,2.6h-3.1l4.9-12.9h3.1L247.4,442.7z M242.6,437.7l-1.6-4.6
				l-1.6,4.6H242.6z"/>
			<path fill="#EEEEEE" d="M260.4,440.7c-0.7,0.6-2.2,2.2-5.7,2.2c-3.6,0-6.7-2.4-6.7-6.6s3.1-6.6,6.7-6.6c3.4,0,4.9,1.8,5.3,2.2
				l-2,1.7c-0.5-0.6-1.6-1.5-3.3-1.5c-2.1,0-3.7,1.5-3.7,4.1c0,2.6,1.6,4.1,3.7,4.1s2.7-0.8,2.7-0.8v-1.9h-2.7v-2.3h5.7V440.7z"/>
			<path fill="#EEEEEE" d="M271.5,442.7H263v-12.9h8.3v2.4H266v2.6h5v2.4h-5v3h5.5V442.7z"/>
		</g>
	</g>
	<g>
		<g>
			<path fill="#EEEEEE" d="M435.5,441.8c-0.8,0.6-2,0.8-3.3,0.8h-5.3v-12.9h4.4c1.2,0,2.3,0.1,3.2,0.5s1.6,1.3,1.6,2.7
				c0,1.4-0.9,2.5-1.9,2.8v0c1.6,0.4,2.7,1.5,2.7,3.1C436.9,440.4,436.3,441.2,435.5,441.8z M432.5,432.3c-0.4-0.2-0.7-0.3-1.3-0.3
				h-1.3v3h1.2c0.7,0,1.1,0,1.4-0.3c0.4-0.3,0.6-0.6,0.6-1.2C433.2,432.9,432.9,432.5,432.5,432.3z M433.2,437.4
				c-0.4-0.3-1-0.4-1.6-0.4h-1.7v3.3h1.7c0.7,0,1.2,0,1.6-0.4c0.4-0.3,0.7-0.7,0.7-1.3C433.9,438.2,433.7,437.8,433.2,437.4z"/>
			<path fill="#EEEEEE" d="M447.6,442.7H439v-12.9h8.3v2.4H442v2.6h5v2.4h-5v3h5.5V442.7z"/>
			<path fill="#EEEEEE" d="M457.1,441.8c-0.9,0.7-2.1,1.1-3.5,1.1c-1.9,0-3.5-1-4.6-1.9l1.5-2.2c0.9,1,2.4,1.6,3.4,1.6
				c1,0,1.7-0.5,1.7-1.3c0-0.9-1-1.2-1.5-1.4c-0.6-0.2-1.5-0.5-2-0.7c-0.3-0.1-1-0.4-1.5-0.9c-0.6-0.5-1-1.3-1-2.5
				c0-1.2,0.6-2.2,1.3-2.8c0.7-0.6,1.9-1,3.4-1s3.2,0.7,4.1,1.6l-1.3,2.1c-0.7-0.7-1.9-1.3-2.9-1.3c-1,0-1.7,0.4-1.7,1.2
				c0,0.8,0.7,1.1,1.3,1.3c0.6,0.2,1.5,0.6,1.9,0.7c0.4,0.1,1.2,0.5,1.8,1c0.5,0.5,1,1.3,1,2.5C458.6,440,458,441.1,457.1,441.8z"/>
			<path fill="#EEEEEE" d="M469,432.2h-3.3v10.5h-3v-10.5h-3.3v-2.4h9.7V432.2z"/>
			<path fill="#EEEEEE" d="M477.9,442.7h-3v-12.9h3V442.7z"/>
			<path fill="#EEEEEE" d="M492.4,442.7h-3.1l-5.7-8.7c0,0,0.1,1.5,0.1,2.9v5.8h-3v-12.9h3.2l5.5,8.7c0,0-0.1-1.5-0.1-2.8v-5.8h3
				V442.7z"/>
			<path fill="#EEEEEE" d="M508,441.8c-0.8,0.6-2,0.8-3.3,0.8h-5.3v-12.9h4.4c1.2,0,2.3,0.1,3.2,0.5s1.6,1.3,1.6,2.7
				c0,1.4-0.9,2.5-1.9,2.8v0c1.6,0.4,2.7,1.5,2.7,3.1C509.4,440.4,508.8,441.2,508,441.8z M505,432.3c-0.4-0.2-0.7-0.3-1.3-0.3h-1.3
				v3h1.2c0.7,0,1.1,0,1.4-0.3c0.4-0.3,0.6-0.6,0.6-1.2C505.6,432.9,505.4,432.5,505,432.3z M505.7,437.4c-0.4-0.3-1-0.4-1.6-0.4
				h-1.7v3.3h1.7c0.7,0,1.2,0,1.6-0.4c0.4-0.3,0.7-0.7,0.7-1.3C506.3,438.2,506.1,437.8,505.7,437.4z"/>
			<path fill="#EEEEEE" d="M521.7,442.7h-3.5l-2.7-4.9h-1v4.9h-3v-12.9h4.6c1.4,0,2.6,0.3,3.4,0.9c0.9,0.6,1.4,1.7,1.4,3
				c0,2.4-1.6,3.4-2.5,3.7L521.7,442.7z M517.2,432.5c-0.4-0.3-0.9-0.3-1.5-0.3h-1.2v3.3h1.2c0.7,0,1.2-0.1,1.5-0.4
				c0.4-0.3,0.7-0.6,0.7-1.3C517.9,433.1,517.6,432.7,517.2,432.5z"/>
			<path fill="#EEEEEE" d="M531.7,442.7h-8.5v-12.9h8.3v2.4h-5.3v2.6h5v2.4h-5v3h5.5V442.7z"/>
			<path fill="#EEEEEE" d="M542.5,442.7H534v-12.9h8.3v2.4H537v2.6h5v2.4h-5v3h5.5V442.7z"/>
			<path fill="#EEEEEE" d="M554.2,441.1c-1.1,0.9-2.7,1.5-5,1.5h-4.4v-12.9h4.4c2.2,0,3.9,0.6,5,1.5c1.1,0.9,2.1,2.4,2.1,4.9
				S555.3,440.2,554.2,441.1z M552.1,433.2c-0.5-0.5-1.4-0.9-2.7-0.9h-1.5v7.8h1.5c1.3,0,2.1-0.4,2.7-0.9c0.5-0.5,1.1-1.4,1.1-3
				S552.6,433.7,552.1,433.2z"/>
		</g>
	</g>
</g>
<circle fill="none" stroke="#F9F1C3" stroke-miterlimit="10" cx="553.8" cy="90.1" r="57.7"/>
<g>
	<path fill="#F9F1C3" d="M521.4,77.1h-2.9v9.1H517v-9.1h-2.9v-1.2h7.3V77.1z"/>
	<path fill="#F9F1C3" d="M529.1,86.2h-6.2V75.9h6.1v1.2h-4.6v3.1h4.4v1.2h-4.4V85h4.7V86.2z"/>
	<path fill="#F9F1C3" d="M539.4,84.9c-0.6,0.7-1.8,1.5-3.8,1.5c-3,0-5.3-2.1-5.3-5.3c0-3.2,2.3-5.3,5.3-5.3c1.9,0,3.1,0.8,3.7,1.4
		l-0.6,1.2c-0.4-0.5-1.6-1.3-3-1.3c-2.2,0-3.9,1.6-3.9,4c0,2.4,1.6,4,3.9,4c1.4,0,2.4-0.5,3.1-1.3L539.4,84.9z"/>
	<path fill="#F9F1C3" d="M549.6,86.2h-1.5v-4.8h-5.5v4.8h-1.5V75.9h1.5v4.3h5.5v-4.3h1.5V86.2z"/>
	<path fill="#F9F1C3" d="M561,86.2h-1.4l-6-8.2c0,0,0,1.4,0,2.7v5.5h-1.4V75.9h1.5l5.9,8.1c0,0,0-1.3,0-2.6v-5.5h1.4V86.2z"/>
	<path fill="#F9F1C3" d="M565.1,86.2h-1.5V75.9h1.5V86.2z"/>
	<path fill="#F9F1C3" d="M576.3,84.9c-0.6,0.7-1.8,1.5-3.8,1.5c-3,0-5.3-2.1-5.3-5.3c0-3.2,2.3-5.3,5.3-5.3c1.9,0,3.1,0.8,3.7,1.4
		l-0.6,1.2c-0.4-0.5-1.6-1.3-3-1.3c-2.2,0-3.9,1.6-3.9,4c0,2.4,1.6,4,3.9,4c1.4,0,2.4-0.5,3.1-1.3L576.3,84.9z"/>
	<path fill="#F9F1C3" d="M586.8,86.2h-1.6l-1.1-2.7h-4.4l-1.1,2.7h-1.5l4.2-10.4h1.3L586.8,86.2z M583.8,82.3l-1.8-4.6l-1.8,4.6
		H583.8z"/>
	<path fill="#F9F1C3" d="M593.4,86.2h-5.1V75.9h1.5V85h3.6V86.2z"/>
	<path fill="#F9F1C3" d="M542.9,103.6c-0.6,0.5-1.5,0.8-2.5,0.8c-1.8,0-2.8-1.2-3.3-1.7l0.9-1c0.5,0.7,1.5,1.5,2.6,1.5s2-0.6,2-1.7
		c0-1.1-1.2-1.5-1.7-1.7c-0.5-0.2-1.3-0.5-1.7-0.7c-0.2-0.1-0.7-0.3-1-0.7c-0.4-0.4-0.7-1-0.7-1.8s0.4-1.5,0.9-2
		c0.6-0.5,1.4-0.8,2.4-0.8c1.7,0,2.7,1,3,1.3l-0.8,1c-0.5-0.5-1.3-1.1-2.3-1.1c-1,0-1.8,0.5-1.8,1.4s0.7,1.3,1.3,1.6l1.9,0.8
		c0.2,0.1,0.8,0.4,1.2,0.8c0.3,0.4,0.6,1,0.6,1.7C544,102.3,543.6,103.1,542.9,103.6z"/>
	<path fill="#F9F1C3" d="M553.7,104.2h-1.8l-3.4-5.2l-1.1,1.1v4.1H546V93.9h1.5v4.4l4.2-4.4h1.8l-3.9,4.1L553.7,104.2z"/>
	<path fill="#F9F1C3" d="M556.6,104.2h-1.5V93.9h1.5V104.2z"/>
	<path fill="#F9F1C3" d="M564.3,104.2h-5.1V93.9h1.5v9.1h3.6V104.2z"/>
	<path fill="#F9F1C3" d="M570.9,104.2h-5.1V93.9h1.5v9.1h3.6V104.2z"/>
</g>
<circle fill="none" stroke="#F9F1C3" stroke-miterlimit="10" cx="553.8" cy="224.4" r="64.8"/>
<g>
	<path fill="#F9F1C3" d="M523.1,224.4c-0.7,0.6-1.7,0.8-2.8,0.8h-1.6v5h-1.6v-11.6h3.3c1.1,0,2.1,0.2,2.8,0.8
		c0.7,0.6,1.1,1.4,1.1,2.5C524.3,223,523.9,223.8,523.1,224.4z M521.9,220.4c-0.4-0.3-0.9-0.5-1.7-0.5h-1.5v4h1.5
		c0.7,0,1.3-0.2,1.7-0.4c0.4-0.3,0.7-0.8,0.7-1.5C522.6,221.2,522.3,220.6,521.9,220.4z"/>
	<path fill="#F9F1C3" d="M534,230.2h-2l-3-5h-1.2v5h-1.6v-11.6h3.3c1.2,0,2.1,0.3,2.8,0.8c0.7,0.6,1.1,1.4,1.1,2.5
		c0,2-1.4,2.9-2.6,3.2L534,230.2z M530.9,220.3c-0.5-0.4-1.1-0.4-2-0.4h-1.2v3.9h1.2c0.8,0,1.4,0,2-0.4c0.5-0.4,0.7-0.9,0.7-1.6
		C531.7,221.2,531.5,220.7,530.9,220.3z"/>
	<path fill="#F9F1C3" d="M540.9,230.4c-3.3,0-6-2.3-6-6s2.7-6,6-6c3.3,0,6,2.3,6,6S544.1,230.4,540.9,230.4z M540.9,219.8
		c-2.4,0-4.3,1.7-4.3,4.5c0,2.8,2,4.5,4.3,4.5c2.4,0,4.3-1.7,4.3-4.5C545.2,221.5,543.3,219.8,540.9,219.8z"/>
	<path fill="#F9F1C3" d="M557,228.7c-0.8,0.8-2.3,1.5-4.3,1.5h-3.5v-11.6h3.5c2,0,3.5,0.7,4.3,1.5c0.8,0.8,1.8,2.1,1.8,4.3
		S557.9,227.9,557,228.7z M555.8,221c-0.6-0.6-1.7-1.1-3.1-1.1h-1.9v8.8h1.9c1.4,0,2.5-0.5,3.1-1.1s1.4-1.6,1.4-3.3
		S556.4,221.7,555.8,221z"/>
	<path fill="#F9F1C3" d="M569.8,225.4c0,1.4-0.1,2.6-0.9,3.5c-0.8,0.9-2,1.4-3.5,1.4c-1.5,0-2.7-0.5-3.5-1.4
		c-0.8-0.9-0.9-2.1-0.9-3.5v-6.9h1.7v6.7c0,1,0,1.9,0.5,2.6c0.5,0.6,1.2,1,2.2,1c1,0,1.8-0.4,2.2-1c0.5-0.7,0.5-1.7,0.5-2.6v-6.7
		h1.6V225.4z"/>
	<path fill="#F9F1C3" d="M582.2,228.7c-0.7,0.8-2,1.7-4.2,1.7c-3.4,0-5.9-2.4-5.9-6s2.6-6,5.9-6c2.2,0,3.5,0.9,4.1,1.5l-0.7,1.3
		c-0.5-0.6-1.8-1.4-3.4-1.4c-2.5,0-4.3,1.8-4.3,4.5c0,2.7,1.8,4.5,4.3,4.5c1.5,0,2.7-0.6,3.5-1.4L582.2,228.7z"/>
	<path fill="#F9F1C3" d="M591.6,219.9h-3.3v10.3h-1.6v-10.3h-3.3v-1.4h8.2V219.9z"/>
</g>
<circle fill="none" stroke="#F9F1C3" stroke-miterlimit="10" cx="428" cy="271.6" r="57.7"/>
<g>
	<path fill="#F9F1C3" d="M398.8,266.4c-0.6,0.7-1.8,1.5-3.8,1.5c-3,0-5.3-2.1-5.3-5.3c0-3.2,2.3-5.3,5.3-5.3c1.9,0,3.1,0.8,3.7,1.4
		l-0.6,1.2c-0.4-0.5-1.6-1.3-3-1.3c-2.2,0-3.9,1.6-3.9,4s1.6,4,3.9,4c1.4,0,2.4-0.5,3.1-1.3L398.8,266.4z"/>
	<path fill="#F9F1C3" d="M408.2,263.5c0,1.3-0.1,2.3-0.8,3.1c-0.7,0.8-1.7,1.3-3.1,1.3c-1.4,0-2.4-0.5-3.1-1.3
		c-0.7-0.8-0.8-1.9-0.8-3.1v-6.1h1.5v6c0,0.9,0,1.7,0.5,2.3c0.4,0.6,1.1,0.9,2,0.9s1.6-0.3,2-0.9c0.5-0.6,0.5-1.5,0.5-2.3v-6h1.5
		V263.5z"/>
	<path fill="#F9F1C3" d="M415.8,267.1c-0.6,0.5-1.5,0.8-2.5,0.8c-1.8,0-2.9-1.2-3.3-1.7l0.9-1c0.5,0.7,1.5,1.5,2.6,1.5s2-0.6,2-1.7
		c0-1.1-1.2-1.5-1.7-1.7c-0.5-0.2-1.3-0.5-1.6-0.7c-0.2-0.1-0.7-0.3-1-0.7c-0.4-0.4-0.7-1-0.7-1.8s0.4-1.5,0.9-2
		c0.6-0.5,1.4-0.8,2.4-0.8c1.7,0,2.7,1,3,1.3l-0.8,1c-0.5-0.5-1.3-1.1-2.3-1.1s-1.8,0.5-1.8,1.4s0.7,1.3,1.3,1.6l1.9,0.8
		c0.2,0.1,0.8,0.4,1.2,0.8c0.3,0.4,0.6,1,0.6,1.7C416.9,265.8,416.5,266.6,415.8,267.1z"/>
	<path fill="#F9F1C3" d="M425.3,258.6h-2.9v9.1h-1.5v-9.1H418v-1.2h7.3V258.6z"/>
	<path fill="#F9F1C3" d="M431.2,267.9c-2.9,0-5.3-2-5.3-5.3c0-3.3,2.4-5.3,5.3-5.3c2.9,0,5.3,2,5.3,5.3
		C436.5,265.9,434.1,267.9,431.2,267.9z M431.2,258.5c-2.1,0-3.9,1.5-3.9,4c0,2.5,1.8,4,3.9,4c2.1,0,3.9-1.5,3.9-4
		C435,260,433.3,258.5,431.2,258.5z"/>
	<path fill="#F9F1C3" d="M449.5,267.7h-1.4l-0.7-8.2h0l-3.2,8.3h-0.8l-3.2-8.3h0l-0.7,8.2H438l0.9-10.3h1.8l3,8h0l3-8h1.8
		L449.5,267.7z"/>
	<path fill="#F9F1C3" d="M457.9,267.7h-6.2v-10.3h6.1v1.2h-4.6v3.1h4.4v1.2h-4.4v3.6h4.7V267.7z"/>
	<path fill="#F9F1C3" d="M466.9,267.7h-1.8l-2.7-4.5h-1.1v4.5h-1.5v-10.3h2.9c1,0,1.9,0.2,2.5,0.7c0.6,0.5,1,1.2,1,2.2
		c0,1.8-1.3,2.6-2.4,2.8L466.9,267.7z M464.2,259c-0.5-0.3-1-0.4-1.7-0.4h-1.1v3.5h1.1c0.7,0,1.3,0,1.7-0.4c0.5-0.3,0.7-0.8,0.7-1.4
		C464.8,259.7,464.6,259.3,464.2,259z"/>
	<path fill="#F9F1C3" d="M406.2,285.1c-0.6,0.5-1.5,0.8-2.5,0.8c-1.8,0-2.9-1.2-3.3-1.7l0.9-1c0.5,0.7,1.5,1.5,2.6,1.5s2-0.6,2-1.7
		c0-1.1-1.2-1.5-1.7-1.7c-0.5-0.2-1.3-0.5-1.6-0.7c-0.2-0.1-0.7-0.3-1-0.7c-0.4-0.4-0.7-1-0.7-1.8s0.4-1.5,0.9-2
		c0.6-0.5,1.4-0.8,2.4-0.8c1.7,0,2.7,1,3,1.3l-0.8,1c-0.5-0.5-1.3-1.1-2.3-1.1s-1.8,0.5-1.8,1.4s0.7,1.3,1.3,1.6l1.9,0.8
		c0.2,0.1,0.8,0.4,1.2,0.8c0.3,0.4,0.6,1,0.6,1.7C407.2,283.8,406.8,284.6,406.2,285.1z"/>
	<path fill="#F9F1C3" d="M415.5,285.7h-6.2v-10.3h6.1v1.2h-4.6v3.1h4.4v1.2h-4.4v3.6h4.7V285.7z"/>
	<path fill="#F9F1C3" d="M424.5,285.7h-1.8l-2.7-4.5h-1.1v4.5h-1.5v-10.3h2.9c1,0,1.9,0.2,2.5,0.7c0.6,0.5,1,1.2,1,2.2
		c0,1.8-1.3,2.6-2.4,2.8L424.5,285.7z M421.7,277c-0.5-0.3-1-0.4-1.7-0.4h-1.1v3.5h1.1c0.7,0,1.3,0,1.7-0.4c0.5-0.3,0.7-0.8,0.7-1.4
		C422.4,277.7,422.2,277.3,421.7,277z"/>
	<path fill="#F9F1C3" d="M433.6,275.4l-3.8,10.4h-1.3l-3.8-10.4h1.6l2.9,8.2l2.9-8.2H433.6z"/>
	<path fill="#F9F1C3" d="M436.5,285.7h-1.5v-10.3h1.5V285.7z"/>
	<path fill="#F9F1C3" d="M447.7,284.4c-0.6,0.7-1.8,1.5-3.8,1.5c-3,0-5.3-2.1-5.3-5.3c0-3.2,2.3-5.3,5.3-5.3c1.9,0,3.1,0.8,3.7,1.4
		l-0.6,1.2c-0.4-0.5-1.6-1.3-3-1.3c-2.2,0-3.9,1.6-3.9,4s1.6,4,3.9,4c1.4,0,2.4-0.5,3.1-1.3L447.7,284.4z"/>
	<path fill="#F9F1C3" d="M455.6,285.7h-6.2v-10.3h6.1v1.2h-4.6v3.1h4.4v1.2h-4.4v3.6h4.7V285.7z"/>
</g>
<g>
	<circle fill="none" stroke="#F9F1C3" stroke-miterlimit="10" cx="791.7" cy="247.3" r="57.7"/>
</g>
<g>
	<path fill="#F9F1C3" d="M773.1,251.1c-0.6,0.7-1.8,1.5-3.8,1.5c-3,0-5.3-2.1-5.3-5.3c0-3.2,2.3-5.3,5.3-5.3c1.9,0,3.1,0.8,3.7,1.4
		l-0.6,1.2c-0.4-0.5-1.6-1.3-3-1.3c-2.2,0-3.9,1.6-3.9,4s1.6,4,3.9,4c1.4,0,2.4-0.5,3.1-1.3L773.1,251.1z"/>
	<path fill="#F9F1C3" d="M779.4,252.7c-2.9,0-5.3-2-5.3-5.3c0-3.3,2.4-5.3,5.3-5.3s5.3,2,5.3,5.3
		C784.7,250.7,782.3,252.7,779.4,252.7z M779.4,243.3c-2.1,0-3.9,1.5-3.9,4c0,2.5,1.8,4,3.9,4c2.1,0,3.9-1.5,3.9-4
		C783.2,244.8,781.5,243.3,779.4,243.3z"/>
	<path fill="#F9F1C3" d="M797.7,252.5h-1.4l-0.7-8.2h0l-3.2,8.3h-0.8l-3.2-8.3h0l-0.7,8.2h-1.4l0.9-10.3h1.8l3,8h0l3-8h1.8
		L797.7,252.5z"/>
	<path fill="#F9F1C3" d="M811,252.5h-1.4l-0.7-8.2h0l-3.2,8.3h-0.8l-3.2-8.3h0l-0.7,8.2h-1.4l0.9-10.3h1.8l3,8h0l3-8h1.8L811,252.5z
		"/>
	<path fill="#F9F1C3" d="M818.3,251.9c-0.6,0.5-1.5,0.8-2.5,0.8c-1.8,0-2.8-1.2-3.3-1.7l0.9-1c0.5,0.7,1.5,1.5,2.6,1.5s2-0.6,2-1.7
		c0-1.1-1.2-1.5-1.7-1.7c-0.5-0.2-1.3-0.5-1.7-0.7c-0.2-0.1-0.7-0.3-1-0.7c-0.4-0.4-0.7-1-0.7-1.8s0.4-1.5,0.9-2
		c0.6-0.5,1.4-0.8,2.4-0.8c1.7,0,2.7,1,3,1.3l-0.8,1c-0.5-0.5-1.3-1.1-2.3-1.1c-1,0-1.8,0.5-1.8,1.4s0.7,1.3,1.3,1.6l1.9,0.8
		c0.2,0.1,0.8,0.4,1.2,0.8c0.3,0.4,0.6,1,0.6,1.7C819.4,250.5,819,251.3,818.3,251.9z"/>
</g>
<circle fill="none" stroke="#F9F1C3" stroke-miterlimit="10" cx="685.1" cy="147.8" r="73.6"/>
<g>
	<path fill="#F9F1C3" d="M653.5,143.1c-3.7,0-6.8-2.6-6.8-6.8s3.1-6.8,6.8-6.8c3.7,0,6.8,2.6,6.8,6.8S657.3,143.1,653.5,143.1z
		 M653.5,131.1c-2.7,0-4.9,1.9-4.9,5.2c0,3.2,2.2,5.2,4.9,5.2c2.7,0,4.9-2,4.9-5.2C658.5,133,656.2,131.1,653.5,131.1z"/>
	<path fill="#F9F1C3" d="M672.4,129.7l-4.9,13.2h-1.6l-4.9-13.2h2l3.7,10.5l3.7-10.5H672.4z"/>
	<path fill="#F9F1C3" d="M682.1,142.9h-7.9v-13.2h7.7v1.5h-5.9v3.9h5.5v1.5h-5.5v4.6h6V142.9z"/>
	<path fill="#F9F1C3" d="M693.6,142.9h-2.2l-3.4-5.7h-1.4v5.7h-1.9v-13.2h3.7c1.3,0,2.4,0.3,3.2,0.9c0.8,0.6,1.3,1.6,1.3,2.8
		c0,2.3-1.6,3.3-3,3.6L693.6,142.9z M690.1,131.7c-0.6-0.4-1.3-0.5-2.2-0.5h-1.4v4.5h1.4c0.9,0,1.6,0,2.2-0.5c0.6-0.4,0.8-1,0.8-1.8
		C690.9,132.7,690.7,132.1,690.1,131.7z"/>
	<path fill="#F9F1C3" d="M707.1,142.9h-2.1l-1.4-3.4H698l-1.4,3.4h-2l5.4-13.2h1.6L707.1,142.9z M703.2,137.9l-2.3-5.9l-2.3,5.9
		H703.2z"/>
	<path fill="#F9F1C3" d="M715.5,142.9H709v-13.2h1.9v11.6h4.6V142.9z"/>
	<path fill="#F9F1C3" d="M723.9,142.9h-6.5v-13.2h1.9v11.6h4.6V142.9z"/>
	<path fill="#F9F1C3" d="M668.9,152.6l-4.9,13.2h-1.6l-4.9-13.2h2l3.7,10.5l3.7-10.5H668.9z"/>
	<path fill="#F9F1C3" d="M680.7,165.8h-2.1l-1.4-3.4h-5.7l-1.4,3.4h-2l5.4-13.2h1.6L680.7,165.8z M676.8,160.9l-2.3-5.9l-2.3,5.9
		H676.8z"/>
	<path fill="#F9F1C3" d="M689.1,165.8h-6.5v-13.2h1.9v11.6h4.6V165.8z"/>
	<path fill="#F9F1C3" d="M700.7,160.5c0,1.6-0.2,2.9-1.1,4c-0.9,1-2.2,1.6-4,1.6c-1.8,0-3.1-0.6-4-1.6c-0.9-1.1-1.1-2.4-1.1-4v-7.8
		h1.9v7.6c0,1.1,0,2.2,0.6,3c0.5,0.7,1.4,1.2,2.5,1.2c1.1,0,2-0.4,2.5-1.2c0.6-0.8,0.6-1.9,0.6-3v-7.6h1.9V160.5z"/>
	<path fill="#F9F1C3" d="M711.8,165.8h-7.9v-13.2h7.7v1.5h-5.9v3.9h5.5v1.5h-5.5v4.6h6V165.8z"/>
</g>
<circle fill="none" stroke="#F9F1C3" stroke-miterlimit="10" cx="150.8" cy="242.1" r="62"/>
<g>
	<path fill="#F9F1C3" d="M150.2,233.5c0,1.4-0.1,2.5-0.9,3.4c-0.8,0.9-1.9,1.4-3.3,1.4c-1.5,0-2.6-0.5-3.3-1.4
		c-0.8-0.9-0.9-2-0.9-3.4v-6.6h1.6v6.4c0,0.9,0,1.8,0.5,2.5c0.5,0.6,1.2,1,2.1,1s1.7-0.4,2.1-1c0.5-0.7,0.5-1.6,0.5-2.5v-6.4h1.6
		V233.5z"/>
	<path fill="#F9F1C3" d="M161,238h-1.9l-2.8-4.7l-2.8,4.7h-1.9l3.7-5.7l-3.4-5.4h1.8l2.6,4.3l2.6-4.3h1.8l-3.4,5.4L161,238z"/>
	<path fill="#F9F1C3" d="M130.6,255.9c-0.8,0.7-2.2,1.5-4.2,1.5h-3.4v-11.1h3.4c1.9,0,3.4,0.7,4.2,1.5s1.7,2,1.7,4.1
		C132.3,253.9,131.4,255.2,130.6,255.9z M129.4,248.6c-0.6-0.6-1.6-1-3-1h-1.8v8.4h1.8c1.4,0,2.4-0.5,3-1s1.3-1.6,1.3-3.2
		S130,249.2,129.4,248.6z"/>
	<path fill="#F9F1C3" d="M141.1,257.3h-6.6v-11.1h6.5v1.3h-4.9v3.3h4.7v1.3h-4.7v3.9h5.1V257.3z"/>
	<path fill="#F9F1C3" d="M149,256.7c-0.7,0.6-1.6,0.9-2.7,0.9c-1.9,0-3.1-1.3-3.6-1.9l0.9-1c0.6,0.8,1.6,1.6,2.8,1.6
		s2.2-0.7,2.2-1.9c0-1.2-1.2-1.6-1.8-1.8c-0.6-0.2-1.4-0.5-1.8-0.7c-0.2-0.1-0.7-0.4-1.1-0.8c-0.4-0.4-0.7-1-0.7-1.9s0.4-1.6,1-2.1
		c0.6-0.5,1.5-0.8,2.6-0.8c1.8,0,2.9,1.1,3.2,1.4l-0.8,1.1c-0.5-0.6-1.4-1.2-2.4-1.2s-1.9,0.5-1.9,1.5s0.8,1.4,1.4,1.7l2,0.9
		c0.2,0.1,0.9,0.5,1.3,0.9c0.4,0.4,0.7,1,0.7,1.9C150.2,255.2,149.7,256.1,149,256.7z"/>
	<path fill="#F9F1C3" d="M153.9,257.3h-1.6v-11.1h1.6V257.3z"/>
	<path fill="#F9F1C3" d="M166.5,255.7c-0.2,0.2-1.6,1.8-4.7,1.8c-3.2,0-5.7-2.3-5.7-5.8c0-3.5,2.5-5.7,5.7-5.7
		c2.9,0,4.1,1.5,4.5,1.9l-1.1,1c-0.7-0.8-1.7-1.6-3.4-1.6c-2.3,0-4,1.6-4,4.4c0,2.7,1.8,4.4,4.1,4.4c2.3,0,3.1-1,3.1-1v-2.5h-3v-1.3
		h4.5V255.7z"/>
	<path fill="#F9F1C3" d="M178.5,257.3H177l-6.4-8.9c0,0,0,1.5,0,2.9v5.9h-1.5v-11.1h1.6l6.3,8.7c0,0,0-1.4,0-2.8v-5.9h1.5V257.3z"/>
</g>
<circle fill="none" stroke="#F9F1C3" stroke-miterlimit="10" cx="270.6" cy="277.6" r="50.8"/>
<g>
	<path fill="#F9F1C3" d="M242.7,266.2h-3.8v3h3.5v1.1h-3.5v3.9h-1.3v-9.1h5V266.2z"/>
	<path fill="#F9F1C3" d="M250.4,274.3h-1.5l-2.4-3.9h-1v3.9h-1.3v-9.1h2.6c0.9,0,1.6,0.2,2.2,0.6c0.5,0.4,0.9,1.1,0.9,1.9
		c0,1.6-1.1,2.3-2.1,2.5L250.4,274.3z M248,266.5c-0.4-0.3-0.9-0.3-1.5-0.3h-0.9v3.1h0.9c0.6,0,1.1,0,1.5-0.3
		c0.4-0.3,0.6-0.7,0.6-1.2C248.5,267.2,248.4,266.8,248,266.5z"/>
	<path fill="#F9F1C3" d="M255.8,274.4c-2.6,0-4.7-1.8-4.7-4.7s2.1-4.7,4.7-4.7s4.7,1.8,4.7,4.7S258.3,274.4,255.8,274.4z
		 M255.8,266.1c-1.9,0-3.4,1.3-3.4,3.6c0,2.2,1.5,3.6,3.4,3.6c1.9,0,3.4-1.3,3.4-3.6C259.1,267.5,257.6,266.1,255.8,266.1z"/>
	<path fill="#F9F1C3" d="M270,274.3h-1.3l-5.2-7.3c0,0,0,1.2,0,2.4v4.8h-1.3v-9.1h1.3l5.2,7.1c0,0,0-1.1,0-2.3v-4.8h1.3V274.3z"/>
	<path fill="#F9F1C3" d="M277.8,266.2h-2.6v8h-1.3v-8h-2.6v-1.1h6.4V266.2z"/>
	<path fill="#F9F1C3" d="M284.6,274.3h-5.4v-9.1h5.3v1.1h-4v2.7h3.8v1.1h-3.8v3.2h4.2V274.3z"/>
	<path fill="#F9F1C3" d="M294.1,274.3h-1.3l-5.2-7.3c0,0,0,1.2,0,2.4v4.8h-1.3v-9.1h1.3l5.2,7.1c0,0,0-1.1,0-2.3v-4.8h1.3V274.3z"/>
	<path fill="#F9F1C3" d="M302.6,273.1c-0.7,0.6-1.8,1.2-3.4,1.2h-2.7v-9.1h2.7c1.6,0,2.7,0.6,3.4,1.2s1.4,1.7,1.4,3.4
		C304,271.4,303.2,272.5,302.6,273.1z M301.6,267.1c-0.5-0.5-1.3-0.8-2.4-0.8h-1.5v6.9h1.5c1.1,0,1.9-0.4,2.4-0.8s1.1-1.3,1.1-2.6
		S302.1,267.6,301.6,267.1z"/>
	<path fill="#F9F1C3" d="M265.4,288.9c-0.7,0.6-1.8,1.2-3.4,1.2h-2.7V281h2.7c1.6,0,2.7,0.6,3.4,1.2s1.4,1.7,1.4,3.4
		C266.8,287.2,266,288.3,265.4,288.9z M264.4,282.9c-0.5-0.5-1.3-0.8-2.4-0.8h-1.5v6.9h1.5c1.1,0,1.9-0.4,2.4-0.8s1.1-1.3,1.1-2.6
		S264.9,283.4,264.4,282.9z"/>
	<path fill="#F9F1C3" d="M274,290.1h-5.4V281h5.3v1.1h-4v2.7h3.8v1.1h-3.8v3.2h4.2V290.1z"/>
	<path fill="#F9F1C3" d="M282.9,281l-3.3,9.1h-1.1L275,281h1.4l2.6,7.3l2.6-7.3H282.9z"/>
</g>
<circle fill="none" stroke="#F9F1C3" stroke-miterlimit="10" cx="248.9" cy="171.4" r="45.9"/>
<g>
	<path fill="#F9F1C3" d="M227.5,167.8c-0.5,0.4-1.2,0.5-2.1,0.5h-2.7v-8.2h2.2c0.8,0,1.4,0.1,2,0.4c0.5,0.3,0.9,0.8,0.9,1.7
		c0,0.9-0.6,1.6-1.3,1.8v0c1.1,0.2,1.8,0.9,1.8,2C228.4,166.9,228.1,167.4,227.5,167.8z M226.1,161.3c-0.3-0.2-0.6-0.2-1.1-0.2H224
		v2.6h1c0.6,0,1,0,1.2-0.3c0.3-0.2,0.5-0.5,0.5-1.1C226.7,161.7,226.4,161.4,226.1,161.3z M226.6,164.8c-0.4-0.3-0.9-0.3-1.4-0.3
		H224v2.9h1.2c0.5,0,1,0,1.4-0.3s0.6-0.6,0.6-1.2C227.2,165.5,227,165.1,226.6,164.8z"/>
	<path fill="#F9F1C3" d="M236.8,168.4h-1.3l-0.8-2.1h-3.5l-0.8,2.1h-1.2l3.4-8.3h1L236.8,168.4z M234.3,165.2l-1.4-3.7l-1.4,3.7
		H234.3z"/>
	<path fill="#F9F1C3" d="M244.4,167.3c-0.5,0.6-1.4,1.2-3,1.2c-2.4,0-4.2-1.7-4.2-4.2c0-2.6,1.8-4.2,4.2-4.2c1.5,0,2.5,0.6,2.9,1.1
		l-0.5,0.9c-0.3-0.4-1.2-1-2.4-1c-1.8,0-3.1,1.3-3.1,3.2s1.3,3.2,3.1,3.2c1.1,0,1.9-0.4,2.5-1L244.4,167.3z"/>
	<path fill="#F9F1C3" d="M251.9,168.4h-1.4l-2.7-4.1l-0.8,0.9v3.3h-1.2v-8.2h1.2v3.5l3.4-3.5h1.4l-3.1,3.2L251.9,168.4z"/>
	<path fill="#F9F1C3" d="M258,168.4H253v-8.2h4.8v1h-3.7v2.5h3.5v1h-3.5v2.9h3.8V168.4z"/>
	<path fill="#F9F1C3" d="M266.6,168.4h-1.1l-4.7-6.6c0,0,0,1.1,0,2.2v4.4h-1.1v-8.2h1.2l4.7,6.5c0,0,0-1,0-2.1v-4.4h1.1V168.4z"/>
	<path fill="#F9F1C3" d="M274.2,167.3c-0.6,0.5-1.6,1.1-3.1,1.1h-2.5v-8.2h2.5c1.4,0,2.5,0.5,3.1,1.1c0.6,0.5,1.3,1.5,1.3,3
		C275.5,165.8,274.8,166.7,274.2,167.3z M273.4,161.9c-0.5-0.4-1.2-0.8-2.2-0.8h-1.3v6.2h1.3c1,0,1.7-0.3,2.2-0.8
		c0.5-0.4,1-1.2,1-2.4S273.8,162.3,273.4,161.9z"/>
	<path fill="#F9F1C3" d="M244.2,181.6c-0.6,0.5-1.6,1.1-3.1,1.1h-2.5v-8.2h2.5c1.4,0,2.5,0.5,3.1,1.1c0.6,0.5,1.3,1.5,1.3,3
		S244.8,181.1,244.2,181.6z M243.3,176.2c-0.5-0.4-1.2-0.8-2.2-0.8h-1.3v6.2h1.3c1,0,1.7-0.3,2.2-0.8c0.5-0.4,1-1.2,1-2.4
		S243.8,176.6,243.3,176.2z"/>
	<path fill="#F9F1C3" d="M252.1,182.7h-4.9v-8.2h4.8v1h-3.7v2.5h3.5v1h-3.5v2.9h3.8V182.7z"/>
	<path fill="#F9F1C3" d="M260.1,174.4l-3,8.2h-1l-3-8.2h1.2l2.3,6.6l2.3-6.6H260.1z"/>
</g>
<circle fill="none" stroke="#F9F1C3" stroke-miterlimit="10" cx="190.6" cy="79.2" r="50.7"/>
<g>
	<path fill="#F9F1C3" d="M167.8,76.1c-0.5,0-0.8-0.3-0.8-0.8s0.3-0.8,0.8-0.8c0.5,0,0.8,0.3,0.8,0.8S168.2,76.1,167.8,76.1z
		 M168.4,83.6h-1.3v-6.3h1.3V83.6z"/>
	<path fill="#F9F1C3" d="M174.8,83.8c-2.6,0-4.7-1.8-4.7-4.7s2.1-4.7,4.7-4.7s4.7,1.8,4.7,4.7S177.3,83.8,174.8,83.8z M174.8,75.5
		c-1.9,0-3.4,1.3-3.4,3.6c0,2.2,1.5,3.6,3.4,3.6c1.9,0,3.4-1.3,3.4-3.6C178.2,76.8,176.6,75.5,174.8,75.5z"/>
	<path fill="#F9F1C3" d="M185.7,83.1c-0.6,0.5-1.3,0.7-2.2,0.7c-1.6,0-2.5-1-2.9-1.5l0.8-0.9c0.5,0.6,1.3,1.3,2.3,1.3
		c1,0,1.8-0.6,1.8-1.5c0-0.9-1-1.3-1.5-1.5c-0.5-0.2-1.1-0.4-1.4-0.6c-0.2-0.1-0.6-0.3-0.9-0.6c-0.3-0.3-0.6-0.8-0.6-1.6
		s0.3-1.3,0.8-1.8c0.5-0.4,1.2-0.7,2.1-0.7c1.5,0,2.4,0.9,2.6,1.2l-0.7,0.9c-0.4-0.5-1.1-1-2-1s-1.6,0.4-1.6,1.3s0.6,1.2,1.2,1.4
		l1.7,0.7c0.2,0.1,0.7,0.4,1,0.7c0.3,0.4,0.6,0.8,0.6,1.5C186.6,81.9,186.3,82.6,185.7,83.1z"/>
	<path fill="#F9F1C3" d="M197.5,82.4c-0.7,0.6-1.8,1.2-3.4,1.2h-2.7v-9.1h2.7c1.6,0,2.7,0.6,3.4,1.2c0.7,0.6,1.4,1.7,1.4,3.4
		S198.2,81.8,197.5,82.4z M196.5,76.5c-0.5-0.5-1.3-0.8-2.4-0.8h-1.5v6.9h1.5c1.1,0,1.9-0.4,2.4-0.8c0.5-0.5,1.1-1.3,1.1-2.6
		S197,76.9,196.5,76.5z"/>
	<path fill="#F9F1C3" d="M206.1,83.6h-5.4v-9.1h5.3v1.1h-4v2.7h3.8v1.1H202v3.2h4.1V83.6z"/>
	<path fill="#F9F1C3" d="M215,74.5l-3.3,9.1h-1.1l-3.3-9.1h1.4l2.6,7.2l2.6-7.2H215z"/>
</g>
<circle fill="none" stroke="#F9F1C3" stroke-miterlimit="10" cx="294.8" cy="79.2" r="45.9"/>
<g>
	<path fill="#F9F1C3" d="M262.1,83.8h-1.1l-1.6-2.7h-0.7v2.7h-0.9v-6.2h1.8c0.6,0,1.1,0.1,1.5,0.4c0.4,0.3,0.6,0.7,0.6,1.3
		c0,1.1-0.8,1.6-1.4,1.7L262.1,83.8z M260.5,78.5c-0.3-0.2-0.6-0.2-1-0.2h-0.6v2.1h0.6c0.4,0,0.8,0,1-0.2c0.3-0.2,0.4-0.5,0.4-0.8
		C260.9,79,260.7,78.7,260.5,78.5z"/>
	<path fill="#F9F1C3" d="M266.8,83.8h-3.7v-6.2h3.6v0.7H264v1.9h2.6v0.7H264v2.2h2.8V83.8z"/>
	<path fill="#F9F1C3" d="M271.4,83.4c-0.4,0.3-0.9,0.5-1.5,0.5c-1.1,0-1.7-0.7-2-1l0.5-0.6c0.3,0.4,0.9,0.9,1.6,0.9
		c0.7,0,1.2-0.4,1.2-1c0-0.6-0.7-0.9-1-1c-0.3-0.1-0.8-0.3-1-0.4c-0.1-0.1-0.4-0.2-0.6-0.4c-0.2-0.2-0.4-0.6-0.4-1.1
		c0-0.5,0.2-0.9,0.6-1.2c0.3-0.3,0.8-0.5,1.4-0.5c1,0,1.6,0.6,1.8,0.8l-0.5,0.6c-0.3-0.3-0.8-0.7-1.4-0.7c-0.6,0-1.1,0.3-1.1,0.9
		s0.4,0.8,0.8,0.9l1.1,0.5c0.1,0.1,0.5,0.3,0.7,0.5c0.2,0.2,0.4,0.6,0.4,1C272,82.6,271.8,83.1,271.4,83.4z"/>
	<path fill="#F9F1C3" d="M276.6,80.7c-0.4,0.3-0.9,0.4-1.5,0.4h-0.9v2.7h-0.9v-6.2h1.7c0.6,0,1.1,0.1,1.5,0.4
		c0.4,0.3,0.6,0.7,0.6,1.3S277,80.4,276.6,80.7z M275.9,78.5c-0.2-0.2-0.5-0.2-0.9-0.2h-0.8v2.1h0.8c0.4,0,0.7-0.1,0.9-0.2
		c0.2-0.2,0.4-0.4,0.4-0.8C276.3,79,276.1,78.7,275.9,78.5z"/>
	<path fill="#F9F1C3" d="M281.3,83.9c-1.7,0-3.2-1.2-3.2-3.2c0-2,1.5-3.2,3.2-3.2s3.2,1.2,3.2,3.2C284.5,82.7,283,83.9,281.3,83.9z
		 M281.3,78.3c-1.3,0-2.3,0.9-2.3,2.4c0,1.5,1.1,2.4,2.3,2.4c1.3,0,2.3-0.9,2.3-2.4C283.6,79.2,282.6,78.3,281.3,78.3z"/>
	<path fill="#F9F1C3" d="M291.1,83.8h-0.9l-3.6-5c0,0,0,0.8,0,1.6v3.3h-0.9v-6.2h0.9l3.5,4.9c0,0,0-0.8,0-1.6v-3.3h0.9V83.8z"/>
	<path fill="#F9F1C3" d="M295.9,83.4c-0.4,0.3-0.9,0.5-1.5,0.5c-1.1,0-1.7-0.7-2-1l0.5-0.6c0.3,0.4,0.9,0.9,1.6,0.9
		c0.7,0,1.2-0.4,1.2-1c0-0.6-0.7-0.9-1-1c-0.3-0.1-0.8-0.3-1-0.4c-0.1-0.1-0.4-0.2-0.6-0.4c-0.2-0.2-0.4-0.6-0.4-1.1
		c0-0.5,0.2-0.9,0.6-1.2c0.3-0.3,0.8-0.5,1.4-0.5c1,0,1.6,0.6,1.8,0.8l-0.5,0.6c-0.3-0.3-0.8-0.7-1.4-0.7c-0.6,0-1.1,0.3-1.1,0.9
		s0.4,0.8,0.8,0.9l1.1,0.5c0.1,0.1,0.5,0.3,0.7,0.5c0.2,0.2,0.4,0.6,0.4,1C296.6,82.6,296.3,83.1,295.9,83.4z"/>
	<path fill="#F9F1C3" d="M298.8,83.8h-0.9v-6.2h0.9V83.8z"/>
	<path fill="#F9F1C3" d="M305.1,77.6l-2.3,6.2H302l-2.3-6.2h0.9l1.7,5l1.7-5H305.1z"/>
	<path fill="#F9F1C3" d="M309.8,83.8h-3.7v-6.2h3.6v0.7H307v1.9h2.6v0.7H307v2.2h2.8V83.8z"/>
	<path fill="#F9F1C3" d="M316.4,83.8h-0.9l-3.6-5c0,0,0,0.8,0,1.6v3.3h-0.9v-6.2h0.9l3.5,4.9c0,0,0-0.8,0-1.6v-3.3h0.9V83.8z"/>
	<path fill="#F9F1C3" d="M321.8,83.8h-3.7v-6.2h3.6v0.7H319v1.9h2.6v0.7H319v2.2h2.8V83.8z"/>
	<path fill="#F9F1C3" d="M326.4,83.4c-0.4,0.3-0.9,0.5-1.5,0.5c-1.1,0-1.7-0.7-2-1l0.5-0.6c0.3,0.4,0.9,0.9,1.6,0.9
		c0.7,0,1.2-0.4,1.2-1c0-0.6-0.7-0.9-1-1c-0.3-0.1-0.8-0.3-1-0.4c-0.1-0.1-0.4-0.2-0.6-0.4c-0.2-0.2-0.4-0.6-0.4-1.1
		c0-0.5,0.2-0.9,0.6-1.2c0.3-0.3,0.8-0.5,1.4-0.5c1,0,1.6,0.6,1.8,0.8l-0.5,0.6c-0.3-0.3-0.8-0.7-1.4-0.7c-0.6,0-1.1,0.3-1.1,0.9
		s0.4,0.8,0.8,0.9l1.1,0.5c0.1,0.1,0.5,0.3,0.7,0.5c0.2,0.2,0.4,0.6,0.4,1C327,82.6,326.8,83.1,326.4,83.4z"/>
	<path fill="#F9F1C3" d="M331.4,83.4c-0.4,0.3-0.9,0.5-1.5,0.5c-1.1,0-1.7-0.7-2-1l0.5-0.6c0.3,0.4,0.9,0.9,1.6,0.9
		c0.7,0,1.2-0.4,1.2-1c0-0.6-0.7-0.9-1-1c-0.3-0.1-0.8-0.3-1-0.4c-0.1-0.1-0.4-0.2-0.6-0.4c-0.2-0.2-0.4-0.6-0.4-1.1
		c0-0.5,0.2-0.9,0.6-1.2c0.3-0.3,0.8-0.5,1.4-0.5c1,0,1.6,0.6,1.8,0.8l-0.5,0.6c-0.3-0.3-0.8-0.7-1.4-0.7c-0.6,0-1.1,0.3-1.1,0.9
		s0.4,0.8,0.8,0.9l1.1,0.5c0.1,0.1,0.5,0.3,0.7,0.5c0.2,0.2,0.4,0.6,0.4,1C332.1,82.6,331.9,83.1,331.4,83.4z"/>
</g>
<circle fill="none" stroke="#F9F1C3" stroke-miterlimit="10" cx="364.8" cy="163.9" r="54.9"/>
<g>
	<path fill="#F9F1C3" d="M341.2,160.4c-2.8,0-5.1-1.9-5.1-5.1c0-3.2,2.3-5.1,5.1-5.1s5.1,1.9,5.1,5.1
		C346.3,158.4,343.9,160.4,341.2,160.4z M341.2,151.4c-2,0-3.7,1.4-3.7,3.9c0,2.4,1.7,3.9,3.7,3.9c2,0,3.7-1.5,3.7-3.9
		C344.8,152.9,343.2,151.4,341.2,151.4z"/>
	<path fill="#F9F1C3" d="M355.2,150.4l-3.6,9.9h-1.2l-3.6-9.9h1.5l2.8,7.8l2.8-7.8H355.2z"/>
	<path fill="#F9F1C3" d="M362.5,160.2h-5.9v-9.8h5.8v1.2H358v2.9h4.1v1.2H358v3.4h4.5V160.2z"/>
	<path fill="#F9F1C3" d="M371.1,160.2h-1.7l-2.6-4.2h-1.1v4.2h-1.4v-9.8h2.8c1,0,1.8,0.2,2.4,0.7c0.6,0.5,1,1.2,1,2.1
		c0,1.7-1.2,2.5-2.2,2.7L371.1,160.2z M368.5,151.8c-0.4-0.3-1-0.4-1.7-0.4h-1v3.3h1c0.7,0,1.2,0,1.7-0.3c0.4-0.3,0.6-0.7,0.6-1.3
		C369.1,152.6,369,152.2,368.5,151.8z"/>
	<path fill="#F9F1C3" d="M381.2,160.2h-1.5l-1-2.6h-4.2l-1,2.6H372l4-9.9h1.2L381.2,160.2z M378.3,156.5l-1.7-4.4l-1.7,4.4H378.3z"
		/>
	<path fill="#F9F1C3" d="M387.5,160.2h-4.9v-9.8h1.4v8.7h3.5V160.2z"/>
	<path fill="#F9F1C3" d="M393.8,160.2H389v-9.8h1.4v8.7h3.5V160.2z"/>
	<path fill="#F9F1C3" d="M355.9,176c-0.6,0.7-1.7,1.5-3.6,1.5c-2.9,0-5-2-5-5.1s2.2-5.1,5-5.1c1.8,0,3,0.8,3.5,1.3l-0.6,1.1
		c-0.4-0.5-1.5-1.2-2.9-1.2c-2.1,0-3.7,1.5-3.7,3.8s1.6,3.8,3.7,3.8c1.3,0,2.3-0.5,2.9-1.2L355.9,176z"/>
	<path fill="#F9F1C3" d="M361.9,177.5c-2.8,0-5.1-1.9-5.1-5.1c0-3.2,2.3-5.1,5.1-5.1s5.1,1.9,5.1,5.1
		C367,175.6,364.6,177.5,361.9,177.5z M361.9,168.5c-2,0-3.7,1.4-3.7,3.9c0,2.4,1.7,3.9,3.7,3.9c2,0,3.7-1.5,3.7-3.9
		C365.5,170,363.9,168.5,361.9,168.5z"/>
	<path fill="#F9F1C3" d="M373.7,176.7c-0.6,0.5-1.4,0.8-2.4,0.8c-1.7,0-2.7-1.1-3.2-1.7l0.8-0.9c0.5,0.7,1.4,1.4,2.5,1.4
		c1.1,0,1.9-0.6,1.9-1.7c0-1-1.1-1.4-1.6-1.6c-0.5-0.2-1.2-0.5-1.6-0.7c-0.2-0.1-0.6-0.3-1-0.7c-0.4-0.4-0.6-0.9-0.6-1.7
		s0.4-1.5,0.9-1.9c0.5-0.5,1.3-0.7,2.3-0.7c1.6,0,2.6,1,2.8,1.3l-0.7,0.9c-0.5-0.5-1.2-1.1-2.2-1.1s-1.7,0.5-1.7,1.4
		s0.7,1.3,1.3,1.5l1.8,0.8c0.2,0.1,0.8,0.4,1.1,0.8c0.3,0.4,0.6,0.9,0.6,1.7C374.7,175.4,374.3,176.2,373.7,176.7z"/>
	<path fill="#F9F1C3" d="M382.7,168.6h-2.8v8.7h-1.4v-8.7h-2.8v-1.2h6.9V168.6z"/>
</g>
<g>
	<g>
		<rect x="-24.4" y="-708.1" fill="none" width="231" height="53.4"/>
		<text transform="matrix(1 0 0 1 -15.222 -695.2125)" fill="#EEEEEE" font-family="'Gibson-SemiBold'" font-size="18.6764">Better Than Average</text>
	</g>
	<g>
		<rect x="335.8" y="-708.1" fill="none" width="160.1" height="53.4"/>
		<text transform="matrix(1 0 0 1 350.2636 -695.2125)" fill="#EEEEEE" font-family="'Gibson-SemiBold'" font-size="18.6764">Best In Breed</text>
	</g>
	<g>
	</g>
</g>
<circle fill="none" stroke="#F9F1C3" stroke-miterlimit="10" cx="478.4" cy="-1047.8" r="57.7"/>
<rect x="420.7" y="-1062" fill="none" width="115.4" height="28.4"/>
<text transform="matrix(1 0 0 1 438.3137 -1051.6411)"><tspan x="0" y="0" fill="#F9F1C3" font-family="'Gibson-Regular'" font-size="15">Technical </tspan><tspan x="22.7" y="18" fill="#F9F1C3" font-family="'Gibson-Regular'" font-size="15">Skill</tspan></text>
<circle fill="none" stroke="#F9F1C3" stroke-miterlimit="10" cx="478.4" cy="-913.5" r="64.8"/>
<rect x="413.5" y="-919.3" fill="none" width="129.7" height="11.6"/>
<text transform="matrix(1 0 0 1 440.2332 -907.688)" fill="#F9F1C3" font-family="'Gibson-Regular'" font-size="16.853">Product</text>
<circle fill="none" stroke="#F9F1C3" stroke-miterlimit="10" cx="352.6" cy="-866.3" r="57.7"/>
<rect x="294.9" y="-880.5" fill="none" width="115.4" height="28.4"/>
<text transform="matrix(1 0 0 1 313.2026 -870.1419)"><tspan x="0" y="0" fill="#F9F1C3" font-family="'Gibson-Regular'" font-size="15">Customer</tspan><tspan x="10.9" y="18" fill="#F9F1C3" font-family="'Gibson-Regular'" font-size="15">service</tspan></text>
<g>
	<circle fill="none" stroke="#F9F1C3" stroke-miterlimit="10" cx="716.3" cy="-890.6" r="57.7"/>
</g>
<rect x="658.6" y="-895.7" fill="none" width="115.4" height="10.4"/>
<text transform="matrix(1 0 0 1 687.8316 -885.3859)" fill="#F9F1C3" font-family="'Gibson-Regular'" font-size="15">COMMS</text>
<circle fill="none" stroke="#F9F1C3" stroke-miterlimit="10" cx="609.7" cy="-990.1" r="73.6"/>
<rect x="536.1" y="-1008.2" fill="none" width="147.2" height="36.2"/>
<text transform="matrix(1 0 0 1 570.4166 -994.9911)"><tspan x="0" y="0" fill="#F9F1C3" font-family="'Gibson-Regular'" font-size="19.1288">Overall</tspan><tspan x="10.9" y="23" fill="#F9F1C3" font-family="'Gibson-Regular'" font-size="19.1288">value</tspan></text>
<circle fill="none" stroke="#F9F1C3" stroke-miterlimit="10" cx="75.4" cy="-895.7" r="62"/>
<rect x="13.4" y="-911" fill="none" width="124" height="30.5"/>
<text transform="matrix(1 0 0 1 65.1705 -899.873)"><tspan x="0" y="0" fill="#F9F1C3" font-family="'Gibson-Regular'" font-size="16.1136">UX</tspan><tspan x="-18.9" y="19.3" fill="#F9F1C3" font-family="'Gibson-Regular'" font-size="16.1136">Design</tspan></text>
<circle fill="none" stroke="#F9F1C3" stroke-miterlimit="10" cx="195.2" cy="-860.2" r="50.8"/>
<rect x="144.4" y="-872.7" fill="none" width="101.5" height="25"/>
<text transform="matrix(1 0 0 1 160.9014 -863.6301)"><tspan x="0" y="0" fill="#F9F1C3" font-family="'Gibson-Regular'" font-size="13.1911">Frontend</tspan><tspan x="22" y="15.8" fill="#F9F1C3" font-family="'Gibson-Regular'" font-size="13.1911">dev</tspan></text>
<circle fill="none" stroke="#F9F1C3" stroke-miterlimit="10" cx="173.5" cy="-966.5" r="45.9"/>
<rect x="127.6" y="-977.7" fill="none" width="91.8" height="22.6"/>
<text transform="matrix(1 0 0 1 146.1638 -969.5198)"><tspan x="0" y="0" fill="#F9F1C3" font-family="'Gibson-Regular'" font-size="11.9275">backend</tspan><tspan x="16.3" y="14.3" fill="#F9F1C3" font-family="'Gibson-Regular'" font-size="11.9275">dev</tspan></text>
<circle fill="none" stroke="#F9F1C3" stroke-miterlimit="10" cx="115.2" cy="-1058.7" r="50.7"/>
<rect x="64.6" y="-1063.4" fill="none" width="101.3" height="9.3"/>
<text transform="matrix(1 0 0 1 90.7341 -1054.2721)" fill="#F9F1C3" font-family="'Gibson-Regular'" font-size="13.1656">iOS DEV</text>
<circle fill="none" stroke="#F9F1C3" stroke-miterlimit="10" cx="219.4" cy="-1058.7" r="45.9"/>
<rect x="173.5" y="-1060.3" fill="none" width="91.8" height="8.4"/>
<text transform="matrix(1 0 0 1 182.3536 -1054.084)" fill="#F9F1C3" font-family="'Gibson-Regular'" font-size="9">RESPONSIVENESS</text>
<circle fill="none" stroke="#F9F1C3" stroke-miterlimit="10" cx="289.4" cy="-974" r="54.9"/>
<rect x="234.4" y="-987.5" fill="none" width="109.8" height="27"/>
<text transform="matrix(1 0 0 1 260.0662 -977.6832)"><tspan x="0" y="0" fill="#F9F1C3" font-family="'Gibson-Regular'" font-size="14.2733">OVERALL</tspan><tspan x="11" y="17.1" fill="#F9F1C3" font-family="'Gibson-Regular'" font-size="14.2733">COST</tspan></text>
</svg>
