<?xml version="1.0" encoding="utf-8"?>
<!-- Generator: Adobe Illustrator 17.1.0, SVG Export Plug-In . SVG Version: 6.00 Build 0)  -->
<!DOCTYPE svg PUBLIC "-//W3C//DTD SVG 1.1//EN" "http://www.w3.org/Graphics/SVG/1.1/DTD/svg11.dtd">
<svg version="1.1" id="Layer_1" xmlns="http://www.w3.org/2000/svg" xmlns:xlink="http://www.w3.org/1999/xlink" x="0px" y="0px"
	 viewBox="0 0 745.6 709.9" enable-background="new 0 0 745.6 709.9" xml:space="preserve">
<path opacity="0.2" fill="#DCDBDC" d="M740.3,283.1c9.2-9,6.3-17.8-6.4-19.6l-219.3-31.9c-12.7-1.8-27.7-12.8-33.4-24.2L383.1,8.6
	c-5.7-11.5-15-11.5-20.6,0l-98.1,198.7c-5.7,11.5-20.7,22.4-33.4,24.2L11.7,263.5c-12.7,1.8-15.6,10.7-6.4,19.6l158.7,154.7
	c5.2,5.1,9.3,13,11.4,21.2c24.6-14.1,53.8-25.6,86-33.7c-2.3-6.3-5.7-12.1-9.8-16.1l-71-69.2c-9.2-9-6.3-17.8,6.4-19.6l98.2-14.3
	c12.7-1.8,27.7-12.8,33.4-24.2l43.9-88.9c5.7-11.5,15-11.5,20.6,0l43.9,88.9c5.7,11.5,20.7,22.4,33.4,24.2l98.2,14.3
	c12.7,1.8,15.6,10.7,6.4,19.6l-71,69.2c-4,3.9-7.2,9.4-9.5,15.4c32.2,7.9,61.3,19.1,86.1,33c2.2-7.7,6.1-15,11.1-19.8L740.3,283.1z"
	/>
<g opacity="0.2">
	<g>
		<g>
			<path fill="#696969" d="M481.2,448.5l16.8,97.8c2.2,12.6-5.3,18.1-16.7,12.1l-87.8-46.2c-11.4-6-29.9-6-41.3,0l-87.8,46.2
				c-11.3,6-18.9,0.5-16.7-12.1l16.8-97.8c1.2-7-0.1-15.5-3-23.2c-32.3,8.1-61.4,19.6-86,33.7c1.6,6.2,2.2,12.6,1.3,18l-37.5,218.4
				c-2.2,12.6,5.3,18.1,16.7,12.1l196.1-103.1c11.3-6,29.9-6,41.3,0l196.1,103.1c11.3,6,18.9,0.5,16.7-12.1L568.8,477
				c-1-5.8-0.2-12.8,1.7-19.4c-24.8-13.8-53.9-25.1-86.1-33C481.3,432.5,479.9,441.3,481.2,448.5z"/>
		</g>
	</g>
</g>
</svg>
